<mxfile host="Electron" modified="2023-05-09T18:30:48.915Z" agent="Mozilla/5.0 (Macintosh; Intel Mac OS X 10_15_7) AppleWebKit/537.36 (KHTML, like Gecko) draw.io/21.2.8 Chrome/112.0.5615.165 Electron/24.2.0 Safari/537.36" etag="dMh5QBWsRKPJY8gtmS5T" version="21.2.8" type="device">
  <diagram id="2FZCEFIGFviBtUF47QQc" name="Page-1">
    <mxGraphModel dx="1819" dy="1054" grid="1" gridSize="10" guides="1" tooltips="1" connect="1" arrows="1" fold="1" page="1" pageScale="1" pageWidth="850" pageHeight="1100" math="0" shadow="0">
      <root>
        <mxCell id="0" />
        <mxCell id="1" parent="0" />
        <mxCell id="VM1dI-sfTaYflANjbwcX-1" value="" style="rounded=0;whiteSpace=wrap;html=1;dashed=1;glass=1;shadow=1;strokeWidth=2;fillColor=none;" parent="1" vertex="1">
          <mxGeometry x="520" y="330" width="440" height="120" as="geometry" />
        </mxCell>
        <mxCell id="kZlyT9btExikWkIdY84d-9" value="" style="rounded=0;whiteSpace=wrap;html=1;dashed=1;glass=1;shadow=1;strokeWidth=2;fillColor=none;" parent="1" vertex="1">
          <mxGeometry x="20" y="20" width="440" height="430" as="geometry" />
        </mxCell>
        <mxCell id="-r5Mu0k7ATpPsQTbyTsy-11" value="" style="edgeStyle=orthogonalEdgeStyle;rounded=0;orthogonalLoop=1;jettySize=auto;html=1;entryX=0.008;entryY=0.493;entryDx=0;entryDy=0;entryPerimeter=0;exitX=1;exitY=0.25;exitDx=0;exitDy=0;" parent="1" source="MG-LlDJlU9poGaoctH4h-1" target="-r5Mu0k7ATpPsQTbyTsy-10" edge="1">
          <mxGeometry relative="1" as="geometry">
            <mxPoint x="570" y="140" as="targetPoint" />
            <mxPoint x="428.5" y="146.75" as="sourcePoint" />
          </mxGeometry>
        </mxCell>
        <mxCell id="kZlyT9btExikWkIdY84d-12" value="" style="group" parent="1" vertex="1" connectable="0">
          <mxGeometry x="21.5" y="20" width="440" height="400" as="geometry" />
        </mxCell>
        <mxCell id="kZlyT9btExikWkIdY84d-10" value="Browser" style="text;html=1;strokeColor=none;fillColor=none;align=center;verticalAlign=middle;whiteSpace=wrap;rounded=0;shadow=1;glass=1;dashed=1;fontSize=14;" parent="kZlyT9btExikWkIdY84d-12" vertex="1">
          <mxGeometry x="23.5" y="6" width="40" height="20" as="geometry" />
        </mxCell>
        <mxCell id="-r5Mu0k7ATpPsQTbyTsy-1" style="edgeStyle=orthogonalEdgeStyle;rounded=0;orthogonalLoop=1;jettySize=auto;html=1;exitX=0.5;exitY=0;exitDx=0;exitDy=0;entryX=0.5;entryY=1;entryDx=0;entryDy=0;entryPerimeter=0;" parent="1" source="-r5Mu0k7ATpPsQTbyTsy-7" target="-r5Mu0k7ATpPsQTbyTsy-4" edge="1">
          <mxGeometry x="520" y="19.5" as="geometry">
            <mxPoint x="837" y="129" as="targetPoint" />
            <mxPoint x="750" y="369.5" as="sourcePoint" />
            <Array as="points" />
          </mxGeometry>
        </mxCell>
        <mxCell id="-r5Mu0k7ATpPsQTbyTsy-2" value="" style="rounded=0;whiteSpace=wrap;html=1;dashed=1;glass=1;shadow=1;strokeWidth=2;fillColor=none;" parent="1" vertex="1">
          <mxGeometry x="520" y="19" width="440" height="301" as="geometry" />
        </mxCell>
        <mxCell id="-r5Mu0k7ATpPsQTbyTsy-3" value="Ellucian Cloud" style="text;html=1;strokeColor=none;fillColor=none;align=center;verticalAlign=middle;whiteSpace=wrap;rounded=0;shadow=1;glass=1;dashed=1;fontSize=14;" parent="1" vertex="1">
          <mxGeometry x="533" y="22" width="96.5" height="22" as="geometry" />
        </mxCell>
        <mxCell id="-r5Mu0k7ATpPsQTbyTsy-4" value="Banner&lt;br&gt;Storage" style="shape=cylinder3;whiteSpace=wrap;html=1;boundedLbl=1;backgroundOutline=1;size=15;" parent="1" vertex="1">
          <mxGeometry x="815.5" y="44" width="60" height="80" as="geometry" />
        </mxCell>
        <mxCell id="-r5Mu0k7ATpPsQTbyTsy-5" value="Persons Search&lt;br&gt;Lambda" style="rounded=1;whiteSpace=wrap;html=1;" parent="1" vertex="1">
          <mxGeometry x="569" y="370" width="130" height="69" as="geometry" />
        </mxCell>
        <mxCell id="-r5Mu0k7ATpPsQTbyTsy-6" value="Ethos&lt;br&gt;Integration" style="rounded=1;whiteSpace=wrap;html=1;" parent="1" vertex="1">
          <mxGeometry x="780.5" y="230" width="130" height="69" as="geometry" />
        </mxCell>
        <mxCell id="-r5Mu0k7ATpPsQTbyTsy-7" value="Banner&lt;br&gt;Integration&lt;br&gt;API" style="rounded=1;whiteSpace=wrap;html=1;" parent="1" vertex="1">
          <mxGeometry x="780.5" y="140" width="130" height="69" as="geometry" />
        </mxCell>
        <mxCell id="-r5Mu0k7ATpPsQTbyTsy-8" style="edgeStyle=orthogonalEdgeStyle;rounded=0;orthogonalLoop=1;jettySize=auto;html=1;entryX=0.5;entryY=1;entryDx=0;entryDy=0;exitX=1;exitY=0.5;exitDx=0;exitDy=0;" parent="1" source="-r5Mu0k7ATpPsQTbyTsy-5" target="-r5Mu0k7ATpPsQTbyTsy-6" edge="1">
          <mxGeometry x="520" y="19.5" as="geometry">
            <mxPoint x="751.5" y="50.5" as="targetPoint" />
            <mxPoint x="751.5" y="-21.5" as="sourcePoint" />
            <Array as="points" />
          </mxGeometry>
        </mxCell>
        <mxCell id="-r5Mu0k7ATpPsQTbyTsy-9" value="" style="edgeStyle=orthogonalEdgeStyle;rounded=0;orthogonalLoop=1;jettySize=auto;html=1;" parent="1" source="-r5Mu0k7ATpPsQTbyTsy-6" target="-r5Mu0k7ATpPsQTbyTsy-7" edge="1">
          <mxGeometry x="520" y="19.5" as="geometry" />
        </mxCell>
        <mxCell id="-r5Mu0k7ATpPsQTbyTsy-10" value="Experience&lt;br&gt;Extension JWT&lt;br&gt;Endpoint" style="rounded=1;whiteSpace=wrap;html=1;" parent="1" vertex="1">
          <mxGeometry x="569" y="113" width="130" height="69" as="geometry" />
        </mxCell>
        <mxCell id="-r5Mu0k7ATpPsQTbyTsy-12" value="" style="edgeStyle=orthogonalEdgeStyle;rounded=0;orthogonalLoop=1;jettySize=auto;html=1;exitX=1;exitY=0.75;exitDx=0;exitDy=0;" parent="1" source="MG-LlDJlU9poGaoctH4h-1" target="-r5Mu0k7ATpPsQTbyTsy-5" edge="1">
          <mxGeometry relative="1" as="geometry">
            <mxPoint x="428.5" y="329.25" as="sourcePoint" />
            <mxPoint x="580" y="150" as="targetPoint" />
          </mxGeometry>
        </mxCell>
        <mxCell id="VM1dI-sfTaYflANjbwcX-2" value="Institution/Ellucian Cloud" style="text;html=1;strokeColor=none;fillColor=none;align=center;verticalAlign=middle;whiteSpace=wrap;rounded=0;shadow=1;glass=1;dashed=1;fontSize=14;" parent="1" vertex="1">
          <mxGeometry x="533" y="333" width="157" height="22" as="geometry" />
        </mxCell>
        <mxCell id="MG-LlDJlU9poGaoctH4h-1" value="" style="shape=image;verticalLabelPosition=bottom;labelBackgroundColor=default;verticalAlign=top;aspect=fixed;imageAspect=0;image=data:image/png,iVBORw0KGgoAAAANSUhEUgAAAtoAAALMCAYAAADaYRW1AAAKp2lDQ1BJQ0MgUHJvZmlsZQAASImVlgdUU+kSgP9700NCC0Q6oTfpLYCU0EMRpIOohCRAKCEEQhM7iyu4FkREQFnRVQEFV6XIWhBUVFgE7HVBFgFlXSyIisq7wCHs7jvvvfPmnrnznbnzzz/zn/ufMwCQSSyBIBmWBiCFnyEM8nKlRURG0XAjAAMIyKMBDFnsdAEjMNAPILJg/y4f7gFo1t42ns3179//q8hwuOlsAKBAhGM56ewUhM8i+oItEGYAgKpE/FpZGYJZbkNYTogUiPCdWY6f59FZjp3nL3MxIUFuAKCRrvAkFksYDwBJBfHTMtnxSB7SMoTN+BweH+HZep1SUlI5CJ9AWB+JESA8m58e+5c88X/LGSvOyWLFi3m+lznBu/PSBcmsnP/zOP63pCSLFvbQRZSUIPQOQqwkcmYPklJ9xcyPXR6wwDzOXPwcJ4i8QxeYne4WtcAclruveG3ycr8FjuN5MsV5MpghC8xN9wheYGFqkHivOKEbY4FZwsV9RUmhYn8ClynOn5sQEr7Ambyw5QucnhTsuxjjJvYLRUHi+rl8L9fFfT3Fvaek/6VfHlO8NiMhxFvcO2uxfi6fsZgzPUJcG4fr7rEYEyqOF2S4ivcSJAeK47nJXmJ/emaweG0G8kMurg0Un2EiyydwgUEosAB04IGoNTADIIObnTHbhFuqIEfIi0/IoDGQ28WlMflsk6U0CzMLSwBm7+r8r/COOncHIerNRV/ScwDsHACA3y36YpA+G6MBIBst+gyrkGvIA6BDii0SZs770LMvDCACKSAHFIEa0AL6wBip0AY4ABekSh8QAEJAJFgN2CABpAAhyAJ5YBMoAEVgF9gLykEVOAyOg5PgNGgG58FlcA10gV5wFzwGA2AYvAIT4AOYhiAIB5EhCqQIqUM6kBFkAdEhJ8gD8oOCoEgoBoqH+JAIyoO2QEVQMVQOHYJqoJ+hc9Bl6AbUBz2EBqEx6C30GUbBJFgOVoV1YVOYDjNgXzgEXgXHw2lwLpwP74DL4Gr4BNwEX4a74LvwAPwKnkQBlASKitJAGaPoKDdUACoKFYcSotajClGlqGpUPaoV1Ym6jRpAjaM+obFoCpqGNkY7oL3RoWg2Og29Hr0dXY4+jm5CX0HfRg+iJ9DfMGSMCsYIY49hYiIw8ZgsTAGmFHMU04i5irmLGcZ8wGKxVKwe1hbrjY3EJmLXYrdjD2AbsG3YPuwQdhKHwynijHCOuAAcC5eBK8Dtx53AXcL144ZxH/ESeHW8Bd4TH4Xn4zfjS/G1+Iv4fvwIfpogTdAh2BMCCBxCDmEn4QihlXCLMEyYJsoQ9YiOxBBiInETsYxYT7xKfEJ8JyEhoSlhJ7FCgiexUaJM4pTEdYlBiU8kWZIhyY0UTRKRdpCOkdpID0nvyGSyLtmFHEXOIO8g15A7yM/IHyUpkiaSTEmO5AbJCskmyX7J11IEKR0phtRqqVypUqkzUrekxqUJ0rrSbtIs6fXSFdLnpO9LT8pQZMxlAmRSZLbL1MrckBmVxcnqynrIcmTzZQ/LdsgOUVAULYobhU3ZQjlCuUoZlsPK6ckx5RLliuROyvXITcjLylvJh8lny1fIX5AfoKKoulQmNZm6k3qaeo/6eYnqEsYS7pJtS+qX9C+ZUlBWcFHgKhQqNCjcVfisSFP0UExS3K3YrPhUCa1kqLRCKUvpoNJVpXFlOWUHZbZyofJp5UcqsIqhSpDKWpXDKt0qk6pqql6qAtX9qh2q42pUNRe1RLUStYtqY+oUdSd1nnqJ+iX1lzR5GoOWTCujXaFNaKhoeGuINA5p9GhMa+pphmpu1mzQfKpF1KJrxWmVaLVrTWira/tr52nXaT/SIejQdRJ09ul06kzp6umG627VbdYd1VPQY+rl6tXpPdEn6zvrp+lX698xwBrQDZIMDhj0GsKG1oYJhhWGt4xgIxsjntEBo76lmKV2S/lLq5feNyYZM4wzjeuMB02oJn4mm02aTV6baptGme427TT9ZmZtlmx2xOyxuay5j/lm81bztxaGFmyLCos7lmRLT8sNli2Wb6yMrLhWB60eWFOs/a23Wrdbf7WxtRHa1NuM2WrbxthW2t6ny9ED6dvp1+0wdq52G+zO232yt7HPsD9t/6eDsUOSQ63D6DK9ZdxlR5YNOWo6shwPOQ440ZxinH50GnDWcGY5Vzs/d9Fy4bgcdRlhGDASGScYr13NXIWuja5TbvZu69za3FHuXu6F7j0esh6hHuUezzw1PeM96zwnvKy91nq1eWO8fb13e99nqjLZzBrmhI+tzzqfK74k32Dfct/nfoZ+Qr9Wf9jfx3+P/5PlOsv5y5sDQAAzYE/A00C9wLTAX1ZgVwSuqFjxIsg8KC+oM5gSvCa4NvhDiGvIzpDHofqhotD2MKmw6LCasKlw9/Di8IEI04h1EV2RSpG8yJYoXFRY1NGoyZUeK/euHI62ji6IvrdKb1X2qhurlVYnr76wRmoNa82ZGExMeExtzBdWAKuaNRnLjK2MnWC7sfexX3FcOCWcMa4jt5g7EucYVxw3Gu8Yvyd+LME5oTRhnOfGK+e9SfROrEqcSgpIOpY0kxye3JCCT4lJOceX5Sfxr6SqpWan9gmMBAWCgTT7tL1pE0Jf4dF0KH1VekuGHDIUdYv0Rd+JBjOdMisyP2aFZZ3JlsnmZ3fnGOZsyxnJ9cz9aS16LXtte55G3qa8wXWMdYfWQ+tj17dv0NqQv2F4o9fG45uIm5I2/brZbHPx5vdbwre05qvmb8wf+s7ru7oCyQJhwf2tDlurvkd/z/u+Z5vltv3bvhVyCm8WmRWVFn3Zzt5+8wfzH8p+mNkRt6Nnp83Og7uwu/i77u123n28WKY4t3hoj/+ephJaSWHJ+71r9t4otSqt2kfcJ9o3UOZX1rJfe/+u/V/KE8rvVrhWNFSqVG6rnDrAOdB/0OVgfZVqVVHV5x95Pz445HWoqVq3uvQw9nDm4RdHwo50/kT/qeao0tGio1+P8Y8NHA86fqXGtqamVqV2Zx1cJ6obOxF9ovek+8mWeuP6Qw3UhqJT4JTo1MufY36+d9r3dPsZ+pn6szpnKxspjYVNUFNO00RzQvNAS2RL3zmfc+2tDq2Nv5j8cuy8xvmKC/IXdl4kXsy/OHMp99Jkm6Bt/HL85aH2Ne2POyI67lxZcaXnqu/V69c8r3V0MjovXXe8fv6G/Y1zN+k3m7tsupq6rbsbf7X+tbHHpqfplu2tll673ta+ZX0X+537L992v33tDvNO193ld/vuhd57cD/6/sADzoPRh8kP3zzKfDT9eOMTzJPCp9JPS5+pPKv+zeC3hgGbgQuD7oPdz4OfPx5iD736Pf33L8P5L8gvSkfUR2pGLUbPj3mO9b5c+XL4leDV9HjBHzJ/VL7Wf332T5c/uyciJobfCN/MvN3+TvHdsfdW79snAyeffUj5MD1V+FHx4/FP9E+dn8M/j0xnfcF9Kftq8LX1m++3JzMpMzMClpA1NwqgEIXj4gB4ewyZGyIBoPQCQFw5P0vPCTQ//88R+E88P2/PiQ0A1S4AhCMa0IYwovobAZBC7Ow4FOICYEtLsS7MvXMz+qz4GSNjb5eZjbXHHbrHRvAPmZ/f/1L3Py2YzWoF/mn/BYiIA3M4CKu6AAAAOGVYSWZNTQAqAAAACAABh2kABAAAAAEAAAAaAAAAAAACoAIABAAAAAEAAALaoAMABAAAAAEAAALMAAAAAMZiel0AAEAASURBVHgB7J0HgBRF2oZrlxUwoZhQgoIIiFnALEYweyqe6YyXPHM606+eOd3pnXfnGc98pjOBOWdUPEUFUTKIBDEimABh96+3eqqnu6dnd3aZ3Z3deUpnqr+q6urupwd455uvv6rYaue7aoyx/+ctaX3puwQj9Z62T94DNGB8bXPRBwEIQAACEIAABCBQvgQq6nnpGl9h/0sprjGtJ63N75+Zyw5p023tfS/0Q/0hsnawQ9bWVo2pyOjowLK2aw1q1585Tnw+9Wf2j/Vn9rNzxsdjw0OfF30OggIPePB54M8Dfx/w92Hw9wB/H/L3YZ6/D+1Ho1a96XrTPj/SozXOVZzdPzOuIt943+7r3D+fFVvtfGeK+zmlSYd2zUFfdkR2K5jev6e0pzT50fX3gmf3ZAsCEIAABCAAAQhAAAJZ+Z3CItDDiY7URjsmLp6d7ZrSxqe1BYK/yql29UsEu9puSLmHts6nOrRramyf/q/ROO0X2MF426b9VNTuavvmxtlvCa72drKOzmP7osevdb/kPNgBbzjAgT9H/D3C3wP8PcDfA/w9wN8D/u8BycmYbq3M/PnwdVL/Ov0Z6FMfzeEEaoXdIUenBuOS7dajfVdE/3qXud/f2lZQu+Po5GzRCG+72h6owgpxr6/9RjAuPl+wf0Z3WyOYJzFf2O77qWO84RP//MEDHvYzkPP3HZ8LPhd8Lvhzwd8DZf73gA8AyerIUE+Hfz8oWCQYJ1hZvVUZ0+NBe4WJ7W9Fuf6L//uTtO2cW+thSDeDU8yRf7G0q31lZpAD2wVnq1axDTWS987O1H4e12+7smecmSc6zg7K6de8kXbNU2gJPex2h7rmpT/OGR7wiP654/PA54HPA/+O8PcAfw80198DTsQVKP7q/Tm1O0Suy4Vey3YK2vZpPpWMZ7vC1bYxVNhWWkf2N5WaL7Nf2B63q1y7U9F2Yms4T7QaM23adCelt+rAQ60mhZOs2WUFs+N2PUy/TdcwPbt3NB07Lm0qdVAKBCAAAQhAAAIQgAAEWgiBaqtx58z5yUz+ZI557/3PzEuvTTXTZ8y1Z29Vto2gVpHCdR5wp5etbffxzl3f7kSzFd/SzxLlFVsPujM7ys1gTfXatxoXg6L4bAlsP8wK7K4rmt8esanZZeeeGkiBAAQgAAEIQAACEIBAqyLw7IuTzW13vWc+nTkvo40rra62erjSim8niwPpHdgSzxnXt9PPsq0HfCsrtINhPoIkUwuVHVPjZHzgydYDkL/Yq48565Rt8VyLDwUCEIAABCAAAQhAoNUSkKf7z9cMN48+Od5GlPgYbCnnyiByxG45HW37Aj0dr9usufaQC0XHNWfUuZPaoci2nU6KG3PUYZuYU4/byh1I+1AgAAEIQAACEIAABCDQWglIXA/cei2zaFG1+WD054FelqKWN1qW4riDVlsFIju0bXtl4Kv2OwS7BaEiQUCKQrXl1d53r97mmN8M0EAKBCAAAQhAAAIQgAAEyobAMb8dYPbZs3cQ6eG0caCPlZ1PJfouy9vZRxfV4nze6sxEfbtdq81a3VYwZ566rbN4gwAEIAABCEAAAhCAQLkROMtq4TW7dbCBHtVB9hELQJpZyjl0cguKNYIgExtg4hS3e9jRDrZxKNUZke082TXBznrwsdK5xssNKdcLAQhAAAIQgAAEIAABPQNZYZOB9LOCOaOXrYiWjq6RXvaebSegg3Yxy3i0bUxJZnCgyPW+WP2me9cVbHaRddw2bxCAAAQgAAEIQAACEChXArtaTbym1cbyWEtuu7zaGUvPNDodbeH4utIpcKfMpcmDFR61oytWoe+4Xfdgm3cIQAACEIAABCAAAQiUOYGdtlsr48GW2HY+7YzsVkpsC8fqalUyKisySbVlVNi8fy65dqZburz/pl3cUN4gAAEIQAACEIAABCBQ7gT6bdo1o5dFQvHZ/r9AYGuxdt9SlcktEkjrjGdb7m7FayvmZO0eHcudJ9cPAQhAAAIQgAAEIAABR0CroUsjm+pKU2ODsKu1rUVqbHFSW3HaLnbESm7FmGjbvWyHs6ttzIkLH6k2K9ll1SkQgAAEIAABCEAAAhCAgDEdrTYOwqytXnaa2epnp6EzelraWtrbwqoKnNxBfEnUu63Yba1TEyTiBisEIAABCEAAAhCAAAQgoOwjQSi2FdRWKwdaWlyCyGzpaYWOyHZZRySmXWy2Tfbnnp50b9o52EG7UiAAAQhAAAIQgAAEIAABCemMy9qK6SAeW9EggbyusOraRYhYj7X1aNvBNrbESerFNou2XN/WVkultSkQgAAEIAABCEAAAhCAQJaAnmUMVqOxWrnahYA4ce2iQfSco7WUfcR5tJ3fWx5uv0Z7pq7Bo50lyhYEIAABCEAAAhCAAAQcASu0rU52IdbS2ZLZTm87w44IahssYgfKnS2vttu04d1uw/aonQIBCEAAAhCAAAQgAAEIhARczIdWVPeaWT3KPuI0dSZq224HK6tb0e2KU+LacqMyLvGgi3cIQAACEIAABCAAAQhAQEEgktpeL0tIa9sWbSpGW7V9WY+2ilfeiswOWpxSx6Xt6PAGAQhAAAIQgAAEIAABTyAjsQPV7J51jChqq5+D/5zmtrsEfXbDSu+MuHZPUzq17aekhgAEIAABCEAAAhCAAAScQ9sKaKeXrY6WA1uW8mnLChIA2gVrnMZWo+vIxJa4xWq0x2JIQgACEIAABCAAAQhAAAIRAjVOIzsVbSV0xn/tY7SdP1uDXdaRTBCJtLg2nQbPtLkAE7VRIAABCEAAAhCAAAQgAAERkM861Mw+a1+mLcziZ+0g64gdGni2VWvLvjsvt92kQAACEIAABCAAAQhAAAIhgaxutk3Oox10xdptk8ujrUbnzI7WfmSwH+8QgAAEIAABCEAAAhCAgCXgYrCtwA5isbM6OoCjdhUbOiLHtS/a9KZ/WtL3UUMAAhCAAAQgAAEIQAACgV4OokACGl4/O8sa3rYe7azqtpEktt/amdjsigrZFAhAAAIQgAAEIAABCEAgSsDrZZc02yprJ59dnYngtm5tl3UkeFrSSmyXB1B1oMNlUyAAAQhAAAIQgAAEIACBLAEp5ah+Vk9g6zlHrUsT2FVOc1vFbZdrd1K8Qgu1u4gT20PWEcuCAgEIQAACEIAABCAAgSwB6edAJydqq6Oj7S42xMdp59aBZzs7LVsQgAAEIAABCEAAAhAodwLyXAcMsnXQkLWNqXJO6+DRyMCtrWgRjXAuboR2uX+MuH4IQAACEIAABCAAgTiBCquTpaEllyva2FfmGUcXFxJ5xDHIOmIHOfWthSEzMtxV6Ow4VSwIQAACEIAABCAAgbInEOjkTI4+p58tkpieDuzKwKMtSW4brOHsYFPv9kWBAAQgAAEIQAACEIAABDwBr59dHm3JaPuq8To6UrusI06Cuz19RsBs7SekhgAEIAABCEAAAhCAAAQUASIKPvQjqZuzts2j7VzZdnAgx6N2DXm0+SxBAAIQgAAEIAABCEAgQSCqnyszMSC+TXawnfFoZ/a18txrc9cSyPXExJgQgAAEIAABCEAAAhAobwLSzIFjO6ufAx2dtSvjypqo7PL+yHD1EIAABCAAAQhAAAKFEpDfWiVay0/t7bhH2w4MlLjbhzcIQAACEIAABCAAAQhAoA4CSf3sbRujHSl6StKZercvPUJJgQAEIAABCEAAAhCAAAQSBDI6Oaaf7ZCIHc86EsZoS4fbFzHaCaCYEIAABCAAAQhAAAIQEIFMLHZEPztPdsSOZx2xXmz/lGQQXYJHmw8SBCAAAQhAAAIQgAAE4gSkkbO62evnQDkHlvqrpLyjctop8fhMWBCAAAQgAAEIQAACZU7gkaGPm7HjJ5ixY8cXjcSQffc2Q/bbu2jzNdVEafo5qadlV+nNhWLbPSrk316sBvvK2HaLAgEIQAACEIAABCBQxgQksh8Z9njRCfg5W5rYDvWzJVKReaYxqqcFSrbzaLtwbLVU+1gTGVZrW5sCAQhAAAIQgAAEIFDeBLwgbgwK8pK3tCKF7B5ltGK6RhtS1V42Sz8r3UimckrcmpE6uFyv0FvaxXO+EIAABCAAAQhAoKEEXIjEuOKFRzT0PMplv2KGojQVs5hudrHaUR2didi24rtKJ+SUeKwOTtO3BxbvEIBAayMwd+5cM2HCBDNt2jSz2mqrmZ49e5rOnTu7L92t7Vq5HghAAAJ1ERhrxfVlV/w1GDYsqM79vz+avuv2qWtX+suQgHRy4Mi2tf3P2b62HbIr5bV2Lw1xOUhkZ1S53N6UkiTwxBNPBPfN3z9bDxgwoCTPlZMqPQKvvPKK2Xjjjc2KK65oNt98c3PAAQeY7bff3nTt2tVMmjQpdsLz5s0zd9xxh7n11luNhHlamT9/fs7nUX+v5BufNgdtEIAABJqbwCPDnsg5hbFjW15YQ85F0FB0AqF+9po5osecns60BzHa9vAurMS+qfavoLHo51aUCb///nvz/PPPmyeffNJ8/PHH5osvvnD/qK+88spmjTXWcKJz//33N1tssYUTAEU5KJO0KgLPPfeceeSRR+q8pjZt2jhvrz5X66+/vtlqq61MZWVlnfuV6oBTTz3V/P3vf897elVV7ocu1//++++brbfe2khIqxx//PHmtddec+LcNfAGAQhAoBURSAthUGxyS3tQrxXdkpK9FKeb7dm5Wm8Z33TSdllHdBVJ33XS1phSKAsXLjTXXnutufTSS823336bc0pfffWVGT9+vJHH7uqrrzYbbrihuemmm5w4yhlMQ1kT+OCDD9xno74QFFpx6KGHmvPOO8906NChvrs36/innnqqVpGtk9MXC1+uv/76UGSrbcGCBea6665DaHtA1BCAQKsioFRzyYf++vYlbKRV3eQiXYx0cvKlqb1+9nWLyqP93XffmV122cWMGDGiYEwffvih2WabbZzoPu200/Lu98c//tFMnDgx1n/hhReafv36xdowGo9AS7kHs2bNMldddZW5//77XUjFTjvt1HhQijzzcccdlzqjfgLTl9Iff/zRtG3bNhzzww8/hNt+Q78mUSAAAQi0RgJ9+/Y2JhOb7a9vyL57+U1qCIQEIk5s15bPzni0M5q8otIq8WrrBs/ocGuXSlFA+V577VUvke3PXfuefvrpLqTkkEMO8c2xWj+Hv/vuu7G2fKIkNgijaARa2j2YPn262XvvvV0oRf/+/YvGobEmmjlzpnvoMTm/vuDopdCYZDn22GPNfffdF2vmz0UMBwYEINCKCOihx7vvvNnooUjFZhMy0opubpEvxXusnQ/b6WcdIK6nZWc82sqfbeV1jUS2SpBPW3apFMXSSoglyworrGB+97vfmU033dR07NjRCQnFbesVLRLbJ510ktlnn33MMsssE+1iGwIhAX2edt5559DWxuLFi92vHcrOsWjRolifPMD77ruvC1cq9c+VnmVIlvbt25vzzz8/bwjMwIEDzbhx48w999zjOChkZr311ktOgw0BCECgVRGQ4CbTSKu6pUW/GO/BDvWzE9sRPW01t807opUhA/UdrYMkJTqnrF4v+hnWc8Ibb7wxZw9lSHj77bddOrJop7xwd955pznqqKOizUbx22pXPwUCaQTWXntt8/DDD6d1uS9xv/nNb8xLL70U658xY4a5++67zdFHHx1rLzVj6tSpOae03Xbb5RXZfnCfPn3MxRdf7E1qCEAAAhCAQNkTCHSzlHKujvatqltMjPbYsWNzbqp+7taDaWnlyCOPdF44ZSaJluHDh4dCu7q62nnp1C+Pd7LIe/nzzz+7Zj0gFs00ob7kPksttVRyCmdHj+MHJOfz7claHtORI0caxacrfZ9yHRejKO3a5MmTnXjUA32Kzy107uS1K743mqlC16sHUnXP1lprLdO3b9+8vyJE2SR56jpruwfF4FCfOXQtjz/+uMs88sknn8R2/fe//50jtKPX5geLk3ipfP311+aNN94IU+zJu5yv6HMwZcoUd7/kYZdXWV8Kop/JtH3FVAxV/Gc5Ok7HjLYnP5dp15AcE52vods6jpjq9c033xiJ+3XXXdfk+zPV0OOwHwQgAAEIQKAYBLxH28+Vz45nyrb//sd82DHDT9U8tXL5JotS+dVWtt12WyMhEX3J++jLKaec4h780sNfErPJovhb9el1zjnnxLoVz+r7fK2f2NPKiSeemDP2ggsuSBsatik7xCabbOK8jfI67rnnnqZTp05OgLz55pvhuPpuvP766y5n8iqrrGIUVzxkyBAzaNAgN7fmP+KII5wArG3ebt26xa7Hf9n57LPPzC9+8QsnHCUElV5RXw6WW245c9BBB5k5c+bkTLsk9yBnsiZoUHiI0uMlS1pYxplnnhnjpM/Js88+axQrrZR5+mKjUCblr07bX8dQZpTf/va3ZtVVV3VfhvScgvbp1auX46p5dE/zFX2x9J/PE044IWfYY489FvZrnB7yjBZ97v3+vtYX3GIVfeH7y1/+4hbK0WI5CttRTu+NNtrILLvssi7Xd75fGIp1DswDAQhAIEpAq0IeduTR5rIr/2q0TYFAGoGYRE7Rz76/0vtxXW3fknba5M3Rpn+Ek+X22283SveXryj29Keffoq9Xn311XzDS6b9mmuucQ/ZjRo1KvS4+5NTnLCEmTyo9SnybJ577rlGov2hhx4KvZzROZSL/D//+Y8TdE8//XS0q9ZtCei33nrLiWp5fOV9jxYd+4EHHnCi6fPPP492tcjtDTbYIOe85XH+8ssvc9qTDfoVYfDgwY6XvLi+yEucLMp1rS8qt912m8sGkuzXZ1vc9XlQ2EpausvkPqVk68uFvuydddZZzpOdPDd52kePHm1++ctfGv1ClfZlO7kPNgQgAIElISBh7dP7Kae2thHbS0K09e6b1Mv57MCjrdVsxCKlLhVEu+22W86pvPzyy0bt+se4tZR//vOfRmkIoyIseW0KBZAnsj5FscWXX355QbvIM73HHnuYF154oaDxOh+JPaW9q60oS4e8ly29+MVbotehkJDll18+2pS6LW9wWhhUNPRGO8qTLM+5wkTqKvoioy9e8nbX9rmpa56m7FfazS233NKFLxVy3Lvuusv9qlPIWMZAAAIQaCiBseNzV4H0wruhc7Jf6ySQqputmk62Bx5t+w+1K7Z2WxG7VPBIdCgEIVkkthVisfvuu7sH0tLy/ib38bZW+VNIhl7KNpEsm222WdiveNHGLvJQ5hPD+hldcdRJQVbIOSlji5bQThaFAmgZbl1b2rwS/IUIPc3r43x1nso9rjCUtHLDDTfEQkhK7R6knXOyLS10Rwxri7H2c2jBl7QS9Wgr3OPPf/5z2jCjsB151NNisxXvrUWaomWllVYKP8NpnnjdJ/9nQHXaL0fR+YqxrS9melA5+cuH5l599dXdYjhpYWHi8uCDDxbjFJgDAhCAQCqBtJUhWbAmFVXZNyb1cqCkc/V0pXswSw9n6WWXlZbt2ypKaJlpxbMq5CHt4Sh59J555hlz+OGHu3+of//737tsJHV9Cv7whz+YJ554wr0U85osyrTg+yUMGrvccsstJi204m9/+5sLC5DnXmEaCi0ptEjUpMXmKnxBHmbFAMvDqvjyZC5oeR0VtlBIkcjU/dH5Kd599uzZqasu6stENB651O5BXdf6zjvvmL/+9a85w5Resj5Fsd5aSEkx8Yprj3rDtcx50jO95pprGoUSffrpp0b3RQ8M6hmCZFG4VPRZAX2R8Z9hzZssWk7e96tWmEZjl5tvvtm89957scMsvfTS7uFl/ZqiTEIKw/nHP/4R/F0UGakwk3xfViLD2IQABCDQIAJaGTJZ+vbpnWzChkBCLwfa2fmzpaMjerrSOa+tAHd1tfVoZ7Zdbe1SKrvuuqsLmZDXK1/RqnUSrPpZWh5geXNbSpG3N1mUilDefO9xlldfDxCeccYZyaGp9osvvmgkXqJF/OQZjGYZkSdTuZKjnlXtozj4QorG6eHH6BchxQ1LyCWLMkuUatHDeXoQNfpS3LmWHdcXOV1PMnREX0x/9atfFXxJekhS8cby0Crd5KOPPmq6dOni9h8zZkxOKJTmf+6559wDgv4g+gVm6NCh7tcc36ZaIrTUvb56DiBZtAprlKGuWXnvlbc7WpSisCU8ZxE9Z7YhAIGWQ0AL1Ehsey+2tlm0puXcv6Y807heDnS0VLPXz76/yv575kqmsgo9a/u2oKU03hWT/dFHH5mzzz7biZTaHoaUaJH4k0C69tprU8NDSuOqjPNg6kG5ZNFiPGlFDzUmM0SkjdNDiMmieO20UBmlVJNnP+oRnTRpUnL3VDstLEEDlX1ED+xFSykLbaXQUwhFfYrirtOeIUibQ5/HfGEhGq9fBZJFXzB1b5JFX4oU3iOveLSkhbZE+5tzWx75ESNGxE5BX87SvO0apLhz5SiPFn0md9lll2gT2xCAAASKRgBhXTSUrXoi6eXoS8HZ0s2+zdu15tEuLX929n4p7lQ/P8sLpoVs9A9x2mIcfg950BS/qpCGFVdc0TeXVC2vc/JLg85V8c5LUvRlI1kUlpDP05+MM9ZP+PK+Ktd2Q0paXH3SI9yQeUtlH33hueKKKwo+nbQQpejOyj+eLEq/mK8kV7HUOAlZhVO5ELB8OzZTu74kJ4sWnlLaw7SS9ue60C9/afPRBgEIQAACECgGAee9thNJXEf1ctKuqnQDFFViF4q0Mjxqh+7tYpxRI8yh/M2Ko9ZLQlqZCf773/8a/fyfLPJUKlY56R1LjmsuO83Lm++BwvqcY1omkCuvvLI+UxgJmyUV/PU6YAsYrMVrLrroIvdrSdqDiQ29hLT7pZzt+YrCgBRWpFh8X5TmT5+nHj16+KaSqdOuT2Janv5CC0K7UFKMgwAEIACBxiIgvRyoZ/tu1bUEdvAuWz2S31ZXa7l1FafG7Zvq8OUaXXfJv+nBsptuusk9hKf8w2lZCxSDXGjKuqa+YK0SmCxaVGZJi3JjL2nR0vXlVCRcoy89uKjVLRVSosWH9AyA8pkrt3MxRbYYp+XCjsbSJ++Djh99kNL3l+qvBnwe/R2ihgAESpmAcmePHZf7C2MpnzPn1rQEpJ+jetnbOgsXn53pr5LM1sBorUGB/NZW8xctBpJMM9euXTu3Yl3y7BT6cPLJJ7s80JtvvnmOcFE6wNp+ik/O11S2fxguery09GfR/kK2JdKiq2EWsk9yjMIQyqUoe0gyI0ZTXrs85cm88Gm/0PhzUlrFNHGucIxSLLV9aSj0fMvp81goE8ZBAALFISBxfdkVmcxSw4I5z/2/P5q+6+Y+J1OcIzJLSyUgnZx8+Wvx7bJdjLbvUF2Kkkopx5IrFSqjhTzY+YpiYQ888EAXyx0do3R2pVgksJIlmS0k2V+IrfRuSaGtxU122GGHQnZ3Y/wS6wXvwMAGE9BDj8pyEi3J+xftUxrFpPDU/Urzckf3a65tfR6Tpb7ZgZLPESTnw4YABCDQUAKPDHsiZ9exYycgtHOo0OCd1J5EPjv0aLuBLqYkIrYVdFICJW0RjaTXL+0009IApoVopO1bV1s0jZ0fqwcHG7qwjcJEFKIg770vmm/ixIkuE4hvq2+tbCDJB83ELl82k/rOz/jiEkjLLqJ0dvqVJq289NJLOc0N/QzmTNQIDWlCWw9IKgvOqquu2ghHZEoIQAAChRNIW7BGK0OSiaRwhkqNOGTfvewaHRPC5ewL37vljIwp5Ix+Ds8+jNG2S9R4D7arbYhA0g53asaNrbfeOufoyqyQL3OGBiuzxvPPP5+zX3JRlpwBkYba4kl79OgRGRlsPvnkkzltOg+J5UKK4oCTJS23tsYUmktYKz8mizK2KANLvqLQiWOOOSYnXCff+MZsr+0eNOZxm2vutPulPNtpDwDKk620lcmSNkdyTHPZ8rSvvfbascPrz4jyxecretBTKRRff/31fENohwAEIFAUAqkL1ljhSCmMgPide3YQaqMvJ3ffebPLS17Y3i1rVFIve9tdRURPVwaKXE9HquTWrrmZ3w444ACTFlqhh9EuuOACt4pc9BSVYUQLXSTzN2vMFltsER0abqfFjiqncVr8q3ZKS9N2//33G3kYJRxUFPqhHN5pgt8NSLzpQbtk0ep4//rXv0LRq7htrUyYXGo7uZ+3FT6jXNbRokVN9thjD7dATTTsQKtSKhxn2223dfVxxx0X3a3Rt+t7Dxr9hJrhAJtttlnOio/6POm5Aq0M6Ys+B/pzkfzCJCFb6GJGfq6mrpWtJVkefvhhF+o1c+bMsEvx5/rSpzziWh11n332cTn0wwFsQAACECgygb59c1eBlHeWUjsBebGdqLbiOllaq+CuXTdn9XTGo+11uPdoZ+0ksOawlQFC/9AmMzxoFUil9pNA00/P+slcPz8r1ESiN1m6devmBGayXXaaN1mxsn6+5NLUetAyWaZNm2aU11jLZethNMXK3nvvvclheW19OejevXusXyJLArxjx45upUvVp59+emxMbYYeGtUy6skVH+UpPuyww1x+7AEDBhixUaiNPNlaJl1Fnu9LLrmktumL2lffe1DUg5fQZMqao/sWLfpsbbLJJu4+bbTRRu7zIHGaLPriWVs6wOT45rD1udNCNMmiFS31OdSvRfrlSV8aVPvwmDlz5pjdd9/dpKUITM6FDQEIQKAhBPTQowSjHoCUd1bbPAiZn6QEtljJi11XkeB2K21arq2hBEo5q5fz2dajbTW5jSWRN9s4K26XCowhQ4a4ZbDznY8WVdFiH/lS0S277LLuIbN8KfMGDx6cOrV+tpaHXPNHi2Kckz+B+3555aKeOd9eV60vFBJKaUUeTC0+k8y+kjY22SYv/llnnZVsdra+rMgrmvbAnb7YpHnuUycqQmN970ERDlmSU+hzdf7556eem+7Thx9+mPo5kCjVsuUtoWihqbSYbP3C8onNAS5Ptn55SRZ9iWjo4knJubAhAAEI5CMgcU1cdj46QbsX2PX5IuLEdkZw1z576ffWpZ99f+DRtjLcKXEb8eDqiF1Klypv64svvpjqfa7tPCUWhw4damqLXdXP0/pputDStm1bFx+79NJL17pL7969XXxprYMinUcddZTL05z2sKUfpqwLWpynPtkXLrvsMiOPYdoDon7eaK085Pfdd585+OCDo82Nul3fe9CoJ9PMk59zzjluOfa0fPDJU1Ni/FNOOcUMHz7c1Pa5Se7XnLbSWeqL4yGHHFLwaejPp7IPpa02WvAkDIQABCAAgSUiUAxPf2sIJ0nqZW87uBE9HcRoy4mtnpR6ie5GI+y80047uVhVCc19993X5BO6Ehzy8CmEZNy4cSaftzR6ilrQ5uyzz07Nz62MIMmiOGelCxw4cKBbBSjar1CWI444wrz77rtm++23j3bVuf3b3/7WxXUrPEWC3hd5mBU+oAchFfutEJX6FIW/jB071hx//PHOU50MJ9Fc8qbK+61fBxTf3dSlvvegqc+vKY+n1RIlRhVqoZCi5JLqK664ovts6RmAa665pl5fvJryOvIdSyFfCq3SQ8T6M6TrSRZ9/rVQkMK4hg0bZlZaaaXkEGwIQAACEGgCAj5MpJie/pYsuGvVzVE9vfWge2xgdrXNxWtfZrHdXGzd2otNtX2p/t9ruQ/oNcH9LPgQWgFP8avKJ6zUffrHW6JE8dHJmO5CJ/3hhx9clgf9hK355JWuy7OoEAwJej0AqYcPJViTwqjQ40fH6edz/Yyu61QsdTHzI2tOnbOWwJaAUVx5WirF6Pk01XZD7kFTnVtzHUfhSxLeWsBGaRsVz9zaiuKvdY0LFy50f4b1a1QxP/OtjRfXAwEIQAACzUNgwMBrrc5sY6Ou21i918aGX9vaaLvSvYxdo93Z2wy+1wntaiu0TYUV24sXOYG92IrsClNt3n7l+Oa5Ao4KAQhAAAIQgAAEIACBEiSw2Xb/MhUZoV1ZWWU1tBXYVmirlgBXMLYEeLgyZBBb4rOOqFtj3HsJXh6nBAEIQAACEIAABCAAgeYhIIWs8BHVLlWyiyXJtEk/Z+xwZciM7c7W7xxtcx28QQACEIAABCAAAQhAoMwJeI2s2m97JFE7XBlSnU6V+1EZO2KyCQEIQAACEIAABCAAgbInIM3sS5p+9v3Oo+0HJiV5RVSSh4PYgAAEIAABCEAAAhCAQPkS8BJZtdfLbjth22cis55sH5LtVbi3NYYCAQhAAAIQgAAEIAABCGQJOG92Rji7bdvl9bNs+5ikYkuiujxoibfLokAAAhCAAAQgAAEIQAACAYFAQXsdrTrwauvdZh2x/7ksf36wajVH7YxBBQEIQAACEIAABCAAAQg4Akm9nLRd0IjNsx3FZYNM4na0k20IQAACEIAABCAAAQhAIK6XY5YL2vYtYdYRF15ig0oyYSYBwZgBVAhAAAIQgAAEIAABCEDAS2Svnz0Rb/v+0KPtlbev3Q4xw09BDQEIQAACEIAABCAAgfIl4CWyrz0JZ9s33x56tP0Ar8CdHTP8CGoIQAACEIAABCAAAQiUL4FaJbLt9P2BR1sJACW9reWitJ1tG4I47vKlyJVDAAIQgAAEIAABCEAgQcB5rEO9LMu+XGXfnJ5Wk8064rKMSHlLeldnFLi2M7bdokAAAhCAAAQgAAEIQAACGQKSydLKXj+75ojt+93KkDUZEa5GiXPX6fbgDQIQgAAEIAABCEAAAhCIEpDz2jmxteFf2sxs+/5KiexoQWRHabANAQhAAAIQgAAEIACBOIGkfo73Wqd1Rl+HWUc0oMLK8Kjudqo8uSc2BCAAAQhAAAIQgAAEyphAVC8HbuwsDOln3x9mHZEnuyaRR9vFnWT3YwsCEIAABCAAAQhAAAJlT8BHgLg6IpgDPZ0Nw854tL0nO1uLoFfjZU8TABCAAAQgAAEIQAACEMgQ8Bo5qLOWtvxLW6FH28tql4UkM4lX61CFAAQgAAEIQAACEIAABAICWY2cFdlBT4VLKuL1dJB1JEMtGpPt1LjfF6oQgAAEIAABCEAAAhCAgCOQ9VpbM6OXvWz2elp2lVfkrrZvSRueEIAABCAAAQhAAAIQgECWQFQvV8iwqjpsy9gaHXq0tQikH6AOqXCvzGVTIAABCEAAAhCAAAQgAIGsTo4uou51c7QO+yWyvdD2294GKAQgAAEIQAACEIAABCCQJeD1sm/xujlaB6ux22AS91+ldLfd8rYPMvEzUEMAAhCAAAQgAAEIQKDMCbjIj4xeNlY/Ox3tdLPdcuo60NNB1hErvZ36rs5ocG9H8gKWOU8uHwIQgAAEIAABCEAAAo6AU8xeL1v97G3XWZ3R1bYxyKNtZbmLJ4kElcRsoEIAAhCAAAQgAAEIQAACjoDXycnad/r20KPtOpwct1vJ2nXyBgEIQAACEIAABCAAAQjEPNjWyGdXKZzE62rn1g4NQXR6HJoQgAAEIAABCEAAAhCAQIZAJhw7kMr2EUdnq0/SWXZmO1wZMqbEbWegt2OqW7tQIAABCEAAAhCAAAQgUNYEvEL2+tnbDoo1vB3EaFvdHfiuvQc7aZc1Sy4eAhCAAAQgAAEIQAACIQGvm5N1xpcd6urQo+07snU4FxsQgAAEIAABCEAAAhCAQIZATUZKe92ctYMB3s54tDN7hQEmge392pleKghAAAIQgAAEIAABCJQ9AR8D4kBY/Ry1g/VoAkShRzuIMfERJUFsSSYrYNnDBAAEIAABCEAAAhCAAAQ8Aa+YvX72tvpr7Do03g492lElrkFJW20UCEAAAhCAAAQgAAEIlDsBr5OTtefi20OPtu+ghgAEIAABCEAAAhCAAATyE/Aeaz8in13lo0oUtK2YEle7vdTj9bifhhoCEIAABCAAAQhAAALlTSCqkqWfFQui/wI9LTaBXSUF7l8+oMTbSXWu3SgQgAAEIAABCEAAAhAoZwJeI7tab1Zrh20ZW3ysRztefF+gzeN9WBCAAAQgAAEIQAACECh3Al4n+1o8tO10tDZsUWUXiYwocBm2hIo8MHmHAAQgAAEIQAACEIAABCIEkno5tDMbqpxHO5s+OyvBtaXoEgoEIAABCEAAAhCAAAQgkCXgFLJ9C8KzA8WcCdU2FTanX4VUtu0Pso5Yw6b8c2+q5NL2tkwKBCAAAQhAAAIQgAAEIBAQSOrlmF2dyaNtG4M82laCB8rc1xmFjkebzxMEIAABCEAAAhCAAARiBOK62etnW6sjoqutR9u2OBke1KFd46aITYoBAQhAAAIQgAAEIACBcicQ6uWMjg5t6Werq71dJeXtdHaGmJPXaOxy//xw/RCAAAQgAAEIQAACeQiEelkb9uU82Ror26Ya8f3hypBebMdqb2hHCgQgAAEIQAACEIAABCAQOqm9VI7V1vB2EKNtgTnlnVLDEgIQgAAEIAABCEAAAhDIEsinm5PtoUfb7+oVuLepIQABCEAAAhCAAAQgAIEsgaRezmcr019mL9WV1lKdeVW49Wyys7IFAQhAAAIQgAAEIACBMicQ08sp+tn3hx7tQIln8v5ZeM52ybTLnCSXDwEIQAACEIAABCAAgQgB78HOp599PzHaEWhsQgACEIAABCAAAQhAoC4C0XgQjc1nV3nF7SeU7Qf7tlKtf/jhRzNr1mfm62/mmHnzvjMLFy60K1omr6hUz57zggAEIAABCEAAAhAQgQqbH69t27amQ4flzcordTSdO69hll12mZKFk9TL+ewqJ6rtm/Sp4kliIjtMClha1ymBPX7CJDNz5qzSOjHOBgIQgAAEIAABCECg3gTkKF2wYIH58ku9vjLjxk80Xbp0Nn16r1OSglt62Wtmr5792jT60qCiynm0JbKlxPXuFbmrS9A7/Omn083oDz8OPdfdunUxnTqtZlZcYQXTvn07943IXQpvEIAABCAAAQhAAAItgoCE9vz5C8y3c+eazz//wkyfPtM5VBW5sNGG65k11+xWUtcR6OasftbJOT1txbWLrsio7oxHW60aEmryYCujyNVTCmXixMnuG47ORQK7T+9eZuml25fCqXEOEIAABCAAAQhAAAINJCAvsDSdXmus3slpvPETJjrBPWr0R9bbvdD06tWzgbMXfzf5rH0kSKienW62ljrVbzesR7si9A5LaztPtuvOGH67mWt5svUzgsoGG/Q1Pbqv1cxnxOEhAAEIQAACEIAABBqDgAT3JhtvaFZYoYMZM2as04Dt2rUtGc+29LMvzlft9LRtsc0uIERq23ZUKu2Itv3LpyGxTbbXvft5mq1WTLbCRVQQ2c12GzgwBCAAAQhAAAIQaFICcqxK+6lIC0oTlkJxutmeiJSyPNdaecZr6Qqrn71d6VS3Vdyx2g526rw60OjWbNaiBx8V76JwETzZzXorODgEIAABCEAAAhBoUgLSftKA0oLShCVRMhLZVfa8gjqjp61+9nal1LfkuKu1KVt1+ObMZnvTNxefXUQx2RQIQAACEIAABCAAgfIi4DWgNGFJeLWjetneCq+bQ12t22Mbw5Uh/e3KCHRvNnutp01V9E2GBx+b/XZwAhCAAAQgAAEIQKDJCUgDSguqeG3Y5CdRywGT+tnbNopEGjzzslXcVnvzFi1Go6IUfhQIQAACEIAABCAAgfIk4LWg14bNSyGqn6WevW3Pyrq1Azvi0faxJF6Be7t5L8K4FR91DsqTTYEABCAAAQhAAAIQKE8CXgtqNfBSKV4vJ/Wzt8O8It53nayb+0K0rLqKFqOhQAACEIAABCAAAQiUJwGvBb02LAUKSd2ctEs+RtutrmNJ+uUsSwEq5wABCEAAAhCAAAQg0LQEvBb02rBpj1770bwH24/ydujRdh1WhgdKPKPHK5QFkAIBCEAAAhCAAAQgAAEIxAl4vZyrn72eDj3aTnnbt0CB+/x/1fH5sCAAAQhAAAIQgAAEIAABS8Dr5Vz97PV06NH2T0d6BR57ehKYEIAABCAAAQhAAAIQgECEQDa7SFY/qzurqq1HO+P2zuyWtCOzsQkBCEAAAhCAAAQgAAEI5OjnOBKvp51HO1wN0oZkO9md0d6EaMehYUEAAhCAAAQgAAEIQEAEkvo5za5SDIldoj2IzbYh2S6mJGKDEgIQgAAEIAABCEAAAhCIE3D6Wc5pPdJondXervGPOFo9XRV6sKWwrSG7JlO7PmtTIAABCEAAAhCAAAQgAIEsAXmwpZVDT7YzMrbV1WoPPdraLfRsS3Tbl2wKBCAAAQhAAAIQgAAEIBAn4HSyFdOx2g4J5bPdqKq0crs60ONWeleaSjtatntekiDtOFEsCEAAAhCAAAQgAIGyJ6DFc9wCOqorK922PNhyYzvbhYdUZDzaGVxaacercFc7iV72LAEAAQhAAAIQgAAEIACBkIDXy2pwK1VKZGdKsHJl0OBitCN9boh2Trb5nakhAAEIQAACEIAABCBQzgSkk71W9ttJW3zClSE9rKhC923UEIAABCAAAQhAAAIQgEBAIKmX89mZlSEzGlxxJW7/rA1QCEAAAhCAAAQgAAEIQCBLwHuvXUuKfvZ6OuPR9mu1+xjtrJ2dki0IQAACEIAABCAAAQhAIObBDp9xzOrnoL/GhB7twJetd2nwhGcbnhCAAAQgAAEIQAACEICAI5D1aMd1c1JHW492dqj2jCl0YEIAAhCAAAQgAAEIQAACMQJ16WffH3i0vdb2MSbezvi7YzNjQAACEIAABCAAAQhAoIwJOKns9XKKfvb9QYy2dWM7T7aPMfF2Nf7tMv4McekQgAAEIAABCEAAAikEAt2c6UjRz74/9Fl75Z2sU+amCQIQgAAEIAABCEAAAmVLwDuzHQBrJPWz74/n0faebO/I9nXZYuTCIQABCEAAAhCAAAQgECcQk8gp+tn3V7l12q0OV9C2W7dda7NH7Pi0WBCAAAQgAAEIQAACEChvAk4z29hsK55NheJDVNtXjbetnpZdZcNK7BrtwUuB2n5bNSlIyvtDxNVDAAIQgAAEIAABCOQS8HpZ7umaavtWGchmJ59lq1jDerSDbf/ubTUnuvwQaghAAAIQgAAEIAABCJQtAellp5nz1ZaM+quijmu/rVrF14HFOwQgAAEIQAACEIAABCDgNbOc0l4vJ2tRqrKeblPtfdcVldbzXR2xtTsFAhCAAAQgAAEIQAACEPAEpJ9tFLYzXbx2zK40FU51K0bbdmRWZrfx2dVOlct2/S5Q283BGwQgAAEIQAACEIAABCBgCQTe62D9xxrpZRdHolb7QKQP2rajqqTFA0UebAVWdhuaEIAABCAAAQhAAAIQgECWQFQ/S0f7/7yOVr+2bR7tYNPvGih0b1FDAAIQgAAEIAABCEAAAlECdeln3+882qG4tppbsjtqRydlGwJfffWVeeeddx2ItXuubfr07g0UCEAAAhCAAAQgUFYEYm7qjH4OAcjOiOlwZUhn2zcvsr0d7sQGBCyBDz8cY4486tfu9eCDD8EEAhCAAAQgAAEIlB0Br5fdhafoZ9+vtWxcCeogWlsNvj3o5R0CEIAABCAAAQhAoFQJPDL0caPXkpbLrvxrUeZZ0vMo9f2TOtnbST3tso5kL8bnH8m2sAUBCEAAAhCAAAQgULoEnMgeFojsseMnmHPP/mODTlYie+zY8e6lCYbst3eD5imHneSx9uJa1xu3pacD57X1aNthfmmbSpv3T6NDOzqFOigQgAAEIAABCEAAAqVEQOLaFwllCeb6Fi+y67tfuY6P62dZST0d2EGMto8tqfb5szOx2tamQAACEIAABCAAAQiULgF5sPv27ROeYH3FdlJkay682SHO1A2nkL1MTtHPvj+I0Zbo1jQpdersNEJAHxf3ywcoIAABCEAAAhBobgINFdtpIruhoSfNzaApj+91sztmin72/UGMtlfktvYK3O3o25vyzFvYsb7++mszbdo0M+3TT8333/9gunXtatZcc02z9to9ar2SH3/80cycOcuJ1XXW6RkbO2XKVDNy5Egzf8EC06NHd7NOz55m9dVXj41ZUqOh5x09bvv27UOzurraTJo82YweNdost9yyZsONNjJdOncO+9mAAAQgAAEIQKBxCUggR4Wz92znE87RsTozebLzjW3cM295s0siuxR+UtTSzxLbrjFjZ/qr5JT0SbXdWu1OXNvlI+2AIFZbG5QogXnz5plhwx419913vxn53nvRrnC7f79+5vzz/2S22mrLsC268fbb/zMHHXyIaxo96n0npK+++q/m37fcaubMmRMd6sT4QQcdaP503rlm1VVXjfXVxyjGeUePt8wyy5jFixebP51/gbn//v/aLxrfR7vNKqusYi6//FKz7z77xNoxIAABCEAAAhBoHAKFim1E9pLxDx5nlLq2/ys+RP/bRie4ZTvR7VaG1IGC2Gyt1a52vTuhrbXbKTkE7rn3PnP6GWfGRPbKK69s1lhjdQdZO0iA7zdkf/Pe++/n7J9sGDV6tDnhxJPMX666OhTZK664QjiX7ouE7G6772nmz5+f3L1gu9jnrQMffsSR5hb75UAiWx+wDh06hOejxW2OPvoY+4XjAifIww42IAABCEAAAhBoNAIS27XFbCOylxx9oJAz7wn97PW0FLXLOhI8K5n77uT5kp9Lq5vhYOtdlhA+8MADzMMPPWDGj/vYjP14jBn1wft2e6w59NBfuWtWOMVpp51e5/Ufe+zx5oEHHjT9Nt3UPDpsqJk0cbyZMH6cmfbJFHPXXXeEIRjTp083//rXdXXOl29Asc/78ssuNy+88KLZfvvtzXPPPmM+mTrZnfsH779n/nzlFaZd27buVG686WbD4jb57grtEIAABCAAgeITyCe2EdnFYe1Vs7Ryrf/tsNeTVnhXW9FdbWpqFpvq6sWurqlZZNsWmTeeP7I4Z9TAWR5/4hm359577dbAGRpnt4ULF5q2GSGZPIIE9g477GTGjR/vusZ8OMqsttpqsWEvv/xKGDqijl132cXcfvutpqqqKjZOxvsffGB23XV3167473ffeTtnTKENxT7v/YcMMddf/6/Q+x49jxEj3jb77Luf/TzV2Jj1tc0bw18zbdq0iQ5hGwIQgAAEIACBRiSQFNbRQ7XEmOxS0YVbDbrLVFa2sfqnynqtrbax266uqLR1pcVsU2bbtNn2/8BvbaNJnFiK2rYhej/YjhDIJ7I1pNJSHbzL4HD0lClTw+18G2eeeUaqyNb4TTfZxGy88UZu15kzZ5qff/453zR1thf7vE855aRUka0T2XLLLczOO+/kzmnKlCnmsceXfMWqOi+QARCAAAQgAAEIhASSnm3f0RJFtj/3Uqijelmhs/nsSuvLdvHYrraex6htXZGlcC0t8hy6dukSnvfMWbPC7bSN9dZbz2y44QZpXWFb9+7d3bYePpTYbqxSn/Nef/31TZ8+2bydaed06K+CMBr1vTey7nj1tDlogwAEIAABCEAAAqVEwOtlKWX9cu/tpJ6u8j5r1RrsbSlzn43EblLqIKAH/2bMmGm++26e+fGnn+zypWOze9TxhaVr16woz+4U3+q44ophww8//BBuL+nGkpx3ly51p+/r2XPt8BQ/tTHmFAhAAAIQgAAEmo5AvtCRulL/Nd0ZtswjSS9HX7qKrB2oab3nBgRrZFjwaIcoEhsKB7nzzjvN8y+8YKZPn2EW2JzX+Yq+6dRW1ihyjuzajlXM815t1XjcedpxO0WubcYMhHYaI9ogAAEIQAACjUEgKbJ9JhKJbBXEdmNQ15xZ17X1aGdyZkuH2xiTwM5ocmK0c+6AQjdOPOlk8/DDj7ifCjRAMdlK7de5cxez8sorGeWXnv7p9Fj6v5yJIg0dVlghYjXOZqOcd4fl6zzZDstnx2iRHAoEIAABCEAAAo1PIE1kK15bJdqH2G7YvZBeDn3YGf0c2Gq2vUqobccEK0PaTedztW/e9+pt20WJEFD+7Iceeti19Oq1jjnxhBPM3nvvZZZddtnIKGNuu+32UGgrSL62Uld/bfsW2tcY5/1VAcI5Kq5X71Tc1S0LvXbGQQACEIAABMqJQFRI67qTDz5KcEfHILbr/+mQTpa683rZLVQTtTP9WrvGFVfbt6Sd6aayBKZOnWruuedex6KrXWp92NBHzMEHH5QjsjVg3nffuXGl8NZY5/3FF1/WeXmzZ38ejum2Zrdwmw0IQAACEIAABIpPICqgNXtSZPsjJrOReLHt+6lrJ5DUy/nsSu/BdtNZI2nXfpjy6n333ZHhBe+15x61Loc+IZNDWzvUFaMdTtpIG4113hLwdZUPx3wYDunWDaEdwmADAhCAAAQgUGQChYpsf1jEtidR/zqpl/PZgUdboQ2S4jbW2EU5+FCH0N9d/xNojXvMiqTp6xxJ35e8Vi1HPvyNN5PNzWY31nlPmzbNvD58eK3Xdeedd4X9W2+1VbjNBgQgAAEIQAACxSNQX5Htj4zY9iTqVwcebK+fbUy2GqJ6WtNZO/Bo26wYLjGGXdHQ1bI1oDqmz9VS1qVXr17h9Y8YMSLcjm7Ie/2n8y8ws2fPjjY363ZjnvdVV11t9MUirdx7733mgw9GuS4tujNo0M5pw2iDAAQgAAEIQGAJCDwy9HGXQcRPkS9cxPcna8R2kkjddqCQvX7O1NLP6pCe1hTWsD5rqXEp8UytDtmuXQbFE+jfv5/LKCL7qaeeNqeddrp59dXX3EqNEtYvvfSy2X33PV0cd5/evf1uzV431nl36NDBaJn1nQftYh5+ZKgZN26cmTt3nmu78MKLzCmnnhZe++lnBE86hw1sQAACEIAABCBQdAL1Fdn+BJJiu2+f0tEx/hxLqZYD2wrmjH52Wwk9HejqKpd9JOK4TtqldFHNfS6dOnUy5//pPHP2/53jTuXue+4xeim9X7X99uLLjjvuYG668Uaz3vobmEWLFvnmZqsb67yffPJx849//NNlYTn22ONSr09Lvl9y8UVm8KBBqf00QgACEIAABCCwZASG7Le3m2Ds+AlGgrmhRfvKO67i52zoXK19P59lxF9nPtutDOl1tnNq2z2itp+AOiDwm9/82j0EeYH12M6YMcM1SmS3adPG9OjR3Rx80EHmuOOONVVVVWb99dczo0aNDnZs5vdin7cebJTX/vrr/mXWt0vI33f//WbSpMnhF452VmBvsMEG5tJLLzb9+/dv5qvn8BCAAAQgAIHWTaBYwrhY87Ru2vJgZ4v0c6zImZ0R0xU77v20DStebMNIbIutq6sX2e1qVxvzs3njuSNi+za18fgTz7hD7r3Xbk196FqPJ16ffTbbTJk6xSy/3PKmj/2JpX379rXuUwqdjXneWhp+zJiPzHLLLWt59HFfNkrhmjkHCEAAAhCAAARaB4FS0YVbD/6Pjb+2C6xXVpk2FZWurqxoY2qs6m5ja9tgKmzEQ+jRDsS4i8x2d8LbreO2FP8qFNPeufMa7lX82RtvxsY8by3as8UWmzfeyTMzBCAAAQhAAAIQKAEC3omt2qtn35ZtsXLbh4nonJVrRLZvCyz1UCAAAQhAAAIQgAAEIAABEfBaOdiO6+dAUQecrEc70OLOtK7vrG3b5QqnQAACEIAABCAAAQhAAAIhAe/Jlm6ucHrZbdn+QD9X2Kcj9V+V92A7ZW7jjr3tcmgobpsCAQhAAAIQgAAEIAABCIQEvF5WXSG9bPW1b2vj9LSkuAlitLUh0w2WYYt82bIpEIAABCAAAQhAAAIQgECWgHRz9KUeb0e37eOSWUHthbVX5N7WGAoEIAABCEAAAhCAAAQgEBDwOlm1d1irR9sqandCW5ko3JqRdp1IY2NGnK0RsikQgAAEIAABCEAAAhCAQIyA9LKUckWwznpMP1coBtv2B087ZmKzTXUmz0jEjs2IAQEIQAACEIAABCAAAQg4J7XzaqfoZ9du9bQV2laLO0WeXsMRAhCAAAQgAAHzsXvYAABAAElEQVQIQAACEIgSSNfNzscd0dUZj3ZmRyu/AwWetaNTsg0BCEAAAhCAAAQgAAEIWAJONAd1Uj97uyqM2BYxKXDb4zpd0IneKBCAAAQgAAEIQAACEIBASMDpZGupVox20paYtm2BR9tuB8o7uxakt20XBQIQgAAEIAABCEAAAhBIEPB62dW2L2mHQltCXNI7qAOB7t9dF28QgAAEIAABCEAAAhCAQEggn372ejoU2sEeWY+2t8OZ2IAABCAAAQhAAAIQgAAEEgRy9bP3cFuhLc2defmnJL1f2wWcJObChAAEIAABCEAAAhCAQFkTyKefbXtET4ce7SCmJPYAZdYoa5BcPAQgAAEIQAACEIAABHIJ5NPP3qPtVobUbtLlKqrV6W21USAAAQhAAAIQgAAEIACBOAGvl6O1tr0derS1mwS2V+DeVk2BAAQgAAEIQAACEIAABNIJJPWzt51HW7lGFMZdUVEZKnA3DTHa6TRphQAEIAABCEAAAhAoawLSz85zndHPPnef09NWact2Hm2JbCnvmprqoLbb1c72erysOXLxEIAABCAAAQhAAAIQiBGQepZeNqF+Duysnq4x1qMd6nE7MrvtVXlsRgwIQAACEIAABCAAAQhAwKnmAEOgnwPtnN3Wlgsd8X5r59W2e0RtOEIAAhCAAAQgAAEIQAACcQLSy/6hR6+hNcLraG1XRQfYEBNTIR+4Gn2HRlEgAAEIQAACEIAABCAAAUfASWX75uSy1c+KxXbbapOd0dOVUdUdBJrYkbaxJirNgQoBCEAAAhCAAAQgAAEIOAJOP0svy7Ki2tV20+lnb9vGSqe+vfvaZxnRijbq8LYmoUAAAhCAAAQgAAEIQAACWe91Ri97Pe31s7OtUVnjtkIdnvF7R2xgQgACEIAABCAAAQhAAAIhgUA/e9PmH0noaW9bj7Z6Mi8FlfhtV8umQAACEIAABCAAAQhAAAKeQKCfZVkN7fJox/W019fxGG0XWBJMEfi0vWfbT0sNAQhAAAIQgAAEIACB8ibgFbKrrX7OZ2ditHNhSZdTIAABCEAAAhCAAAQgAIE4Aa+T66rjHu34HCVhVWQeyKyJeNtL4sQ4CQhAAAIQgAAEIACBJiPgtaDXhk124JQDeQ+278pnp2cd8Xu5OO3QaJaNtm3buuPOn7+gWY7PQSEAAQhAAAIQgAAEmp+A14JeGzbnGQWe7Iw/2zqF89kZj3ZGh0e8xkFLUp83/SV16LC8O+i3c+c2/cE5IgQgAAEIQAACEIBASRDwWtBrw+Y8Ka+TXR3GaGditSN2POuI0+Nek6vOKPVmvJKVV+rojv75518041lwaAhAAAIQgAAEIACB5iTgtaDXhs15Lj6rSP5aZ6c82s15lgUcu3PnNdyo6dNnmp9+ml/AHgyBAAQgAAEIQAACEGhNBKQBpQVVvDZszutL6ud8tovRzjxvaNMAZrzZGUe2jzhpzgtZdtllTJcund0pjJ8wsTlPhWNDAAIQgAAEIAABCDQDAa8BpQmlDZu7ROM+pJ+ddPb6ORIv4jzaPjS7pjrQ47K1lc0K2LyX06f3OnY1+Ar3TWbqJ9Oa92Q4OgQgAAEIQAACEIBAkxGQ9pM3W1pQmrAUSqCTM3rZ6menoL1+zthqy3i0Awnu06XIw62WUvBoC6a+uWy04XraNGPGjDWIbYeCNwhAAAIQgAAEINCqCUjzSfupSAuWgjdb5+J1squtcFZtvwkE7b62VlWgwN278fkJQw93uM6N9m7esuaa3cyCBQvNuPETHfC5c+fZbzW9zNJLt2/eE+PoEIAABCAAAQhAAAJFJaCYbIWL+Ljsdfv0MtKCpVKknOXHlsB2+tluVEhAW5Ed6GnXY6oq1WBfrkiB12S2A00etJfIe69ePU27dm3N6A8/duAFv1u3LqZTp9XMiiusYNq3b+d+ViiR0+U0IAABCEAAAhCAAAQKICBxqjzZSuGn7CJeYCvaQp7sUhLZupxKq5PdfxLYNj5EetpuBf/JdnpaHu1Aklv1LSUuVW7HqdYsJVgEeuWVV7bfciaZmTNnhYK7BE+VU4IABCAAAQhAAAIQaCABPfiomOxSCReJXobXyU4/V1vdXCmZbWsJb9l2W9q7Sm+uMbO3s9WpwZm2UqsEvN+mGzn4s2Z9Zr7+Zo6ZN+87s3Dhwoy7vtTOmPOBAAQgAAEIQAACEMhHQJ5rrfioxWiUJ1sp/EpRYPvzl05WkW6WaHZ1sBnY6rQliNEOtt17qYrryCmGm7oBCifpFbawAQEIQAACEIAABCAAgcYlkNTLzoMdOaS3XdYRJ73VaeV4oNC9Trd+cAoEIAABCEAAAhCAAAQgEBLwStk1VChiO1JCO1wZ0uf/85mzfW2DTCgQgAAEIAABCEAAAhCAQEjAe7RdXVMdhlvH7Rrl0ZYG955sv+XtmD4PJ2cDAhCAAAQgAAEIQAAC5Uogq5Tz6eig3a0MGYXkFXq0jW0IQAACEIAABCAAAQhAICCQ1Mv57EyMdgabFd/4sPkIQQACEIAABCAAAQhAID+BmF5O6ueIXTF79uyaxYsXG/9atGiR+fnnn41qpcvr379//qPQAwEIQAACEIAABCAAgTIjMHLkSJeOsKqqyiy11FJGdZs2bcJXZWWlca8y48LlQgACEIAABCAAAQhAoEkIkL+vSTBzEAhAAAIQgAAEIACBciOA0C63O871QgACEIAABCAAAQg0CQGEdpNg5iAQgAAEIAABCEAAAuVGAKFdbnec64UABCAAAQhAAAIQaBICCO0mwcxBIAABCEAAAhCAAATKjQBCu9zuONcLAQhAAAIQgAAEINAkBBDaTYKZg0AAAhCAAAQgAAEIlBsBhHa53XGuFwIQgAAEIAABCECgSQggtJsEMweBAAQgAAEIQAACECg3AgjtcrvjXC8EIAABCEAAAhCAQJMQQGg3CWYOAgEIQAACEIAABCBQbgQQ2uV2x7leCEAAAhCAAAQgAIEmIYDQbhLMHAQCEIAABCAAAQhAoNwIILTL7Y5zvRCAAAQgAAEIQAACTUIAod0kmDkIBCAAAQhAAAIQgEC5EUBol9sd53ohAAEIQAACEIAABJqEAEK7STBzEAhAAAIQgAAEIACBciOA0C63O871QgACEIAABCAAAQg0CQGEdpNg5iAQgAAEIAABCEAAAuVGAKFdbnec64UABCAAAQhAAAIQaBICCO0mwcxBIAABCEAAAhCAAATKjQBCu9zuONcLAQhAAAIQgAAEINAkBBDaTYKZg0AAAhCAAAQgAAEIlBsBhHa53XGuFwIQgAAEIAABCECgSQggtJsEMweBAAQgAAEIQAACECg3AgjtcrvjXC8EIAABCEAAAhCAQJMQQGg3CWYOAgEIQAACEIAABCBQbgQQ2uV2x7leCEAAAhCAAAQgAIEmIYDQbhLMHAQCEIAABCAAAQhAoNwIILTL7Y5zvRCAAAQgAAEIQAACTUIAod0kmDkIBCAAAQhAAAIQgEC5EUBol9sdb8HX+8WXXxb97GfP/rzoczIhBCAAAQhAAAIQEAGENp+DFkFg6tRp5k8XXGbmzp1XtPPVXOf86RIzcuQHRZuTiSAAAQhAAAIQgIAngND2JBpQf//DD2bevO8asGfL3mXhwoXm66+/abKLmDFzlrnyqmtMTY0x1dXVRTvuUktVmQ4dljfXXn+z+XT6jKLNy0QQgAAEIAABCEBABKpaCoaLLrnSfPHFV7HTraisMCt17GjWWL2TWX/9vmbgtluZioqK2BhvOO/leRd7s9Z63332NIMH7Zg65qef5psHHhpq/ve/kWbuvMC72rnzGma9dXubHXfczqy1ZrfU/dR48mlnm0U/LzK77TbI7L3nbqnjJk6cbP7+zxtc30kn/MH06dMrZ5xn0b/fJuY3vz4sp983/PvWO80HH3zozYLq44/7vVmvb5+csTVW5T7/wsvmmWdfNF9+9ZUVvTVmxRVXMH3X7WO23GKA0bk0RtFxdB0//PCjOfXk40zHjisWdBiNP//Cy8z8+QvMOuus7fZN7rjMMsuYE+z1XnTJn811N/zbXHrReWappZZKDsOGAAQgAAEIQAACDSLQYoT2d999Hwrb6JV+++1cM2XqJ+aNt942L7/ymjnx+D+YlVbqGB3itqtrqlP3zxloGxYsWJjWbBQjfMmlV5k5334b65816zOj15sj3jHnnH2a6b7WmrF+b0jsL1q0yCyw4i9fWbR4UXieixYvTh3mWfzw44+p/b7xR9vvvwz4trpqnV+yqO2KP19jxk+YGOsS+7dG/M+MePsd8/vfHmG2G7hNrL8YxsuvvG4mT55abzH/+BNPm8+/CGK6v//+h7ynsk7Ptc1mA/qZ/70z0gx/Y4TZcYeBecfSAQEIQAACEIAABOpDoMUIbX9R8qAO2W8vZ1ZX15ivvvravPPue+aDUR+aiZOmmLvuvt+cctKxfnhqvftug02/TTdK7VPjaquumtMnz+pNN9/uRPbSS7c3hx5yoOnXb2PTdqm2Zuonn5i7/nO/mT5jpvnzVX835597plljjdVz5mjqhv33+4XZZfBOscO+Zb8MvPTya67tjD+eZNq2jXtwu3XrGhsv45FhT4Qie889djWDd97BebP1IOHDQx93/P99612mXbv2ZovN++fs39CGn63Af/DhYW733XYdVPA0c+Z8a559/qWCx+sXDAnt5198GaFdMDUGQgACEIAABCBQF4EWJ7QVUyuxHS3bb7eNuePOe8wLL71q3h35vlH4Ra9ePaNDYtudrQhOzhEbkGKMGz/Ris1Jrkcie4fttw1Haa5zzv6j+eMZ5xp5m1957Q1zyEH7h/3NtdG1a5ecQ0+xDxX6sq4NS2nXrp03U+vF1qv+1NPPub5ttt4ydl2a/+QTjzEXX/oXM2HiJPPkU88WVWi/a79AiWfPtXsYeZ4LLQ8/8pj5+eefXRiRviDVVda0Xy5Wt+FHn346w11H717r1LUL/RCAAAQgAAEIQKBOApV1jmghA/bbd+/wTKd+khWTYeMSbkQfllOoQbIsv/xyNrxhM9c8bvyEZHeLtWfakBgfTrLZgE1Tr2PwoB1c+7RPP3Ux0amDGtD40suvu7023yyXd77pZn0227w2/E2zzNJLu7j9fOOS7ZtuvKFrev6FV5Jd2BCAAAQgAAEIQKBBBFqN0F5hhQ5m2WWXcRBmf/5Fg2DUttMPNsOIih62TIZb+P169FjLeUYVg+3Fqe9rqbUeKvQln/e7S5fO7rpXtSE3M22GkGIUZXMZO268m2rdPr0LnvKBB4e6zCR64HS5zOehkJ032SQIJVIYUjFTCBZybMZAAAIQgAAEINA6CbS40JHaboPPOKL0c8UuPnRBoQijRo8xA/rnenf1IF1re5iuR/e1TGVlpROvH3ww2my4wXo5aBV6cfWfL8lpX5KGiZMmu90l7rvbcyikTJo8xYUOLbfssmb3XQebW2+/q5Dd3Jg+vdcx7du3tx75+ebjsePMVltuXvC+DIQABCAAAQhAAAJpBFqNR1sPwPnsEqussnLatS5Rm1LEtW3b1s1x6+13h97WJZq0Bezcvn0707NnD3emz9n0fkrx1xRlkn2wVUXpEtu0Kexjev9/H3b77LHHLkYPrNanVFVVmS42TaPKV02YI7w+58hYCEAAAhCAAARaFoFW49G+/4FHQvID6sjpPHnKVOu9TH8IUKn50jKGKOb3xOOPNtf843r7gN535vIr/+bSwu26y85G3tDWXI475nfmwouucKkC7/zPfS4NnrKAbL5Z/4JFcH35+Dh75eoupCjrjB5YXX755c0ug3YqZJecMXrQVuVrm8mGAgEIQAACEIAABJaUQIsT2sod7UWYwji+sLmSX3v9TTP6w48ci5132t6kZduIgnrl1eFGr7Ry2K8OTBXaGrupjeM9+ndHmtvvvNfm2l7gUsIpLdxaVpzvatPobb3V5kae0dZWVrW/ECgV4N+vvcGlU9QXFS3wcu/9D5pBO+1gdrIL9ehh0GIWv+KmYu/rKvocKDZbRQsB5fsSVdc8Xmjj0a6LFP0QgAAEIAABCBRCoMWpwjFjPjZ6pRXlQ/7lkH3SumJtCi1Zfrl0YViXsNt2m63syonrmidsKrvhw98yP/70k5k27VNz8y13uLCKk2y6OwnT1la6d1/T/OWKi81zNj/1iy+9YleH/NooXEd5rp957kW3wuL6661btMvW8vYqK2S8zLVN/KZdrEhZYeT9HmRzfDe0ILQbSo79IAABCEAAAhBII9DihLbidZeyi8T4Is+yPJqb2PRshYhs7bfP3nss0UOLWnnyiMMONgcdsJ8Lo9DiKFoZUp52LfstQVpsD6+/3uaslW1lrz13NXvaGOj37YOREt1jPhrrQmm0UM9ZZ5xiiiW2fbYTPaBYW1F2l4ceftQN+cVeu+fNCFPbHL5vhQ6B91yLIFEgAAEIQAACEIDAkhIo7CmzJT1KEfcf0L+fueWmf4Yvn+Xjo4/HGR9uUMTD1TqVMmIoVOXKyy4w8qaraIGVhx4JhF+tO7fgTmV36bfpxubsM081p550nHtItLq62vzHrsqpLz3FKPYQrmh1yNrKi3aRInnX9eVnRxvCsiSlTZs2bnddCwUCEIAABCAAAQgsKYEWJ7STF6yH8iT8tBLgcy8Uvux2cp4lsZX+Tt70Ddbv66YZ+d4HSzJdi9q3f/9N3C8EOukZNof250XKYb7MMkFOdJ9JJg3KfJuvfNhjT7ouieR/XXeze1hVD6zq5VfynDlrlrP/+a+b0qYJ2xT/r7LKyiuFbWxAAAIQgAAEIACBhhJocaEjyQvVcurK7ayHIV948RUThA9kQ0uS4xtiy6t6hc0yUmP/23H7gWa7gVunTrNe3z4ulOLbb+ean36an5Nirr31gH9v55pvw13ylQULsjnANb65yy233WW0OuTaNpf14TZcJq3oun3RyoxaznxJi4T2N9/MsSkbv8871ZdffeV+QdCAL7/8yr3SBkus68tPXQ+qelG/MkI7DSNtEIAABCAAAQjUk0CLF9q63t13G+yEtoTSq6+9YQYP2rGeGGofvpTNJKIYbD2g12m11fIK7cWLg5ADebirqoIwhOjMa3Re3UycONll7oi2R7clGH3pnMnr7O3mqLUips5Zojef0F4cCbVou9RSRTnNjvbBxhkzZoa50dMmXaljR5sF5qi0LtemsBJlSJHw1xewyspMPEqePbyob4w87HkOSTMEIAABCEAAAq2YQIsPHdG9kUe7S5dgsZGnn3nBrWJY7HvWr9/Gbkot0Z3vYbnRY4IUg6t3Ws0+sJkrOLvapcpVxnz0sZn33XduO/n25oj/uSZlLqnvoivJuYph99t0EzfN13YRF6UyTCs+taL6utlVIotRlOVEZd68eXmnW9Yusa5fF/K9Vl01yP6ihxw1Rhljaitffz3HdePRro0SfRCAAAQgAAEIFEqgVQhtXexuuwxy1/zFl1+ad959v9brn2vF22wbS5zvlfZQpfIzazEUZTm50mbYULYN78GWp/uOO+9xnl8dePvttkk9vjzvCl9QbPHf/3GDmTnzs3CcHqK87Y67wzmG7PeLsC/fhpYLz3cNaveZO/LtX0j7lltuZtbu0d0NveXWu8xLr7zmGKhBITXyGj/19HOuX5lf6kqP6AYW8Kal31U+mTbdHaeAXZZoiB6AnPrJJ26O1piecYngsDMEIAABCEAAAg0i0CpCR3Tl22y9pXngoaEuZlfCb4vN++cFonRwPiVc2qCddtjO/ObXh8W6tFrk+eee4UT27Nmfmyv/co1dFbGNUSyxVor0RfHKe+y+izdjteLJh+y3t1tcZcLESeascy5wi6vI+y2h7cuA/puagdvW7n3V2FGjx5hRZ57nd8upDzpwiFvAJaejHg0Kmznn7D/ahwmvM8rscptdfv72O+5x6Qt1zj7LiAT27397ZD1mrn1on969wodcJ02abPqum40Dr33PhvVOt2Eq+gKkL0Ibb7RhwyZhLwhAAAIQgAAEIBAh0Go82srxrBUKVRSX6zNORK51iTclti847yznsVZ4yOLFi0ORLW/34YceZHNJn+oEYr6DKVZYwnXNNbu6cRJ3XmQrZOEPv/+1OeWkY/Pt3iztWmnxdLsypM69R4+1XKyzvP4S2fqSoJj4P19xUdG82bpICXefk1sCv7GL4tBVtth8gFluuWUb+3DMDwEIQAACEIBAGRComD17do0Eo39pARClylO9cOFC079/fs9wGfCp9RLnzp1nvrAPL3ZabVXjVxWsdYdE58KFP5vPv/jCcZaIX2bppRMjStPUlwN5gLUSo1LhKb1iY5Thb7xlbrz5dtOzZw9z0fn/1xiHCOe85LK/uC9n5593punda52wnQ0IQAACEIAABCCQJDBy5Ei3joh+CZfTUbUiHfxLiTFccozkjtiFE5DXdUlikuWF79a1S+EHLJGR8nD3WmftRj+bzTcbYMOBhpnJk6eaKVM/CWPFi31gfWnQLyBd7b1AZBebLvNBAAIQgAAEypdAqwkdKd9b2HqvXF9EDth/X3eBTzz5bKNd6PMvvOzmHmRX+aRAAAIQgAAEIACBYhFAaBeLJPM0CoFtt9nSKAOJ0iqOGfNx0Y8xdtwE88qrw90xdtxhYNHnZ0IIQAACEIAABMqXAEK7fO99i7hyxX+fcPzRZun27c0NN91m82pnM7ws6QVogaPrb7jFLS507DG/dXFVSzon+0MAAhCAAAQgAAFPAKHtSVCXLAE9bHrSiceYBfbh3MXVi4t2nsqaMn/BfHPayccbpV6kQAACEIAABCAAgWISIOtIMWkyV6MS0PL0q666SlGP8eVXXxsWqCkqUiaDAAQgAAEItHoChWYdwaPd6j8KrecCiy2yRQaR3Xo+H1wJBCAAAQhAoNQIILRL7Y5wPhCAAAQgAAEIQAACrYIAQrtV3EYuAgIQgAAEIAABCECg1AggtEvtjnA+EIAABCAAAQhAAAKtggBCu1XcRi4CAhCAAAQgAAEIQKDUCCC0S+2OcD4QgAAEIAABCEAAAq2CAEK7VdxGLgICEIAABCAAAQhAoNQIILRL7Y5wPhCAAAQgAAEIQAACrYIAQrtV3EYuAgIQgAAEIAABCECg1AggtEvtjnA+EIAABCAAAQhAAAKtggBCu1XcRi4CAhCAAAQgAAEIQKDUCCC0S+2OcD4QgAAEIAABCEAAAq2CAEK7VdxGLgICEIAABCAAAQhAoNQIILRL7Y5wPhCAAAQgAAEIQAACrYIAQrtV3EYuAgIQgAAEIAABCECg1AggtEvtjnA+EIAABCAAAQhAAAKtggBCu1XcRi4CAhCAAAQgAAEIQKDUCCC0S+2OcD4QgAAEIAABCEAAAq2CAEK7VdxGLgICEIAABCAAAQhAoNQIILRL7Y5wPhCAAAQgAAEIQAACrYIAQrtV3EYuAgIQgAAEIAABCECg1AggtEvtjnA+EIAABCAAAQhAAAKtggBCu1XcRi4CAhCAAAQgAAEIQKDUCCC0S+2OcD4QgAAEIAABCEAAAq2CAEK7VdxGLgICEIAABCAAAQhAoNQIILRL7Y5wPhCAAAQgAAEIQAACrYIAQrtV3EYuAgIQgAAEIAABCECg1AggtEvtjnA+EIAABCAAAQhAAAKtggBCu1XcRi4CAhCAAAQgAAEIQKDUCCC0S+2OcD4QgAAEIAABCEAAAq2CAEK7VdxGLgICEIAABCAAAQhAoNQIILRL7Y5wPhCAAAQgAAEIQAACrYJAVau4ilZyERMnTjKTJk2KXc3mm29mVl555VgbBgQKJVDsz9Q333xj3n77f7HD91ynp+ndq1esDQMCEIAABCAAAWMQ2iX0KXj00UfNX666OnZGDz/0gBk4cGCsDQMChRIo9mdq3Ljx5sijfh07/GmnnmLOPvusWBsGBCAAAQhAAAItXGjPnj3bbLf9Dqa6uiZ2LysqKsxzzz5tevToEWvHgEAagUsvu9w89dRTaV2msrLSrLbaaqZbt26mW9euZpNNNjGDBu2cOrbYjXy+i02U+SAAAQhAAAJNS6BFe7SHPfqY+fbbuanEHn5kqDn9j6el9jVV43fffWemTfvUHW6ZZZYxa6+N8G8q9vU5zhdffGFDdibn3WXChImxvo022tCcccbpZtdddom1F9so9c93sa+X+SAAAQhAAAKtjUCLfhjykUceyXs/hg4dmrevqTquvfY6s9POg9zr+ONPaKrDcpxGJjB69Ifm8MOPNP+5+55GPVKpf74b9eKZHAIQgAAEINAKCLRYoT158hTzwQejwlugcJF27dqFth4CkyBqrlJdXW0efPDB5jo8x20CAued9yczYWLc212sw5b657tY18k8EIAABCAAgdZMoMUK7aTHesMNNzDbbrtN7F7V5hGMDWwEY/jw4WbmrFlLPPNSS7Vd4jmYoP4E7rzjdvPeyHfM2yPeNEOHPmz0wN9yyy0Xm+inn34yVyUeXo0NWAKjUT/f9ktpMYu+5FIgAAEIQAACEMgl0GJjtBWDHS2Ddt7ZrLLKKubFF18Km4cOG2bOP/9P7oG2sDGxoVRlb7/9dth68MEHuYff1PDxxx+bd98d6TznU6ZOMV3tw3DrrLOO2XOPPUyvXuuE+yQ35s6dZ/75z3/FmvVg2z//eW2srZdNibb77rvF2pKGYrtV5KF/a8QI8/7775upU6eaNddc06zTs6fZe++96vXQ54cfjjGjRo8yE8ZPMOMnTDDVi6tN5y6dzXrrrWcO+OX+ZqWVVkqeQswW95kzZri2pdq2Ncce8we3vXjxYjPCchxlf2X4YNQo8/VXX5uePdc269hrPPCAA8yKK64Qm0fGrbfeZn744YdY+y9+sbfp3r17rM0bNTU15oYbbjSLFi3yTa7+zW9+nSOCYwMaYHTqtJq739pVD9Vus/XWZrPNNjOH/OrQ2GwfffRRzC6WUazPd9r5LN2+vWvWZ+rNN980/3vnHfPll1+ZTTfZ2PQf0N/stOOOpqqq8L8a2mfm+/LLL81rrw8379j5Jtq49j7r9jH9+9v5dtrRdFxxxbRTyWn7+uuvzVtvjTBjx441Y8eNM3PtMxg+fWC//v1Mv003zdmHBghAAAIQgECpEij8X9MSuoJRo0abyZPjD68NHjzIdOrUyZxz7nnhmX722Wzz5ltvmW23iXu6wwF24/XXX4+l1JPXUsJNnsqrrv5rdGi4/VfbfvIpJ5tT7atNmzZhuzYeeOBBc+FFF5uvvvoq1i7vtrJbRMtee+1Zp9BefvnlzEMPPWxOOvmUmMB888233FQ6Rz30eeKJJ9T6hUIPjZ573nk2nOWh6CnEti+55FLzq18dYi65+KJYGE500N13323eeOPNsGmnHXdwGTl+f/QfzPPPvxC2a+N169VX0ReMK6+43Oh6o2WMFan33HNvtMl8M2eOufCC82Nt3hg5cqRj623VvXv3MieddGK0qdG2d955J9Olc+fYLxVTp35iFixYkJdXQ06mmJ/vtOMv36GD+xzoM6UvSL688sorbnNHe09vveXfBX956WDnGzPmI3PgQQfHPve6/7fccqv7UnjfvffU+uVUB37UPtx85plnmTnffuvOw7/5z5Hsgw460FxsP5+FCnc/BzUEIAABCECgOQi0yNCRZEiIFnTZ1Hq65HFef/31YxwfeTju+Y51phiPP/GEOfGkk/OKbO2yYOFC85e/XGVuv/2O2AwSBCeceFJMbMQGNMC4777/muNPODEmsqPTSORddvkV5q67/hNtjm2/++67ZuB229cqsrXDQntdd9xxp9lzr72NPIuFlDvuvMv8Yp99c0R2dF9l9fjd7492Yizafvjhh0VNt/3YY4/ntPmGtL6DDzrIdzdJvfoaa8SOI6E6x345KGZpzM+3zvP++//rPqdRkR09/5dffsXstfc+Zt68edHmvNv65We/Ifvn/dx/+umn9jO1V95nJvRLxXHHHW/0ZS0pspMH/e9/HzDbbDPQTJ8+PdmFDQEIQAACECg5Ai1OaOshw6HDHo2BlDdb+Y5Vdt9t11ifhPPCn3+OtdVmyFurf8wLKX+2YjsmsqxgqE8pJLb17//4h5EQqatcccWVqSLlZ3vt8lx+/vnndU0R9ush0lNP/WNo17ah8I9CHjrVfTvn3HNjUykMYIMNNoi1zbBhKe/Z8Ji08sQTT8aa9WvCL224S1OWKYlfUuTNXX311Yt2Co39+daJXnfd9XV+piSe77Rfogopd9oveXPnpqfZ9PvrF5XLr7jCm7Faf94eejieQWjppZc2O+ywgxmy3342BKlnbLx+Lfq/c+KfpdgADAhAAAIQgECJEGhxQluhIIp3jpbdds2K69133z3a5QTAiy+8GGsrxFCs8o03Xu8eiPtw9AfmsssuMUsttVRsV4kLH8Khji222MLGKL/vXsmQEj2s6ft8ffXVV8Xmy2d07NjR3HD9de5cRo9634VWJGNo5Ql8KxNOEp3n5pv/nZMjWiE2N998oxn57v9s6Myr7tra2XjraHnm2WdNmgc5Oia6vfHGG5mHHvyvGTf2IzPirTfNYYceGu122yNGvJ3zZeCINK+2DSFIFonvGTNnxpp32GH7oorc2OQpxo033Zxz/n37rpsysuFNTfX5HjBggHni8cdsrP4486xd3Gm7lNVHb/73LQV/SdVn6vbbbjVjPhxlP4dvmD8cfXQOhJdeetnFXkc7fvzxR/eLTLRNiwO9/NKL5oH/3uf+DL4x/DUXphUd89xzz5tnnnkm2sQ2BCAAAQhAoOQItDihnQwFUUo/CS5fJGi7duniTVc/XEu+7djAjCHv+OOPPeq8aQpHkYj4/e9+Zw47LFc8TpkyJZyirRWra6yxunslvdVt27YL+/yYQuJMdS6PPTrU7L//EBcaI+/pcccdaw45+ODwuH4jei5qkyf/r3+7xne7WgL98ceGmX332cfFVvfp3dtd2w03XB8bJ+O+++/PaUtr0MOCjz06zGy33XbuYUotzPO3v11t1u3TJ2f41Agvdeq6/AOffrAEftKL//jjT/jusG7MsJFvvpljFPIyfvx48/wLL7jQlwsvvCg8tt/Ycsst/WZR6qb4fOuh4aGPPGQ233wz95Dqpna1y3vvvds+6Bv3HOtXkKeferqg67r3nrvNnnvu4R4k1kOwl1xykdGDxclyuw1Nipbbbrs959eWiy68ILa4k/4MnHXWme6B3ei+Tz/zbNRkGwIQgAAEIFByBFqU0JZwfOLJuOAaOHDbHKG2ayJ85NlnnzPf2VUaCy0SjGlZRXbfbbecKaZNm5bTVsyGgdtua/qkCFaJmmRJnssnn3xivv/++9iwwYMHp2b12GOP3d2DftHBr776mv1FoO443V8dcrDRT/3JkrwP6v8kwWv55Zc3++23b2xXea7fe++9WFtSaCuLSV0ZW2IT1NP41aGHmQ023NjGtu9gDj30cOfdV1hHtOgzorR/xSpN9fk+8MADch7e1JfEo446KudSJk6alNOWbNjEZivRF9xk+cPRv0822V9X4vMpC0606JcgPXSaLBLb+rMQLcqaQoEABCAAAQiUMoEWJbRfevHFnCXXd0sRv3skUubpgcGnCvTM6WZtv93A1Hu2+uqdctrrE/+ds3MBDdtvv13qqM6d4w/laZAe0oyWpIdbfZtvNiA6JNyWkBmQ6FMaPYn1usp2ec5xdftLQLL8vPDnZJNdZfGwnDZloPBFWTj0QF207LvvvkbisLmKfkm5+aYbU79gNPScmurznfRc+/PdLHH/1T4zEa7jx0ZrpZlMK3owOfkFbMaMePjP1E+mxnaV0D7q178xBx18SM7rBfvnP1omTZoYNdmGAAQgAAEIlByBFpXeL5lbWDSVxzi5aEgyz7LGaV+lBiuk6Kf1tOLzBaf1NVbbqquumjp1Iecyxa6emSyrrbZasim00/pmfz7bbGw2Csekbayaj9fS7dOG57TpoUiJsmhOanmwL7roQqMQHD3QmixpYQnJMY1h6wuJHsA884zTXdq6Yh6jqT7fq3dKf3iz02q5X4ySwjjtejvV8jCowq6iX9Y+s2kuFRbkQ6uUHjFalPlGWU8KKXrAUuOb8wtXIefJGAhAAAIQKF8CLUZoKwRCISDJkkyxl+z3tvJla0GNfMLVj1OtdIGlUpbkXJSTOlmSHsZof1rfwgVxL3l0vN9eknP0cxx5xOHmzLPO9qbLVa20hFokJhk2otzZjb1wiQSiBFz79u1cLLsWCFrLvgbZDDeKay92acrPd75z17UmS3JBoWR/XXZ76/mPFv3qokw4Yqtfg+rKVhLdN207GcufNoY2CEAAAhCAQHMRaDFC+xn74NP8+fMbzEk5g4c9+qh78K+uSdq1a76QhOS5Lcm5pHmo9WUjX0kusqNxetCxrlIMj6IeitRCP8pC4csz9otVhxVWcCth+jbVjfkQpD/OnXfcZvr16+fNRq+b8vOddp91gXr4M1m62FVD6yr55tN+nyfm1K9F/vPS1mbxUQjUrFmfhYfQFxy/2mjYWMtGMvtOLUPpggAEIAABCDQ5gRYjtOubOSSNpDI6KHtIuZQ1Un7Sn5aIdY6ymP7p9Kjpft5XBpGmKP6hyOhKkaNtbHaPHt1jh2+O3NmxE2gkoyk/37M+ywrb6OUkwzjU1yWRwSc63m9/FhHKvk21Qju+Tazy2LVrPCNQr3V6xYS2Hlo+5pg/hHnxo/OxDQEIQAACEGhpBFqE0NYqhcqAES0KV9h/yJBoU872U089Fcu9PNJmslC8aPfu3XPGFruhjY3lXRSZNOqpjTQ36ubWW29l5PGLxqw/ahf7Of9P5+UIGaVyUw7naNHDn8nUe9H+Ym/rociY0P7wQ9MlIcyaOnd2sa8xbb6m/nwrFCctW8oDDz6Yc3rJVJk5A2zDWyNGuFUhk882PPTQQzlpGpPCfR2bueXV17J/tvXn5PXXh5t8DwGnHZ82CEAAAhCAQKkSaBFCW3mVo2JRMPfeey9z6aUX18p1+eWXy8kj/f/snQeYFMXWhkvFrAjmgIKgoiLmjAoGkqKgYgbFgBEThus15xzBiKKYlSioJAVzRDEHMCdMmDDH/uut35rb09M92zM7M7uz+53nGWe6uqq6++1e+er0qVNMODtu4LF525Vi53LLL+9Eve/rrbfeMu/ZyYlt2rT2RWX/ZjBC+sPw5LLP7GS0c849z4ltPyGNrCwnnniSiS7JveuulV11MTopklU3GSyFrRJhI+HjVeJ3pZ9vJp2yGM3B/f/3dgfxTfhK2Hg+tkzIwBOuR8z1yaecaq4ePCgTFkLqvSuuvCpczf3u1PF/Oe8pIE0lq4uGjVh9cscTRhJn3377rSErzT777J05Xlw9lYmACIiACIhAXROoCqEd91o9vBpkEsSudsXI6IIto+3iNZUQ2kycw3seth136mmXiO9mQzLIlvKm+c0K3EemPhyuUvLfxx830L0NCOeAvsYuwc0qfRttuIE7B1ZsjKbPQ+TEeT1LfoKRDqOTIgk/8Fbu3Nn+OJX+rovn+9RTTzMjrAe7/VrtDfnX8UpHB1qkzkw78fM++6Zk+vSXXPpInmveQEVz1zNnIJotZosOHVw2IJZh9/bBBx+YDltsZQ468AC3SA1hRZ/bcBdCXl5++WU3cETckw/cx3v7tvoWAREQAREQgfpEoN4L7U8++cRMm/ZCFrOFF17YbLFFh6yyuA2WBWclxfCS7XjaWCQjboGNuD6KLWMxlfArcfph0tjtd9yR6bISISxk7TjyyAHmqqsGZY7LDzzsfJLsjNNPM4ssskjS7rKVx02K9Aer69zZ/jxK+V2Xzzf5yfkk2dFHDUjaFVvOYC06YAtXPPSQg3MWymH/2TaN40MPPWzwVHubM2eOufyKK/2mvkVABERABESgKgnMXd/PesyY+3LiPInTTePJ4tV3F5uOLWqjRo2KFpV8m3jjNgkLeZT8YDV0ePJ/TzL/tR9yQNdkxNnePPQmlyu6prrl2I/3slevnrFdR72hsZWqrLDSzzfLrt955+1u6fUkVPPb1HvXXD04VdYVYvgnThxv1lhjjaTuXPlBBx1oDjvs0Ng6zZs3N5NsH9tss3XsfhWKgAiIgAiIQLUSqFl51fGVxS3ikSZsxJ923DLgY+67z4RDKXzdUn7Pa1OXjR//gHtVHidwiZ/uHlkqvpTHD/fFgOPYY4424x+83/S2afRY1TBs7CdP9F52KfUnn3jM9OixQ3h3xX/37bNPzjErkTs756AVKKj0833AAfubztttZyZPmmg6dNg861ngmWU59dGjR5rdduud6up5noitn2CfdRaEIrzHG89V69atzaWXXmLOP+9cQ8aYJGvZsqW55+67zNCbbjQbbLCBadq0aWzVxWy6x7333suMHHFvRSfqxp6MCkVABERABESgBgJz2bCKgNhM/2HSIfGPfLPqGv/oyWpHAI7EnX722SzDBE28xgiLOAFeuyOla00+clb8mzXrMytoFjOI2EpmF6npLJm8yRLcYSNTyoABR4SL9LsEBPhbnzFjps1R/6sNp2qfJbyL7Z65CUy6bbdmuyzhXWh/5PV+9933zN///G1YfZTFpvB+19XfTaHnr/oiIAIiIAINl8CLL77ooivI7oajim8cSv7Dv1V8JLQb7jNQlVfGAK9L1+7m9ddfz5w/D+1L019w8faZQv0QAREQAREQAREQgToikFZo1/vQkTrip8PWEYEbbhiSJbI5je237y6RXUf3Q4cVAREQAREQAREonkC9zzpS/KWpZTUQIEykWfNmLsUcK3dOmTo167R57XLiCcdnlWlDBERABERABERABKqBgIR2NdylBnyORx51tCEWN8mYoNm2bduk3SoXAREQAREQAREQgXpLQKEj9fbW6MS6dOlsLr7oQoEQAREQAREQAREQgaokIKFdlbetYZ80GVBYZId83szklYmACIiACIiACIhANRJQ6Eg13rUGdM7HHH2Uee/9982333xrllt+ObfIzw528uPiiy/egK5SlyICIiACIiACItAYCUhoN8a7Xo+umRUDZSIgAiIgAiIgAiLQEAkodKQh3lVdkwiIgAiIgAiIgAiIQJ0TkNCu81ugExABERABERABERABEWiIBCS0G+Jd1TWJgAiIgAiIgAiIgAjUOQEJ7Tq/BToBERABERABERABERCBhkhAQrsh3lVdkwiIgAiIgAiIgAiIQJ0TkNCu81ugExABERABERABERABEWiIBCS0G+Jd1TWJgAiIgAiIgAiIgAjUOQEJ7Tq/BToBERABERABERABERCBhkhAQrsh3lVdkwiIgAiIgAiIgAiIQJ0TkNCu81ugExABERABERABERABEWiIBCS0G+Jd1TWJgAiIgAiIgAiIgAjUOQEJ7Tq/BToBERABERABERABERCBhkigSbVc1FdffWV++umnrNOdf/75zVJLLWXmm2++rHJt1I7ArFmzzG+//ZbTCawXXXRRV/7nn3+aTz75JKdOs2bNzOKLL55TXomCDz/80Lz++uvu3FdbbTWz+uqrp342uF6ue7HFFjNLLLFEjaf7yy+/mGeffdb8/PPPZosttjDNmzevsc3ff/9tXn75ZfP++++bjTfe2LRs2bLGNlR49913zYsvvmjWWGMN0759ezPXXHPlbffPP/+YmTNnmjfffNO0aNHCrLPOOoa/lTj7/fffzWeffRa3y5XNO++8ZsUVV0zcXwwH39m3337rzhMe/A1vuOGGplWrVn63vkVABERABESg+gl88cUXgf2HNvj444+DDz74IHjnnXcC+w908OqrrwYvvPBCUF9st912Cyzt2I8Vd0HHjh2DYcOGBb/++mt9OeWqPQ8rAmM5DxkyJHNNb7zxRmwd7pEV5IEVn8ERRxwRWDGeaVOuH4888kiw6aab5pyPFYjByJEjazzs22+/Hay55pqu/eGHH563/h9//BHstddeQZMmTTLHm3vuuYPOnTsHc+bMSWx76aWXBnaQkmkDp1VWWSWwA4PENlzXcsstl9XGCvrg7rvvTmwzZcqUgOsO/61YERtcfPHFsW2oH64b/b3SSivFtiuWA509/fTTsfeL50UmAiIgAiIgAtVAAI2MVkYzo53R0GhpNDXa2jqIg9mzZwdV49G2AsAZnspVV13V/carai/Cefwee+wxw2f48OFm3LhxZp555vm3hb4KJXDrrbeaqVOnmnPPPdd8/vnnpkePHmb//fc322yzTWxXO+ywgyu3fxjOK2wfOPPkk0+6D32dddZZ5uijjy7LPRk6dKjp37+/4dhrr7228y4vv/zyxgpIY4WqsQM08/DDDyee++jRo02/fv3Mjz/+GHtt4UI80lZkm1GjRplll13W9OzZ0zRt2tQ9bw899JDp1q2bmTRpkllkkUXCzcyVV15pjj/+eLPgggu687Gi3vF94okn3Hk9+uijzlsdbvTUU0857njM4b7VVluZV155xYwfP9706dPHWHFvdt9993ATM3HiRLP99ts7FtyTzTbbzP1tjB071px44onOe3zjjTdmteHvB8Mjb0V11j42YBm1YjnQDyyOPfZY16UdHBk7QHaefTtANiussEL0UNoWAREQAREQgeomUG0e7XPOOSdnoIMXe/DgwYF9pe68c1Z85dRRQeEENt98c8fz5ptvzmnsPdp2QJOzj4L33nsv2GOPPTLe0oMPPji2Xm0Lv/zyy2CDDTYI7rzzzpyuDjnkEHf89ddfP2ffX3/9FVjx6fZbsRz07dvX/c7n0bYDOFeHNyhcnzcrhgMbnuH24bkO2zfffBPY8Au3zwr08K7goIMOcuV2IJNVzgbnbP/PEhx11FFZ++644w5XbsNzAhv2kdmHh7lt27ZuX/Qc8Nhbwez22RCUTBt+XHPNNa68EG9yMRw41uTJkwOeFzzsad400EYmAiIgAiIgAvWRQFqPdoOYDLnAAguYAQMGmJ122smNep577rkaRz94Cosxe7NTeT/j+i62LedK3G0x9v333zsPZzFta9OmdevW5p577nEf+sGTipc7albwGisEjRWK0V2ptpdeemljH3az995759T3ntPXXnstp//rr7/e2HAK503Fs0x8cE127733uip4h7k+bwsttJAZNGiQ27ztttt8sfvGY86bly5duphddtkla58dHBra4olmDoI33ghMnz7dxcNfcsklvth977PPPmbrrbc2xDc/+OCDmX3EcM+YMcPFOB9zzDGZcn5YAW7OPvtsV+a/fYWvv/7a/cRDn9aK4UDfJ510ksEbfsUVV5hdd9017eFUTwREQAREQASqlkCDENqefps2bdxPxGXU3nrrLff6fK211jILL7ywe73PxL1OnToZXt3HWbt27YwPi0AMde3a1U30I1xgySWXdGEANiYnrqmpTVs6REhZj6chVIYJiHw22WQTM2bMmNjjHXjggU782ThhNxBAZMKDkABEXl2Z9WqbXr16ObFvvdo5op/QDib5bbvttiU/RUQ4htCNhoZYb7cLYZg2bZoLOWFSYD5jIEAIBrbddtvlVCVMg5ARG6/lJmT6CiNGjHA/49owQNxyyy0Ngw1CnrxZb6/7yb64ib7+flovvm/iRDYb6623XmyIDgKdcBNCgsLmQ0fSCu1iOcCZwYONOXfPdfgc9FsEREAEREAEGiqBBiW0X3rpJXefbChBzv0iDhfvIJ5DMj50797dEBdKXDcxsHHeVrJYIEzs63UXL4tnlL5XXnllY0MCDIIITyi/o1abtog1GzpgiD9GhO28887uuFwfXtGBAwdGD2dsCJBB9HNc6hALSzYJPK94NOvSzjvvPHd4Bjt2okDWqTzzzDNumwweePxLaXiGMQZF0UwidjKjufzyy13WGurAOZ/Bl6w3tOPeRI3sHN4rjofemz8HBklxhkDHatuG88PIDBNniHpioBlweHFNPe/RXmaZZeKa5ZQVy8GGjbi+iGOPGzzkHEgFIiACIiACItAACDQIoY3Q/e9//+smv5HKzMbZ5tyaCy+80PCPvY3pdfWYVIboJtwEgXf66afntKGAtG9HHnmkE+kIVybWkY4MgYi3Gc/zRRddVLK2nMsBBxxgPvroI3PccccZhBqT7x5//HFjszW49HO8eo8bGHASTNZDtPJ6Hy42lthcffXVsedXqULS7Pn0cmFByfHxePvvmtLWuYoF/Mdm53C1/VuJfE1rEvlenJL+L2mirRfzPGPefLuklIelauNDWaIDGX8eeKJ9eEr4LYw/PyZaMvCwcyCMjcl3z3ccE1+/UA6kNcQYjHz33Xfu74l7v++++7oQnk8//dSfqr5FQAREQAREoMEQqDqhfdVVV7n8yIg3PLV4K/HiEQ9sJ4q519PRrA/cLeJabQq2rBzEiAU7Cc7dTDu5L/GmItQIxQgLQTImEKuL8Uo8yQpti5eceFtCRcjWERZ1iBQfd+y9xNHjEqeLyCYjBSEy9cEIWfBCMCq0uZ+EbXDvSmkMhm644QYXLkFscFoL3+NwG+/5JWwoyXieMC+0uS4fspLULtqG9jUdy7dhIOU98euuu657PnkDwyAtahdccIHjTDmDQ29eOJ922mluYMeAkzAkOxHWbLTRRm5w5+vyXdO5Ucefn+dAmffsE8ZDeAt/Owwgb7/9dvOf//zHENLlw2yoLxMBERABERCBhkCg6oT2Dz/84BZKYbEUPogNPG+IB2JoSYtWiCHAMbx9XrRE28dNtKMOYh8LewhdQeg/hbb1E9zw9sUJZeJ2saSBAaEIpHirb8aACAuLPH+OpQ4l4C1E7969XWjQqaeemrlP/njFfHvBzOTFJPP7/BwB34b6fl+0rS/3bdjv2/l9SW147onJx0h5SXgUnmtCoZiEydsMQqNIzcjES9ILYuGBKAMcBiIMSoj/Jx3jySef7AavDPgI9WDBHG81nRv1/HnHXdMZZ5zh3gQxgZXQLdJHnnLKKe46eJPDWyOZCIiACIiACDQUAk2q7ULwuCGevCGq8OAxMYwQDrxkZLjgH+2oUY88x3zzih0h4IVDtG54O2llPC8oEDdJVmhbL2oQOTvuuGNOt/58edXOtRN7GzYf8xsuqw+//WDELtJS1tMhOwtvKYhnR3AmhQQVehJ+oBBdnTTcj783fpVIvvHmc060833ka8M+Xy/pWP44eN+995h2l112mXumEczhrB4Ia7zFPisPk4C94UnG2x01xDdebVbatCkGXf5u6tR0btTx5+c5UOaz/LCy5YQJEzJvapiESb52BgW8leINB9lgZCIgAiIgAiLQEAhUndCOQkdo+vRl/KNt8wG7V+CETnjPHV5UvHoPPPCAEz149hDAhJyEvalxMakcL2mCWfRc4rYLbetf+zPxEpETZ0y8w+KEdrmFbNz51FTGMt3eU+nfAtTUptj9xNMTfoOAZNAVDr0ptk/a+cmCvFFJMr/P33OOjTDlbYnfF23ry30b9td0LN+GuO/w9SFs8WSTrpCBGm98WOadtyO8rSFsg8mcaZ4RQpcYuBL65Cespjk36vjzi14ToSSI9vA5Ux8j+wxCO+mZ//9a+q8IiIAIiIAIVBeBqhfaYdx48RDaeKrtkpguuwh5ewmlILc2HjrEg10ePNOMiVl+olpSfC5eyWKt0LaILLzVeOijK/+lOYeka0jTtlx1CF/wg5hyZkA588wzzbXXXuvEJekYw57b2l6bF7+EahB77Sd3hvv1kw2915d9tKPc7wvX57cvj7YJ70vTJlyH8CIfYuTLGWRi4Ympfl/SNyttYvw9cZ6kSyyWA5l6yKYT9nKHj+vTCyZN5gzX1W8REAEREAERqBYCxSvIeniFXsxxanjvMDzDiGw812QaCYts9s+aNYsvZ+H2vqzS32QywUiF1xAMUeoXUMFrmTQpsLbXSgpGJo8iBFkOvdTLeTMYwztMpeYjhgAAQABJREFUGAjZX6KG1564Y4zMN96Y+IclZYkhmwxW2zaukzz/ueWWW9zeuHCkpGbMf8AIkfIDgWI5ILSxpOeaWG0sbhl4t0P/EQEREAEREIEqJNCghDZCGsOr671x/h92FsoIx7P6e+WFjt+u6+8OHTq4Uxg2bJgLDanr86nN8Ykx5g3DzJkznXfZr55Ymz7j2hJyQMgI3lJSODIxsBzWp08f1y0xxlEj7SOx+jx3LMDjzWe1wcMeNYQsg0DCOZi86Y03M4Q3kaaRNy5hYzDon/M999wzvCvxN/Hq999/v4sXZ9GgtDZlyhRXlesJv5kphoOPD7/ppptiD89bD6ycbzxiD6xCERABERABESgjgQYhtBE45P71nlNiUokxxbwnjdhnVqcLG7mDyXhQnwwhxOt9Fp4hzZrPKhE+RyYW4qmvj8a9IMUg9wPRxKI7iDRyNPvwgPB5E8rTokULl/kiXJ72N5NbycWM1xUB6gdYadsXUs8LTBYDQgR7I/bY524nj3nYmJCJd/355593kxX9PjzjrNbImxdWxQzHM+P179mzpxPuZBIJv2k5//zzXTpJBo1pssuw6mmnTp3ccZjg2KpVK38KbgIiK1LGTeYlTSAZQrDjjz8+04YfxXAgu0/Hjh1d+AgLLoWvCW//kCFD3ICjf//+WcfShgiIgAiIgAhUNQG70ltgJ6oFNjYysAIusPluAxvfHNh4ysC+Crf/HtYPs2EHLBsY2DjRwC5vnvlYkRbYyVVuH/vtyo2BFaeZk7ZCxpWxz4rvwMY9B3Zxm8AKGdfOelwDu1S5a28FR6YdP6x4c+XWI5tV7jds/my3n3OIWm3a2hSFgX1V7/q2Aizo0aNHcNhhhwUwsCEGrtxmasg6pBVdrtwKlqzyYjasJzOwuY0Du5iK69PGtgc2o4V7Rnx/Nr2g2wdX60F2HzvBNLCiOlPOPrsKZ2AHOL5ZzrcV366+neAZWPGZs7+mAn/veAa4v0kf+6Ygb1c2L7k7D56HfGa98q6e9UIHVjgGNhQjsJNuXZlNhRfYCao5zW2oSaaOnaQZ2IFg4K/bhqMEdlCV08aK98B6kl2/Vqi7Nn7bxocHdoCR04a/WyveA5ujOrBe8YD7wT3gwzHtfIWsNtab7vZZYR/YAUFgJwwHNh1l5u+FdvQXZ8Vw4O+Fv1/65b7ZQUTQtWvXzN8vz5xMBERABERABKqBABoZrcy/vWhnNDRaGk2NtrZzmwK7VkXA0t1VJbS9cPDfNvbaiTz+wbYrAeaICW4WF48I8m34trG8gU0l5u7lfvvt5/bVF6HNSSG0rHc0sBP6ss4bQcq1WC+gO3f/n1IKbcRxmJX/HRbxYaHt9yN27RsEJ54GDBgQ2AmdNYpn6211x2LwVIxZD23sufpz8t92QZe83acV2nRy3XXXZUQw/duwpMCmkwxsXujEY9hMIIFNvRhw/2jDgIBn1i6sk9jGxi27QRZ1aUNb7o0NXYltw4DGXy/fCHLq29zssfX5H4ANbQmsdzyrHYMIBgQ2a0tsO19YDAc70dddN+fmz5WBql24xnerbxEQAREQARGo9wTSCu25ENpk5vAfnwaMb14pWw+x/fewYRjZE6zodqEK4Vf19f3qmLDJh+W6Cb/wC4/U9/NOc36kgiMdHStt+gl3adrVhzpk4iBntPXOpj4d8kkTFkR4UFyau7iO+NtkRU3CoAiRSTLCUVgRk9UemRTK5M1wbHW+doRWseojISms4mlFfVL1nPJiOBAywzUxd6La7nsOABWIgAiIgAg0OgKk0SXRBvOs+DeTb/5d9x/+/eXTqIR2o3sKdMEiIAIiIAIiIAIiIAIlJ5BWaDeIyZAlp6cORUAEREAEREAEREAERKCWBCS0awlQzUVABERABERABERABEQgjoCEdhwVlYmACIiACIiACIiACIhALQlIaNcSoJqLgAiIgAiIgAiIgAiIQBwBCe04KioTAREQAREQAREQAREQgVoSkNCuJUA1FwEREAEREAEREAEREIE4AhLacVRUJgIiIAIiIAIiIAIiIAK1JCChXUuAai4CIiACIiACIiACIiACcQQktOOoqEwEREAEREAEREAEREAEaklAQruWANVcBERABERABERABERABOIISGjHUVGZCIiACIiACIiACIiACNSSgIR2LQGquQiIgAiIgAiIgAiIgAjEEZDQjqOiMhEQAREQAREQAREQARGoJQEJ7VoCVHMREAEREAEREAEREAERiCMgoR1HRWWNksD3339vFlhgAdOiRYt6c/0PPPCAmXfeec3ee+9db85JJyICIiACIiACIpCOQJN01VSrJgJvvvmm+fbbb82qq65qlllmmZqqa389JPDII4+Y33//3Wy55Zb15uweeugh89dff5mOHTvWm3PSiYiACIiACIiACKQjUDVC+6uvvjI//fRT1lXNP//8ZqmlljLzzTdfVnl04/333zeXXnqp2XPPPc1WW20V3V2S7RNOOMGMHz/eDBkyxPTv378kfUY7mTNnjpk9e3ZW8VxzzeWE/UILLZRV3hg3vv76a/PSSy+Zb775xiy77LJu0FOId3rKlCkO27bbbhuL78MPPzSvv/66+e2338xqq61mVl999RqfPd8RYvmDDz4wM2fONN999507v6233trMM888vkrsd03n5Bt9/vnn5tdffzWtWrUyc8+d/0UV5//GG2+482nXrp1p27ZtbJsvv/zS/Pzzz/4Qeb/hzTP4ww8/OP55K/+7c7HFFjNLLLFEmqqqIwIiIAIiIALVSeCLL74IPvvss+Djjz8OrBAI3nnnncB6Z4NXX301eOGFF4L6YrvttltgCcd+mjVrFliPXzBs2LDAio2cUz7ppJNcu06dOuXsK1XB9ttv745hhXapuszp55prrom9fiu2g5YtWwZdunQJzj777OCXX37JaduQCx5++GF3/+EQfUa4LzNmzEh1+VZwuvb8HYTNerqDTTfdNKfvFVdcMRg5cmS4as5vOzgMzjjjjGDhhRfOaW8HBjn1wwVWPLs23Nsk++eff9w9t+La1bUD0qSqAXUHDRoULLjgglnnsvTSSweTJ0/OabfTTjtl1YuyDW+PHj3atb/88stTtznqqKNyjqkCERABERABEagGAmhktDKaGe2MdkBLo6nR1vx7bJ2jQdV4tO0/6s7wJBKegf3555/Ow/vuu++axx57zH2GDx9uxo0bl+Up3Gabbcytt95qdtxxR9eumP88+uijxgoD88QTTxg8cXVpeAGt8HOngKcUTyte+48++shYwWRuueUWc/XVVxsrMkt6mnvssYdZb731jB24lLTf2nT2zDPPmO222851scYaa5iNN97YeZp5A3LnnXe6twyvvfaaeeWVV0zz5s0TD2X/MIwV5KZ169bOK+wrDh061L2hsH/0Zu211zZbbLGFWX755Q2eZkJN7ADQWKFveMaihmed+8Tzueiii5oDDjjAeY95frhnvJHJZzV5s4kp79u3ryGOO42dfPLJ5sILL3ReeM6Fa502bZpr361bN/fc7LvvvpmuVl55ZbPuuutmtuN+4OHnGfRvVHjDVFMbrp1z923i+lWZCIiACIiACDQIAtXm0T7nnHNyBjp4sQcPHhx4j6YVRzl1altw2GGHOU8do5M4q6RH24Y25JyCHXQETz31VLD++utnPIp33XVXTr1iC3hO4DtgwIBiuyhbu+OOOy645557nMc2fBDuFV5n+4fqvL7hfdHfvA2hng37ydplwyeCDTbYILCiPaucjUMOOcS1gXnU/v7774A3KPTJm4ak5ybaLrzdr18/1z7u2C+//HLQpk0bt3/33XcPrMB1v5M82lbsBzbEKrChKsGzzz4bPkyAN7pJkyaBnVtQ0NsQRvFcnw0bCf7444+sPpM2eE5XWGEF1w5PgEwEREAEREAEqpFAWo92/mBO+69oNRiZIqwANPZVtzvd5557rlanTawrH2/2lbu5//77/WZB3+F+CmpYYGUrlMzmm29unn/+eXPEEUe41sccc4yboFlTVzbUxNiHPG+1sWPH1lgn2oEVX25yYbQ8uk0sMB7lYo34e7ztdiCQ1QWe/3322ceVTZ8+PWtfdCPJe2zDKoz9Y4rN+nHssce6bvCYc61he/DBBw1vQfAKjxo1qqhY5KRzYsLmDjvsYN577z0zcOBAc/fddzuvcvj40d8jRoxw57jXXnuZTTbZJGv3zjvv7OYvcB9uuOGGrH35NmwYitt98MEHu8wo+er6fbDgXjNXon379r5Y3yIgAiIgAiLQIAk0CKHt74z18LmfvJYOGxMUeU3uhZHfZz1qrtx6yV0R4qh79+4uxIDX2tZD7EJOCEn49NNPXR3r3XRt6A+BEjUmZhIqQDo2RBb9LL744oYJdoQ5lNuYXHfRRRcZ6zU0hE+ccsopOYdk0qCNpTWbbbaZE4A2ftidJ8KHUAnrjc20+eSTT8x+++3nBjIU3nbbbZnrhwFiMmy0Pffcc4318ppFFlnEfZhwR1m4X98GEWu9zmallVZyYS++vFTfXnwzGMtniFrqxoWAJLVDhGOEMP34449Z1a6//nq3jRCGQ6HGpEnYr7XWWjlZbAg5ufHGG431wpvLLrvMTWREfOczwmKwjTbaKLYaISiYF/exlUKFTOjkWWCAZz37oT35f1555ZWuAgNjmQiIgAiIgAg0dAINSmiTcQJDDIeNTAg2SN0Jz3A54oRyMjAQ24xwnjhxostksuSSS7pYXcR3OLYXcbXccsu5T1zGBARShw4dDO2oh7BBlEydOtWVE+NdbkM4E4+LcT1RwwNswy1cBo1VVlnFXTcDAuJtDzroIBfH69uQtpCBA7G3GPX89fMdjjNmgNO5c2dz2mmnGTshwP1me9asWa6MtHlRQYjQRqjy1gBvfCmNfn38cr70eG+99ZY7R2Kw/XWmOQ87+cFV41kJPwsMKLjfmH/L4jYK+I8XvEkZUBgQMgDyRpx0PrOhP2530vXxHGD8PaQxhD5vQnbZZRcXs56mDffXhq24QWDcIDVNH6ojAiIgAiIgAtVEoEEIbSad/fe//3WT09ZZZx1z+OGHF3QP8DTvuuuuThQhLPEk4vXFK8zkSi966BThiqebz0033ZRznPPPP995r/GAP/3000488oq/Z8+eLvTi+OOPz2lTjgI/IQ3BGw1fsfHmzhuKx5swGxujaxBieJ0xvr0g7tq1q7tWv2AKk//89fONV9wbbwaYIEjaOkQogw1SHr799tvOww1nRH7YEJIIVSYIIh5LZYQncM6EdTDwYQCRZExmxJJEbVI7QjYwwjjCxvWSQg9Ri6cerz/MEZfc/zFjxoSrx/4u9JxqCv3h7QPG8xBn/o0NExVrMgYSNgOOq1aIZ/qqq65ybfCA4wmXiYAIiIAIiECDJ1BtkyGtKAtIw8bHZiAJrCfRTdJr1apVcMcddwRWBOTE1F988cVu8pUVXln7rIfNldub7CauWXGZtd9vkKKNOnysqPfFWd9+MqQVV4HNPZy1jw1Sv9CeCWlx55jTIKbAp/ezgjBmb3YRk/j8OTNxLo3RhgmPtGOiW9isQHTlRx55ZLg485uUNta77erYDDCZcv/Dik23z4ZRBNb76ovdNzyiZVkVUm5YIevuo/XOusl9NuQnYPJs0n313dpBkDs3OzDwRTV+28GTS5NHWj3rEc+qb4W06896yIOzzjrL/YapT8HHbzuACeyblqx2fgMe9i2Ku4akOr6u/7arR7rjJKUMtB5ot3/NNdfMYc3xbMhM5jztIMF3G/tt471dXa4vrdmBT8A58vzz/xyZCIiACIiACFQzgQY7GZIwEDzO/oM3294oN+mPCXt4WYuxU089NfXiI/n6x2tJeEXUiB8nfptJc3hby22EMvj4ZFasTGOExRBPjRHuUYjh9ccLTghC3KJATNQkfpxFh0hDGDYWWKlp4ZZw/aTfjz/+uPMeE+pCKAXhKFyH99bGtbMi07VhmfO4845rg7e6d+/e7k0Bzw0L14TNx2vjHSYWHu8vEw15s8A5Un/SpEnG5tcON8v8ZuIm4UaEHTVt2jRTXpsfpO1jYRre2PDm4FHrZSclJKE1pCwk5AmDQzgcKO6Y3jNdiDf7uuuucyFCcNPKqXFUVSYCIiACItAQCVTd+9vTTz/dIG68IXoQbuRMZhIgWQ2IHyVPcFpD5JF/uRSWtBIhopcJeQjtaIaKUhw32gcijwEI5uNvw3VYZRKRRVgL/AiVIebWi2DfNtwm32/ELca1JeUrhzPClrASH8qQr89C9zGAQVwz+EJE8kyQRYMc6jwX5IqOGjHiDN4Qm2kmLdI/EweZD8DESZ7HqPnVFGFMqBHhN96IU+dcmHhKrnPr8c4R0z5UqdBQFn+MuG8GeWQeIQsLy7rz8UZeevJr9+nTp8Yc8S+++KJ58sknjV0kKpPRxfeT9M3fqM9m4jPiJNVVuQiIgAiIgAg0JAJVJ7Sj8BGveOrsiohuWWv+IWein80tnEo40R+eXBYUKYX5TBSl6Ks2ffiJekyMDIt/BPSJJ55o8DAiCImVJRadJbTDQrNQoe0FOt5jlgNPMjymCK9ymPfEcr188FCTtYOFhg488EA30Q/BGbZCY6Ft6Iyxq0G6fhHMcZ5477G1YRpZItsfl3LeHBA/Tjx3dJBX6Dn5fmv6RtwzsJgwYYKb+MoAgzK8zMTpY1HvfLRP783ef//9Y9/cROuzbfO5u4Ecix3xZkMmAiIgAiIgAo2FQIOYDOlvFhMaMbJf8Io8rfkQi7T189UjDKI+2CN2UiLGSprh60NkMyGRgQUeTkI58H6TDQKBR0pCLNzGFdTwHy8umejmvfZJ30wMrZTxZoPBBCEkPsVd+NiFeI/PPPNMc+211xq7JLrzVOPVjTPPMJytJlqPgQ0WnZxI+A3hT3aZ9KyJptH2xW4z0IA/aR/t3AXnnedYPmOPn0Qb1z/hL/fee697NgqZcOzFeSGhJnHHV5kIiIAIiIAIVBuBqvdoh4GHvbCkdmushqD0+YrD2Tbg4zOlsEx7XCiFj80Os0zDEUGPkSqvPhkiEqFNzDahMWEjZprMMHj9/ZL24f3h38RZE+bBgIKwC94CJJkX2sQ9E2oSN/jyXn+ykoQNkc152dUka4yVDrerzW/Y2InErouksB928haEwRMx3nHhSHHnQCw4+erJJc9iOTIREAEREAERaEwE6of7tUTESSWH4Y0lJ3KpDC+gF0teiJaq71L3QwgH+ZURRKTeO/TQQzOHIIWfX8wnLkSAtwB2qfBM/fAPBCuWdP0cC+7kCScveX0xcjcTqsL9I4wkbMQa40EmxISQliSzy7sbQkbwUJNvnZjmfEaqQvok7v2+++7LqYrI9qE9foDiKxXiYfdtavvN4jp4q5mwS97zOON58ovwFOKZ9t5sQnf8MxTXv8pEQAREQAREoCESaBBCGxFw8803G5Ycx1iOu1Qx1/SHCGP1QixOOLkddfgfslzYFH4uiwWrWJIbm+tnRUw/QOD08Mb6jCiEjYQNUZhvAqn30pItI5qXm36I9aU9kx2ZLOgnR4aPQSaN6II9TGBkgSHax4V2hNvH/eZ+MMDiuFEj/tlfE9lg8FyHLU0sNNdLxg64cZy0Azi83xgCPRzGhOinDIFPnu9o+EmacwpfQ21+89biiiuucDHsPCdMzkwKGWKw4cV43JuQuPNg8Ztx48a5Z5A84jIREAEREAERaGwEqi50ZPDgwYZ/9L0xoQsPoRdaiDYEZqkNUXTBBRe4LBOIRY5DVgnESaWNcAfvCeX6WXgmbJwrcdis3Bg2xBShJIMGDXIrR5IRA080ccL333+/m6DHSn9+Yly4bY8ePVxGCo6H6N5zzz1dOAYrHxLmgMGHyXbE+yJI6RvvL3HgpGNkwRpWaAxnvCDzCensMCYZxi0Z73Ym/Ic+iTVmcRg81pwbzwJZR+DE71atWmWyXoS7SeM9ZnKtX7nSX2e4D/+b68VD7q1Tp06mf//+LgPOhhtuaMg2Qlw2zw4ClEV6yJITNtiS1YMwCyYOltqIr2bFSgZhTMScNm2aSyPIhE4Edz4B7T3TxGaHB2/5zpG/VUJnCEfxA7V89bVPBERABERABBoagaoT2ojKsLAkrINUcXz69evnso2kFQKF3EwEIIJ+2LBhLnyAEAKyndSF4VH2oQdk2iCDBYIW8Y0gRtQlGWncMCb1Ibq88GLFR8pY7TBOaCNkWSWTEAAyi3jhxaqL3qiDeGNlyaFDh2b69/sZnDAICFuYYfh3uE6+3wwMmMyJYGcCqJ8EimeWOGo8qbzp8J583xe5xRkQIHhZTTTJ/ACOb58fO66uT+kX3seAD8HMaqE8Lxj3q1evXi7e2U+I9G04d47DyprleIYZ7IQHoeToZmIk50cmlCRjcMBgCIZkG0ljDK54y4QVEmqSpm/VEQEREAEREIFqITAXq7Txj7v/MDEKDx7fhGQgjmT/I4DYIvc0aQWJac0X2/u/VvXvFyEMhHeQ0o8sGkkhA9Ezx0OJYCOWm3CafOkMiQeHFR5UwlaIXY4zvOCEUoRFe1y9fGU8s4Q2EAKDmMWDmi8mmNR8pLUjDSSe3nIb8fGIewZDScuPE1LCGxIGPOUItfD3nEEB9zwq9MvNQP2LgAiIgAiIQEMhwBtonL38m44W5Js3xP6Dw4xP1Xm06/oGIRrzpUCr6/NLe3wGCtHJgWna8tAg0vjUZMQfpxmoEVpRW+Mh9/mz0/RVyVhozgdRW5OwLfc5FXvP0/BUHREQAREQAREQgVwCDWIyZO5lqUQE8hNIE5+dv4fS7iWbC5M3eUvg4+9LewT1JgIiIAIiIAIiUGkCEtqVJq7j1TkBYsyZAEpcO+E/9cHIN03IS74Jl/XhPHUOIiACIiACIiAC6QkoRjs9K9UUAREQAREQAREQAREQAZclLE2MtjzaelhEQAREQAREQAREQAREoAwEJLTLAFVdioAIiIAIiIAIiIAIiICEtp4BERABERABERABERABESgDAQntMkBVlyIgAiIgAiIgAiIgAiIgoa1nQAREQAREQAREQAREQATKQEBCuwxQ1aUIiIAIiIAIiIAIiIAISGjrGRABERABERABERABERCBMhCQ0C4DVHUpAiIgAiIgAiIgAiIgAhLaegZEQAREQAREQAREQAREoAwEJLTLAFVdioAIiIAIiIAIiIAIiICEtp4BERABERABERABERABESgDAQntMkBVlyIgAiIgAiIgAiIgAiIgoa1nQAREQAREQAREQAREQATKQEBCuwxQ1aUIiIAIiIAIiIAIiIAISGjrGRABERABERABERABERCBMhCQ0C4DVHUpAiIgAiIgAiIgAiIgAhLaegZEQAREQAREQAREQAREoAwEJLTLAFVdioAIiIAIiIAIiIAIiICEtp4BERABERABERABERABESgDAQntMkBVlyIgAiIgAiIgAiIgAiLQpCYEH330UU1VtF8EREAEREAEREAEREAERCBCQB7tCBBtioAIiIAIiIAIiIAIiEApCNTo0W7ZsmUpjqM+REAEREAEREAEREAERKBBEJg9e3aq65BHOxUmVRIBERABERABERABERCBwghIaBfGS7VFQAREQAREQAREQAREIBUBCe1UmFRJBERABERABERABERABAojIKFdGC/VFgEREAEREAEREAEREIFUBCS0U2FSJREQAREQAREQAREQAREojICEdmG8VFsEREAEREAEREAEREAEUhGQ0E6FSZVEQAREQAREQAREQAREoDACEtqF8VJtERABERABERABERABEUhFQEI7FSZVEgEREAEREAEREAEREIHCCEhoF8ZLtUVABERABERABERABEQgFQEJ7VSYVEkEREAEREAEREAEREAECiMgoV0YL9UWAREQAREQAREQAREQgVQEJLRTYVIlERABERABERABERABESiMgIR2YbxUWwREQAREQAREQAREQARSEZDQToVJlURABERABERABERABESgMAIS2oXxUm0REAEREAEREAEREAERSEVAQjsVJlUSAREQAREQAREQAREQgcIISGgXxku1RUAEREAEREAEREAERCAVAQntVJhUSQREQAREQAREQAREQAQKIyChXRgv1RYBERABERABERABERCBVAQktFNhUiUREAEREAEREAEREAERKIyAhHZhvFRbBERABERABERABERABFIRkNBOhUmVREAEREAEREAEREAERKAwAhLahfFSbREQAREQAREQAREQARFIRUBCOxUmVRIBERABERABERABERCBwghIaBfGS7VFQAREQAREQAREQAREIBWBJqlqqVJZCARBYCZOnJTVd/Pmzc2mm26SVdaYNyZMmJh1+eKThSN245133jXvvvtu1r6NN97ILLHEElllaTe+/fZb89xzz2dVb7NKG7PaqqtmlWlDBERABERABEQgm4CEdjaPim79888/Zr9++2cdc5NNNjb3jxubVdaYN8Sn8Ls/duxYc/Ell2Y1HDVyuNlyyy2zytJuvP32jJzndOCxx5iTTvpP2i5UTwREQAREQAQaJYGqFtpffPGF2apjJ/PPP0HWzZtrrrnM5EkTzMorr5xVro3iCHz++Rdm1969sxpvusmm5vLLs8VcVgVtFEVAz3RR2NRIBERABERABOolgaoW2veNHWe+//6HWLCjRo8xxx83MHafCgsj8Pfff9lQhPeyGq200kpZ29ooDQE908Vz5A3Rm2++lemgXbs1DYNumQiIgAiIgAjUFYGqngw5evToRG5jxoxJ3KcdIlBfCeiZLv7OPPHEk2abbbfLfP7444/iO1NLERABERABESgBgaoV2u+99755+eVXMgjwXM0///yZbSaEvfrqa5lt/RCB+k5Az3Tt7tA999xbuw7UWgREQAREQARKTKBqhXbUY92+/Vpmiy06ZOHJ5x3MqlhHG3PPPbdp0qSqo3cqTm6+eeer+DErdcCyPtMlDqGobyEZP/74o3lw/PhK3SodRwREQAREQARSEahalUcMdti223Zbs+SSS5opU6Zmisfcd585/fTTDII2yUhb9txzz2V277nnHmbppZd222+++aZ54YUXnef8/Q/eNy1atDCrrLKK2WH77c2qq66SaZPvx2uvvW6eevppM336dDNnzhyzwfrrmw033NB0sIOC+ead1x5rKTNr1ueZLkj5523ipElm5oyZftN9r7/B+maLDtkDinAFrvmTjz8JF5muXbuYtm3bZpVVYoPrfdpe+wx7DTNmzjSffPKJu0crWo5d7Dl12HzzgmNoF1poIXfqv/32m3nyyacc1+kvvWTmbTKvIeXc2mu3N7169sx7zwcNGpy5fCbM7rhjD7eNWHv6mWfMK/ZNycuv/P/bklXt/W7fvr3ZeedeZp555sm0K8ePUj3Tcee24AILuGLe9HBPnp82zXz99Wyz3rrrmA023MBss/XWBQ36Fvi3v6+//to8bkM2ptn+3pn5jmm7eluzwQa2v222Ns2bNYs7lZyy2j4nf//9t7niyqsMz0TYrrn2OtMkdM8WXGhB0/+gg8JV9FsEREAEREAEykqgKoX2K6+8at57L3tyXufO25llllnGnHzKqRlgZMtAOOUTpk888URWKrRFFlnEHHDA/uYSmx7tkksvy/QV/nGZLT/6mKPNsfaTT3xdddUgc/4FF5qweJ469RHX1VY21dqwYTebZZdZNktoh4/z048/mXPPOz9cZNa1wmjypOzc0r4CManHHXeC+emnn3yRO7/dd98ts12pH5MmTzbHH3+i+fLLL2MPef0NQ0ybNm3M5ZddajbbbNPYOnGFiy66iJsAu/c+fewg6IXsKpP/f/PGITeZK6+8PHFwEWbK4KxHjx3Mhx9+aPbcax/zwQcfZPX58MNT3PYNQ4aYq668wqy55ppZ+0u1UcpnOu6cFm3a1IwYMdIcdfQxBmHq7dFHH3U/t966kxl6042G5z+NNbX9vf76G2b3PfY0s2fPzjR54sknzU03DTVMlr37rjtrHJDW9jnhGTjhxJPMG2+8kTkH/+PCCy/yP903OdgltLOQaEMEREAERKDMBJJdvWU+cG26j4aEsBDHeuut5zzO7dq1y+p69Khsz3fWzpiN+x94wBx51NGJIpsmv1tBe/HFl5hbbhkW08P/F51wwonmvPMvyBLZ4cqPW4Hfa+dd8np08bRGvYLEpX/88cfhrjK/pz7ySJbIZkenTh3Nsssum6lT7h8MKhBzffvulyiy/TkwWNq1927mtttu90U1fv/008+mZ6+dc0V2qOWL9u3B3vv0zfFwhqpkfiISr7vuetN9+x45IjtTyf5ACO9j+/z111/DxSX7Xc5nmpMkfnnAkUdliezwyT/yyKOmx4493VuXcHnSb9727LzLrlkiO1yXZ3SHHj0S50mU4jlhwLBDj51iRXb4XPRbBERABERABOqKQNUJbVJ4jbkve0EXvNk+PKR7t65ZLBHOf/z5Z1ZZvo2nnnra3Hvv8HxVMvsusmL7u+++y2z7H4SL3JpCPDJZE1GYZEzu3H333XN2jxt3f04ZBfff/0BO+Z577JFTVs4CvKaFTEr766+/zEn/Pdm89PLLqU6LcJq33vpfCrekRoSpDB58ddLurPIzzzrbsPphTfbZrFkmHHZSU/20+8v9THMe11xzbeKgz58n4vnWW2/zm3m/eb5/+CE+taZvSOrN8y+4wG9mfZfqOQm/Lco6QMxGfYsrjzlFFYmACIiACDQwAlUntAkFYVGPsHXr+j9x3b179/AuJwam/Pv6P2tHDRuLL764uf76a830F6eZ11592Zx33jlmXhtTHTaExtNPPxMucr8HX50r8Hhtfe01V5vnn3vGrfzYv3+6WNE+fffJ6X/suHE5ZQwmJk36N3bi373Nmi1munfvllO3XAWErJx9zrk53ffZZx8zYfwDjiMrFHbosHlWHcT20Ucdk1VW08auu+zi+nxn5gy7jP14s846a+c0eXD8hJyyfAW77dbbTJzwoI01nuHCc4g1jtr4yJLw0f3FbFfqmWZuwAP3j7Nx/2/bZ2WCIXwpakNuvCn1wJRQrVtuHmpef+0V88zTT5lDDj442p0hVCo6MCrVc0LY1isvv+Q+rKgaNf7W/H6+H3v0f/M3onW1LQIiIAIiIALlIFB1QjsaCoLXl/AIb2QfabHCCn7TfY/Kk287q+K/G3jHWQZ9l513duEoCApiO/v0yRW977//flYXTA6Lepbpb9TIEaZ3711Nq1atDKLgvHPPMccNPDarbdxG29VWc/XD+whjIKY4bI8/9njOa/9evXqZ+earXJaOoUNvNl999VX4tMxee+3pVpBEtMKRZcDvvfceN2kxXPHtGTMMkxrTWK9ePW24xzVu0t1iizU169uwoVtuuTlnMh/x1mk9ngj3a64ebNa3k1Xpk1j4W26+KWdwBfe0faa5FupU4pkmFn3M6JFm4403MgzA1lt3XXPXXXfYyb1tsk6TmPoJKQcod915h9lhh+3d5OE2bVqbc845yzCZOGq3DLs1q6iUz8lyyy1r+Cww//9P9gwfaPnll3f7fB2eP5kIiIAIiIAIVJJAVQltvLYPPJgdHrHlllsYn4nCg+saCR/B00tGibS21VZbxU7i6t4t1zv80UcfZXX7/vsf5MTBduy4lVlrrezYcRox6TLqJc/q7N+N/fbdN6c4Gj5CiEzU4kRPtE4pt1+PmZB2cIznnmwr/frtl3Po6DXlVPi34KADD8zZxeBqnbWzvdrEUzPwSWMHHrh/TjVi29dZZ52scvqMDiayKhS4Ualnmgmx4TzznCaDsH79+uWc8TvvvptTFi1gIMKgNmqHHNw/WmRXFc3ur1LPSc6JqEAEREAEREAEKkygqoT21ClTcpZc7xYjfrePhEv8/vvvZnxKLx38O26V+0qd8mWXzfWIReO/P/3sM6pmWadOnbK2/cZSSy1lVlxxRb+Z+M2kSLyQYQuHj/xpByATJmSHSay22qrO0xtuU+7fUe/+ggsuaKKTU/05bLxx7qv+qCDzdcPf9IlXNs6WW365nOI0qwPSJ2EVcRZ3z+FdKqvUMx31XPvz32ij3Ov+LOYZ9vX99yo2Y0yccb/hGbZPP83+m6jEcxI+vn6LgAiIgAiIQF0RqKr0ftE8w0AjrRep+MJGzG/UaLvHHrkTC6P12OY1e5z53MFx+3zZZ59+6n9mvpdZZunM7+iPpZZa0kSFR7SOmxS52+5myI03ZnYx4ZLQCPJAk0+aiWdhq/QkSI6NNz9sPh95uMz/XnqpXCbR2HtfN/yddG+ok+b+hPvyv8vRp++7pu9KPdOkkYyzZZbOHTxGhXFsuzyZbAjRCIc2fW4nkRJu4ycjVuI5iTtnlYmACIiACIhApQlUjdBmAlV0sh+w8qXYC8MkXzZhBHiRazLSBRZrc2JCVJou2jSxu+bNmifuC+/ou2+fLKHNvrE2+8gxRx+VExPOJDHiwStpeI5//vnnrENGPZvhnQvZxUOi9sfvf0SLcraXrMW9yens34Jy9Jl0rHB5JZ/p8HHDvxdYYP7wpvsdvY85FWooWGD+7D5Jh8lbAEJVKvWc1HCK2i0CIiACIiACFSFQNaEjEydOSpUXOYkaOXfvGzs2aXdW+fzzFz+BcLkYT194QY+sA9mNb1KklaNN3KTISZYJRsq7sFU6dzbHRkQttlh2eEu++OivQ4uc+HPHO1+TzVeLe5PUdzn6TDpWuLySz3TSMxgXb77CCsuHTzP2d1J/VP4yMiGWNwZ+Um6lnpPYk1ahCIiACIiACFSYQNUI7UIzh8RxjGZ3iKtT27IVWmRnPKE/cjon2aefJu+LtolOimRSGUtqR0VPXYSNcK7RQQY5xvHaxll0mXjqtLaZKxqTVfKZnvX557FoP/jgw5zyFSJZe3Iq2ILPZ8X3RwjT999/n9WkReRvQs9JFh5tiIAIiIAINGACVRE68s0335jHbPq6sBHeQUq2fDZ+/HgTnpzI4jDEjpJir1zWYoUWOV2PHnOfXY78uEyMqq/AAiEsE5/WmBR58imnZOKxmeR59z33ZDWvdO7s8MG3tJNISdPnjYVYeItAHu2ojbnvvmiRXZK98QjtSj/TpJwceGxurvLhI0bk3IdoesycCrbgmWefdQO8aHz7yJEjc9IfRoV7OZ6TuefJ9Rn8/MsvGU963DWoTAREQAREQATKTaAqhDZp36ITHBGd5557dl4+iy66iLns8iuy6jD5LE3+6qxGBWys1nY1t+R5eGIfS41fNWiwi6f2XREHe+ZZ5/jNVN9xkyLvuOOOrLaVzp0dPvguO/cyN9oFT8J22aWXm0023iQrXSLx8tHVNxdddFHTpXPncNMG/bvSzzSThlmMJpxuEfFN+ErYmLCIEK7JiLk++ZRTzdWDB2XELG9XrrjyqpymnTr+L889O8vxnJAzO2pc3759+0SLtS0CIiACIiACFSNQFUI77hV7eDXIJFpd7YqRUaE92i5eU06hTY5oxEx0hcTzz7/APPzwwy6NHCEVTzzxpPk0JkNJ0rX48uikyJxsIzELhvi25f5mUZptttnarQboj8Wy5V27dTebb76ZadmypV2VcKZhJcRoirzjjhvoFj7x7Rr6d10806eeepoZYT3Y7ddqb8j/jleauQthI10m8wHS2H33jTXTp79kNrYpAn+zb1d46xTNV0/mmWg+93I8JyuttFLOKXO9U6dONSu2WNGtTkmo1dQpD5vlY9JA5jRWgQiIgAiIgAiUgEC9F9rEN0+b9kLWpS688MJmiy06ZJXFbbAsN4uOhL3LeN1IjRe32EZcH8WU7bffvubKqwblrNT4/PPTDB9vZOVgchhLuac1Pynyueeez2lSF7mzoydx5RWXm46dtjEMJrwRpz158kN+M+eb8+5/0IE55Q21oC6faVYV5ZNkRx81IGlXbPnHH39s+CTZoYccnLNQDnVL/Zx069rFXHTRxYZwJW+//fZbQfnzfTt9i4AIiIAIiECpCOQGNpaq5xL1M8bGN5ODN2xk1fBZDMLl0d+8Bu/SebtosRk1alROWSkLCIMYfu/difm4OVbTpk3NiOH3Zr3KT3sO+/btG1u1XJMgo15PDk4KwThjYDNh/INm9bZt43bnlPXsuZMZN/a+VCtk5jSu0oJKP9Ms8HPnnbfnLHoUxje/HfD5JejD5XG/WYl14sTxZo011ojbnSk7yA6eDjvs0Mx2+EepnxPOJW2e/PB56LcIiIAIiIAIlJNAvRfacQt6pAkb8dCiy7FTzkS8sOfL1y3l9/rrr28mTnjQbLXlllkLqRBnvckmG5sxo0e5FQ779OmTKFqTzmennXbMSaVXztzZcSkIV4iJifXn27r1yk6InX32WQZvddQWWWQRs4HlM/SmG82NQ24wiy++eLRKg96u9DN9wAH7m87bbWcmT5poOnTYPMvDPK8NdWI59dGjR5rdduudinvvXXdxq45OGP+AE7fhVUsZ3LZu3dpceukl5vzzzs37bJf6ObnMHvP00041DASixmJGXbt0MczbkImACIiACIhApQjMZcMqAjyW/sOkQ+Jn+WZxCeIpZbUjAMs333zL/P3P32Ytu0Q14qY2NmfOHNNurbUNWUe8bbvtNubuu+70myX9HjFipDliwJFZfSJoBgw4IqssaYNczWR/+XHOj6bNKm0MIh1BJqsbAvx9z7Cx8r/99qsNoWqfJbyLPSOy+RCP327Ndnk95/n6L9Vzwv/LWEae1IX8rS2x5BKmpY3hLnbl0HznrH0iIAIiIAKNk8CLL77ooiuaNGni/q3hG6en/8w999yGT72P0W4Itw/4a6/dvmSXcsGFF2WJbDouV9gIomzYrbflnHvc5LOcSv8WMCEu33LsSe1UXh4CiM+11mpX0s5b2ZSZfGpjpXpO+J8cz2chz2htzlttRUAEREAERCCJgIR2Epl6Ws4IKrrs/HLLLWu6d+9WkjNmkuWkyZOdaGISIynSOGbYiEFPMxk13Ea/RUAEREAEREAERKCxEZDQrud3fPpLL5k///jTerB/M2PH3m/G3X9/Tnz5wGOPTTU5NM2lEgJw9dXX5K16+OGHNbq46rxAtFMEREAEREAEREAEYghIaMdAqU9FN1w/xE3eTDonJhvuvfdeSbtLXr6KjbEmZZtMBERABERABERABEQgP4F6n3Uk/+k37r0sADP83ntrPbkyLcV+/fYzUx5+yJDHXCYCIiACIiACIiACIpCfgDza+fnUy73MYiXF35lnnFHyVe423HBDc/LJ/zWf2oWCZn/zjWllxXxbmxObxX/WXHPNeslDJyUCIiACIiACIiAC9ZGAhHZ9vCuhc9q19y6GyY5ffPGlada8mctR3LHjVqmXyQ51lepnmzatzTFHH5WqriqJgAiIgAiIgAiIgAgkE5DQTmZTL/Z06dzZrm7ZuV6ci05CBERABERABERABEQgPQHFaKdnpZoiIAIiIAIiIAIiIAIikJqAhHZqVKooAiIgAiIgAiIgAiIgAukJSGinZ6WaIiACIiACIiACIiACIpCagIR2alSqKAIiIAIiIAIiIAIiIALpCUhop2elmiIgAiIgAiIgAiIgAiKQmoCEdmpUqigCIiACIiACIiACIiAC6QlIaKdnpZoiIAIiIAIiIAIiIAIikJqAhHZqVKooAiIgAiIgAiIgAiIgAukJSGinZ6WaIiACIiACIiACIiACIpCagIR2alSqKAIiIAIiIAIiIAIiIALpCUhop2elmiIgAiIgAiIgAiIgAiKQmoCEdmpUqigCIiACIiACIiACIiAC6Qk0SV+1bmt+9dVX5qeffso6ifnnn98stdRSZr755ssq10btCMyaNcv89ttvOZ3AetFFF3Xlf/75p/nkk09y6jRr1swsvvjiOeWVLPj222/N+++/b5o3b27atGmT+tC//PKLefbZZ83PP/9stthiC9e+psbFtPn777/Nyy+/7M5x4403Ni1btqzpMFn7//nnH/Pcc8+ZIAjMWmutZZo2bZq1P7rBveSeLrbYYmaJJZaI7k7c/uCDD8y8885rWrRokVgnbsf3339v3nzzTTPXXHOZzTbbLK5KVhkM3333XTNz5kzDc9W2bVuz/vrrZ9XRhgiIgAiIgAhUJYEvvvgi+Oyzz4KPP/44sP+wBu+8805g/5EMXn311eCFF16w/5bXD9ttt90CCzj2Y8Vd0LFjx2DYsGHBr7/+Wj9OuIrPwoq/WM5DhgzJXNUbb7wRW4d7ZAV5YIVqcMQRRwRWjGfaVOrH4Ycf7s5t+eWXD/76668aD/vHH38Ee+21V9CkSZPMNc0999xB586dgzlz5sS2L6YNHV166aWBHaxkjgOvVVZZJXj99ddjjxNXSB/+b+Gxxx6Lq5Ipe/vtt4M111zT1YdLGvvhhx+CnXfe2bWhbaHWo0cP19YK7bxNP/roo2CfffYJqOevh+927drlbaedIiACIiACIlDXBNDIaGU0M9oZDY2WRlOjra2DOJg9e3ZQNR5t+w+ws9VWW82suuqq7jfeL3sRzhtmBYfhM3z4cDNu3Dgzzzzz/NtCX4USuPXWW83UqVPNueeeaz7//HNjhZPZf//9zTbbbBPb1Q477ODK7UPvPKf2gTNPPvmk+9DXWWedZY4++uiK3BM70DJ33XWXOx+8uBMmTHDnH3vithDvshXZZtSoUWbZZZc1PXv2dB5inqGHHnrIdOvWzUyaNMksssgimS6KaUPjK6+80hx//PFmwQUXNHbgaKyIdZyfeOIJx/bRRx81a6yxRuY4cT+scDannnpq3K6cstGjR5t+/fqZH3/8MWdfUoEdQJlddtnFeZeT6uQrt4Nd88ADD+Sr4vY988wzZttttzXcLzz6cOftgx3guDcKNXagCiIgAiIgAiJQDQSqzaN9zjnn5Axi8GIPHjw44xkbOnRoTh0VFE5g8803d57Gm2++Oaex92jbAU3OPgree++9YI899sh4Kg8++ODYeqUuvP32290xt99+e/fdq1evvIewgtrV460I5+zNho8E66yzjtuHBzlsxbT55ptvAhuG4fqzoj7cXXDQQQe5cjzB+QzvPG8brOgPOnXq5NrEebSpd+KJJ7r9Nqwk6Nu3r/tdk0f77rvvDhZeeGH3d+TfChTi0ebthQ1PCbbcckv3neTRZrRvBzXunE466aTg999/z3fZ2icCIiACIiAC9Y5AWo92g5gMucACC5gBAwaYnXbayY1tiF+tyYjDLcbsnS7IQxg+RrFtOVficosx4mU5bqWtdevW5p577nEfjn3jjTc6D3f0PKwoNHhpbShGdFdR23aQ5dqdeeaZZoUVVnDe1S+//DKxr3vvvdfts8LUcM7eFlpoITNo0CC3edttt/li911MG7zLvIHp0qWL8xiHO7SDRMPxJk6caJiLkGQXX3yxef75593bARvmklTNXH/99Ya6eIrxlm+44YaJdf2O1157zey9997uOeONwCGHHOJ3pf62AwZjw07M6aefntcrfdlllxk7wHde/QsuuEBzLFITVkUREAEREIFqI9AghLaH7ie+IS6j9tZbbxnEFJPHrNfOhQIwcc96Bg2v7OPMxooaHxaBCOrataub6MfksyWXXNIJBRuTE9fU1KYtHTKhD+FCqAwTEPlssskmZsyYMbHHO/DAA51QtDHFbiBw7LHHulfxTAhE3NWVWa+2sV5lJ/atVztH9BNCQbgEYQS1NSbUcS8JAUFc2jhjg5AnfCXOEPdjx451u7bbbrucKkzkI2TExmAZG0Pt9hfThoYjRoxw7eOOw0DReoHduRL6FGcIYQYPhE2dcsopLuQirh5liGTu/7Rp08zaa69trMc4qWqmvH379uaiiy4yjz/+uNlzzz1Ttck0tj9s/L4LsbEx1+5vCu5xxsRMwkswBLlMBERABERABBoygQYltF966SV3rzbYYIOce0as6iWXXOI8hmR66N69uxMrxHUTe0xMcdQ+/PBDF0N7zTXXuDhfxA59r7zyysaGApiRI0c6QcfvqNWmLcKOrAt4ZxEsCEaOy/URPztw4MDo4ZyHENHPcalDPLB9Re/EN1kc6tLOO+88d3gGO3aiQNapEKuLke2jtp53G+Li+kLskfHChky4be/ldhuh/+BVJZMN3uG4LBdk3PDeYLzuWDFtaEfcOsZgKc58dg5/nHAdngGeX74RqcR4x2WF8W24nssvv9xl5KEsSfT6+v77hBNOyFxv2ja05Zkj9txOPjV45/Od24svvugGkfwNMeiViYAIiIAIiEBDJtAghDZC97///a955JFHjI2rNTa+NOeeXXjhhWby5MmGMALqjR8/3oluwk0QeEneNUTDkUce6UQ6wvXhhx92adkQiHib8TzjCYyzYtpyLgcccICxGRnMcccd5wQaE/XwND799NMuRdsVV1wROzDgHJjYh2glvAEuNu7YXH311XGnV7Gy1Vdf3ZCKEYsKSTzeGN+I42LNi1DaI0oxBlQcm7RxhFBEjYm0GGnvkibP+nR4PvykmDYcw7dLSn0YPQ5tvDFQmT59unsebNy8Ky5ECBczgEnbxj+vTLgkPIg3KPnOjbSGGAMY6tmYerPffvu5t0NnnHGG88K7CvqPCIiACIiACDQAAlUntK+66ionnhBQeGoJ4SC/M/HAd9xxhxMk4QwR/h5tvfXWxqZryxJzCCzv9STbQpIRPsKr+LAQ3HTTTV0oCm0QQUlWaFu85Hj9CBUhW0dYACJOOA/Me4mjx50xY4YT2bvvvrsLkYnur4ttMkn4+Oeo0OZ+EtrAvauNMXAiQwqe/7CndN9993Xdxnm1v/76a7cvXx5qnhHMC+1i2nB9PvNH0rGix3EHtf/hLQb3mgwldiKwLy7K+x9+fjMd1fCjpja87WHgyuDQTkB1veUT6d6zz98tfxvcH8Q2g8mzzz7b8Hf1n//8p4az0m4REAEREAERqA4CVSe0mWzFQin+g9eWf9jxLBNv+9RTTxVEHgGOMQktyRPHJLE4Q+xjSXHa7Cu07YMPPkgz5+ElljxqxPJiSQMDQhC84Im2rctthBXGfYpaKRYc8kLae7P9MRhIIfSJkSZ+PWxe/DIRMcn8Ph/3X5s2HMP3Fz2eL/fHYT/x4Hh7eb6JM/dvBcJtaxLC4bql/s3bEkTxSiutZHjLErW4c/P8mHDJokKkAuS+cN0IbgbJTOT0sfPRPrUtAiIgAiIgAtVEoEk1nSznSohHOI8w4RmEWdx5550uhAPPGK+w8bBFjXrkROabWGH+cff/8EfrhrdXXHHF8GbmtxdH+TJmFNqWCX0YXu0dd9wxcyz/w5/vp59+6mJhmUgXNh/rGy6rD7/9YMQuzlLy08GTjUcbYUfsL6EzYWNiKvH1Nn1dVjYNL/6jK46G23rehERgxbShLWKfzDEcy/eR7zjs440G583z7mPFw23q8jfXwqCGPNgMcpI89dFz9Nl+iCMnHGq55ZbLVOnTp4/LVnLooYc6Lz65tWUiIAIiIAIiUM0Eqk5oR2EjNAkh4bUz2SbsaoQulpXQCR9CgheVBVfwniEQmEyGAI4u3570ypt6xVqhbRkEYAgsn+kiemwm6WEMMqJCuxxCNnr8QrdZYpv4dsy/BSi0j3z18fb6txEsrpNkCMJw2rplllnGVeUtSZL5ff4+FtOG8B/ENW9NfH/R4/lyfxwyhhD7z5yDpPkD0T4quU3IDxOIDzvsMBOXSSXpXDw/YvLDItvXJwsNQps3Nvw9xnnFfV19i4AIiIAIiEB9J1D1QjsMeNddd3VCG0+1XRLTTYZjFT9CKcitzUQyxItdHjzT7LvvvnMp+yhI+kcdb2SxVmhbhAjeajz0DBYKtaRrKLSfUtYns4sfxJQ6Awr9+rARssf4wVX0/FkhEvFKRhdS3mFe9BG6QBx1XDRx9Y8AAEAASURBVGiGz2vtvdDFtPHHoi/fnzuB0H98uT8OA0eeXZ7PDh06hGr+/08f60zKROL5N9poI0O8dKXMi38mmTLpNGycN8ag1u9DPPOWiTcOmH9D4DZC/2GyKANJBmeEhXkeoSr6KQIiIAIiIAJVQ6BBCW0v5qDP4iAYnmFENnHAhBf4SWdup/0Py3R7C7f3ZZX+JpMJYSOkwmsIhoA95phj3KXgrUwbYpD22gk/INyG1HJklQlPHg33wbGZaIooxxuLIepY1IW3CGR08fH6vh1iz6785DbxLGPFtKHdeuut555FvMBMyo0a14H548ANI8QpmhLR7fj3P35yaam5ho8R99ufX9JbF9+GwQ3mF5PyQjvp+UZc87dLWJbPxOL70rcIiIAIiIAIVBuB4l219fBKEdIYXl3vtfT/oPOaOiqyqesFDr/rg3nvJfmSCQ2pZiMemVAe0uuxOJBfabGU13TTTTe57pg0mCSyqcCCPhjZTbxIZJu4YAyPd9RI5Uj8Pc8Si+p4K6aNz27DwkdRQ1wyGCRuuXfv3m43AwJEdNKHARnGBELq3HLLLW67Uv9hAJt0bj5Gnr9DX4cQE6xjx47u75AwLmLro8bbD4zrq49vZ6Lnq20REAEREAERyEegQQhtxBCLlXjPKfGfvE7HvAcNr6X3rnkgr7zyiltlz2/Xh29CAYhjZhEQxGE0UwbnyMRChE59NO4FKQa5H4SJIBgJn2EBFWLoo0YoT4sWLcxJJ50U3VXjNiFCTH7F4ia/hjtgdUzi8onXD6+u6UUzC/x4gUg70vn5fOzkJg9bMW0Ia2FJeJZQZwlyb4RXsMAOXlxWx/Qx2pwr/JI+PjYfjzx1kibd+uOU+jvpvCj3gwCEsq/nvdMMuPg75TlhBUo/2ZTzI47/5JNPdqfq2Zf6vNWfCIiACIiACFSSQNUJbVaeI0+y/yAweM2MKOUfbfIosxy0N7I1UIYhZBDh/GPOsuCUk37PL93u29TlN/GpiFNiU0mBxuRGso8gPIjZXnfddV1O6nHjxpXtNKdOneqEL4IZw2uMUCalYtSIx0VY8SHNGxNNGShwPwjLIUYXby2TUePMr2BJ/4WG7sCHrBdbbbWV4xTXvy9D7PtzgK83zhVPO0KX1ImdOnVyYQ5wR/h169Ytk7u8Nm04PikGiSFnFUWWPEdoIr7JhINgvuGGG/whGvQ3ueCJKedtEvnV+ZvEk8/fNM8ccyn8G4gGDUIXJwIiIAIi0OAJVF2MdnRCGbHX/GPNh3RjiNHwBERexxOby6trXtsPHz7c3VQmtSHujjrqKNeOnMD1xRAaZF3A80dIA6/ZvSHEEX8IwnIZq2ziefVG/DIf3hL079/fF2e+/cQ8QjcQjIjuVVdd1ZBqEG9wvhAAhC7LmtMmX73MwUI/fNhITd5s34R6LPoyZcoU98agVatWbhcrf8IVwe1DFwg14lligmHcJMli2sCD+3niiSe62G/im2HatWtXc9111zl2/lwb8jchXEyiHDhwoBtM+r9JymHDPQr/DTdkFro2ERABERCBhk1gLityAryS/kOaNLx7fPN613uDGwIGQg0IuyBUwb+ir4brwjPMh9fvhF/gNW4oRlo7RBcrAtaHDBMM5HgzUshbjmLakE+a8CAGGvliyxvKfU66Dt5iMJmVgY4f+CTVVbkIiIAIiIAI1BcCJK7A2YtDl3/D+Obfc//BYcSnUQnt+nJzdB4iIAIiIAIiIAIiIALVSyCt0K66GO3qvSU6cxEQAREQAREQAREQgcZEQEK7Md1tXasIiIAIiIAIiIAIiEDFCEhoVwy1DiQCIiACIiACIiACItCYCEhoN6a7rWsVAREQAREQAREQARGoGAEJ7Yqh1oFEQAREQAREQAREQAQaEwEJ7cZ0t3WtIiACIiACIiACIiACFSMgoV0x1DqQCIiACIiACIiACIhAYyIgod2Y7rauVQREQAREQAREQAREoGIEJLQrhloHEgEREAEREAEREAERaEwEJLQb093WtYqACIiACIiACIiACFSMgIR2xVDrQCIgAiIgAiIgAiIgAo2JgIR2Y7rbulYREAEREAEREAEREIGKEZDQrhhqHUgEREAEREAEREAERKAxEZDQbkx3W9cqAiIgAiIgAiIgAiJQMQIS2hVDrQOJgAiIgAiIgAiIgAg0JgJNGtPFlvNa33zzTfPtt9+aVVdd1SyzzDLlPJT6ricE/D1fbbXVzNJLL11PzkqnIQIiIAIiIAIiUF8IVI1H+6uvvjLvv/9+1uezzz4zf/zxR40saXf44Yebxx9/vMa6xVY44YQTzJZbbmnGjRtXbBc1tpszZ07W9XNdH3zwgfnll19qbKsKpSfg7/mECRNK37l6FAEREAEREAERqHoCVePRHjBggBkxYkQs8GbNmpl11lnH7L///maPPfYwCyywQFa9G2+80Vx33XXmrbfeMo888kjWvmrauOOOO8wRRxyRc8pzzTWXWWmllUzbtm3NFltsYY4//niz4IIL5tRTgQiIgAiIgAiIgAiIQOUIVI1H2yPhNf0OO+zgPl26dDHrr7+++eeff8xjjz1m+vXrZ3bddVfz999/++rue5tttjHLLbec2XHHHbPKC9l49NFHzdprr21++OGHQpqVpe4SSyyRYdC1a1cDk1mzZpnJkyeb008/3bRr186MHz++5MdmEHPhhReWvF91KAIiIAIiIAIiIAINkUDVeLQ9/L59+5pTTz3Vb7rv3377zdx0003mqKOOcgLz1ltvNQcccECmTufOnZ0QzRQU8WP48OHmtddeM3/99VcRrUvbZN111zUPPPBAVqec1/PPP2+OPPJIM336dCfE77rrLrPXXntl1St248svv3RvFBSLXCxBtRMBERABERABEWhsBKrOox13gwgVIbRkp512crufe+65uGqpy3799VfDxxse8/vvv99vFvQd7qeghgVWbtKkidl8882d2PbhJcccc4yboFlTV8R4B0GQt9rYsWNrrBPtgPj533//PVqcs42IJ96+PtnPP/+c82akHOcHIwaKdW3c/x9//LGuT0PHFwEREAEREIEGRaBBCG1/R9q0aeN+fv/9977IfQ8ZMsS0bt3aHHvssVnlr776qis/55xzXPmDDz5ounfvbpo3b24WWmgh89RTTxm842ussYb59NNPXZ0NNtjAtaG/nXfeOas/Nuabbz7z7rvvmr333tusvPLKrp/FF1/cbLvttuaZZ57JqV/qgnnmmcdcdNFFZoUVVjBMID3llFNyDvH111+byy+/3Gy22WaGMJSFF17YnWf79u3N0KFDswTmJ598Yvbbbz83kKGj2267LXP9MCCkJmyE7Zx77rkupGeRRRYxfAhloSwa0kO7F154way44oouxpzQl2KMa+RcLrnkksTm22+/vasTjdH3zwbHRlzzVoTzbdq0qYtzX3311d3bEgZbhRjzCXgeCW366KOPspoSfsRgaK211nLsYbTmmmu6smhoEgMcrq1Hjx5ZffiNM8880+3nnOMmBt9+++1uP/fQG3UJv8ImTpxoCD/iGeWal1xySbPbbru5Sba+vr5FQAREQAREQASKI9CghPZLL73kKCCGw4Z4ITsHwjNseFspf+ONN1x8M8IZ4bHUUks5wdGqVSuD+EZ4eyN0gnhvPojUqM2cOdN06NDBtaPORhttZL777jszdepUV/7EE09Em5R8G+F88sknu365nqhdeuml5rjjjjOvv/66WWWVVdyAgYEF2wcddFBWHDYp7Bg4wASjnr9+vueff/5M9wxwCNM57bTTzMcff+x++7AdysjKEvVwI7T//PNPF2dP6EsxNnv2bHcfSa+YZAyU4jK0+GeDbDGdOnUyN9xwg5l33nndbyaZzpgxw/Tv39+cddZZSV3nlBMfv88++5gvvvjCDB482LRs2TJT58UXXzQMaK699lrDIIbBDh/OjzLCgvxzTKMNN9zQnTf3MTqAZD8DQa6L+8Q8hahxXexHyHv78MMP3fN4zTXXOAFPSBR/MwwMv/nmGzNy5Eh3XH7LREAEREAEREAEakHAioHAvrYPrDAK7D/IwTvvvBPYf7QD6+0NrAiyb5Trh1kvG7ENgfU+55yQFVrBSSed5Pbb7COBfQWeVefiiy92+6yXOavcCjtXbjN2BNarGNiJlO7asyrZjZ9++snV4/hWfER3u23rMc3UsXHRgU3Fl6n33nvvBT179nT7N95440x5oT+sMHJ9WO94jU2tN97VnXvuuQMbGpJVn/s8bNiwrHLrDQ2s19m1saE4gQ1nyGpjM5m4fTYGPKs8vDFw4EBXZ+uttw6s6M3s4hmznl23j2OEzQ5MAutFDRZbbLGin7eDDz7Y9c0zkGRW3Lo6NrY9q4p/Nri36623XmAHFZn9XIOdXOrawYTnLGz+nsPSm/WYB9S1A5DAesl9sfu2Hv3AnwfPovWgZ/bzjFHGeVDHxtxn9lkPtCu33u1MGT9efvllV27fuLhv6yXP2m+98IEdDLp9Vrxn9tnBkiuzA4nAvtkIqOfNvnUJ7ORat9+mL/TF+hYBERABERABEQgRQCOjldHMaGe0FVoaTY3usc5dpxuqzqN91VVXGV7n8yGdHa+68bbec889hvR3TATkVXwhhvcVzyGTBwkTqY1xLkzMXHTRRTPd8OofLzJmxZHz3mZ2lukHnmqMkAe87GHDU08oQTgFIF5cPLd4cYkZJkd3IYZ3Fg8pRjhD+C0AC/gQqoKRtSQcQsICP8Ro4z2NvolwDSr4H9JA+vAjDss1cC2EtsCE9JD5DI888wSYmMrziDc/bHif8R7TnxXn7u2A389bCPZzb6hzyy23+F2G7DoYb0XCNmbMGLdJOkdClqLzCHjW4Lrsssu69JfhtvwmfIRwKu65t0033dSceOKJbpO/JZkIiIAIiIAIiEDxBKpOaPOqH1HnPwgJO8Bwk/6IZyWuuhgjkwlipbZG+AnhFVFDwNE/cbSVmPhHWIsXUPlCKsLnSVgM8bsY6QILsSlTpriwEAT+VlttldOUiZrEj1vPbU7MsvW6u305jSpYQIrEOKEPQwZ0mB2txp4R548I79atm4vzRkT36tUrp64XyuR7Z2ATNSa0Wu+8K540aVJmd01CmxjrTTbZxIXrIK69cU8wBL9/Fvw+vplHEGcMYrGk641rozIREAEREAEREIFcAk1yi+p3CXmiw+n98DQy2ezOO+90kwBHjRpl8EyG0/vVdEUIQBvSUVO1VPtbtGgRWw+hQ3YUhHbcpLXYRrUoJA6XAQjmvdvh7lhlkhSBNqzF8WOCJNlH/MQ93zbcJt9v4rgxri0pXzmc8WbbVyxugl6+/iq9Dy9zkvmBU9J989dMLD6x8cRnx5lnFPaaR+vh4cfCbyEYuBALTww994m3JrxxYDIvEyqZ+MokXuL/ickmzht7+OGH3TdCPM6Srrmm643rS2UiIAIiIAIiIAK5BKrOox29BMQrHsezzz7bXHHFFS5Ugol+eE7TGp7ccKhH2nZx9epLnmnELEZIQlj8I6BZOnz55Zd3ghBuCDLCN8LiOvw77jqjZV6gM6kPb2zchz7x5DI4qrTVdD1+smcx54W4ZsCCEX4UN2mRff5NRr5nhDAbjDc23hC+rPjJNfisKffdd5/b7T3nPisJQhtD/CO8GeB5j7jbEfpPba451I1+ioAIiIAIiIAIJBCoeqEdvi5WhcQQOmRhSGtxr9XTto3WI4ygPpgXZIREhK+P+FvixRlYkIKOAQne72effdYJbjJPYOE2aa7HC8RDDjkk47VH7MV97MTQNF2WtI4Pn0kS3LW5bzAkUwfhMbDs169f7Ln7kAyypCSZ30dGl7B5sezvqxfUPsUkmUxa2fhu4qoJ+yFenDcUdoJnJmNMuD9+1+aao31pWwREQAREQAREIJdA/VCFuedVVElYRJEyrrEaKemuvPJKd/mk6/MGHyZqYky26927d1Z6Psp9bHaYJeU1GYIeq2nCYE39FLOfkBQMUR9nhKvgsS+X2cwlhkEeEyDJR81cAT/5M3xMJtxi+WKf/SRUH0Li2/vwj8cff9wJaHKyI6zJ0+2NiZjctwkTJhjqYb6dr6NvERABERABERCByhFoUEKb/MUY3ti11167ZBSZxOi9f16IlqzzEndECAcZRRCd5Gc+9NBDM0cgr7MPa/De1cxO+4O3AN6jGi7nt89QknT9HAvuhCuQl7ySZtMzusMlCVhi0cOZTkp9bj7Ljc8mQv821WDOAkXkVMfILhJ3Pohkn22EXOxh43nmrQEDGbKLcH+9N9vX8yujMgnyySefdMUS2p6OvkVABERABESg8gQahNBGdNx8882GJcexPfbYo2Qx1/RHXLGfOOZjYymvL8bS2WSbOOOMM1x6QpagJzSEVQ/9AIFzRaj5iW6EjYSNSXb5JpD6kBJir+OWlSd0gfYIyL59+7pFbsL985vJgtEFe4hbJtsH7fHEF2N+MRYWF4ouekMoh1+8p5i+C23DRFBS5vFGheeQrDjeEL1MuiWemzj5sNhGZLPCJYMUnrUBAwb4Zu6bQQzZQ6hHiktsl112cd/+P0yatPnIzdNPP21YGIdngHAWmQiIgAiIgAiIQN0QqLqsI6y0xyt6b6T7+/zzzzOiBdGGwCy1kQrtggsuMGQ9QSxyHDJ3XH311aU+VI39IaR8qAbXH13xknMlDjsa54voJpRk0KBBTnyy2iCeaPKI4yUltR/ibfTo0TnnwGQ7RBzHQ3TvueeeLl80XlQfPwwfVnpkZUM8sPRNCAQxzEzuI9yhY8eO5qGHHsr0j7fZ52smzjluyfhM5YQfnBthGRybNHeIdrtojsugQkxzKxtigcCNivCE7mpdfNFFFzmP8rRp08y+++7rsrsglBnkcL2IXybuev6EvnBPEdl+gOTfIIRPBs7kiocjg6aoiGZASPYR//dBLHxcGsFwn/otAiIgAiIgAiJQPgJVJ7QRlWFhSVgHC8LwYRLa7rvvnuXFLRU6BCCCfpjNkWxX/HMfn1+5VMdI2w8eZZ9VhLRvCGQELeIb0clS50nGgjEYy32T15kP4s6uvOnK7r777lihTYaK4cOHmwMPPNAtF+69quEQB+ogLu3qj2bo0KGZ/v25MDiJ5m4OMwz/9m3SfDOA4E0DEz0RmSz4wqdZs2ZOeDLw4rorJbQRt/fee6+biEg4E8KbUBIMRrwVIDMOgxsf0052GPJwc1/824PotYcXwEFEh99W+LoMfLzQVtiIp6JvERABERABEagbAnOxTCSvsP2HVe147c03IRmII9n/CBCmwat/0gqSD7laPYak2COvM/HFLVu2TJ1lhJUm8U4Ty02IQ75UdcSDwwohjwcWj3ic4Yn+/fffTVi0x9VLU0Y/hIsgQskfjie5vhqefuLK8XQjruOEc309d52XCIiACIiACDRmAoRo4uxlsTm0IN+8ofYf/k3nI6HdmJ8SXbsIiIAIiIAIiIAIiEDBBNIK7QYxGbJgOmogAiIgAiIgAiIgAiIgAmUmIKFdZsDqXgREQAREQAREQAREoHESkNBunPddVy0CIiACIiACIiACIlBmAhLaZQas7kVABERABERABERABBonAQntxnnfddUiIAIiIAIiIAIiIAJlJiChXWbA6l4EREAEREAEREAERKBxEpDQbpz3XVctAiIgAiIgAiIgAiJQZgIS2mUGrO5FQAREQAREQAREQAQaJwEJ7cZ533XVIiACIiACIiACIiACZSYgoV1mwOpeBERABERABERABESgcRKQ0G6c911XLQIiIAIiIAIiIAIiUGYCEtplBqzuRUAEREAEREAEREAEGicBCe3Ged911SIgAiIgAiIgAiIgAmUmIKFdZsDqXgREQAREQAREQAREoHESkNBunPddVy0CIiACIiACIiACIlBmAhLaZQas7kVABERABERABERABBonAQntxnnfddUiIAIiIAIiIAIiIAJlJiChXWbA6l4EREAEREAEREAERKBxEpDQbpz3XVctAiIgAiIgAiIgAiJQZgIS2mUGrO5FQAREQAREQAREQAQaJwEJ7cZ533XVIiACIiACIiACIiACZSYgoV1mwOpeBERABERABERABESgcRKQ0G6c911XLQIiIAIiIAIiIAIiUGYCTWrq/6OPPqqpivaLgAiIgAiIgAiIgAiIgAhECMijHQGiTREQAREQAREQAREQAREoBYEaPdotW7YsxXHUhwiIgAiIgAiIgAiIgAg0CAKzZ89OdR3yaKfCpEoiIAIiIAIiIAIiIAIiUBgBCe3CeKm2CIiACIiACIiACIiACKQiIKGdCpMqiYAIiIAIiIAIiIAIiEBhBCS0C+Ol2iIgAiIgAiIgAiIgAiKQioCEdipMqiQCIiACIiACIiACIiAChRGQ0C6Ml2qLgAiIgAiIgAiIgAiIQCoCEtqpMKmSCIiACIiACIiACIiACBRGQEK7MF6qLQIiIAIiIAIiIAIiIAKpCEhop8KkSiIgAiIgAiIgAiIgAiJQGAEJ7cJ4qbYIiIAIiIAIiIAIiIAIpCIgoZ0KkyqJgAiIgAiIgAiIgAiIQGEEJLQL46XaIiACIiACIiACIiACIpCKgIR2KkyqJAIiIAIiIAIiIAIiIAKFEZDQLoyXaouACIiACIiACIiACIhAKgIS2qkwqZIIiIAIiIAIiIAIiIAIFEZAQrswXqotAiIgAiIgAiIgAiIgAqkISGinwqRKIiACIiACIiACIiACIlAYAQntwniptgiIgAiIgAiIgAiIgAikIiChnQqTKomACIiACIiACIiACIhAYQQktAvjpdoiIAIiIAIiIAIiIAIikIqAhHYqTKokAiIgAiIgAiIgAiIgAoURkNAujJdqi4AIiIAIiIAIiIAIiEAqAhLaqTCpkgiIgAiIgAiIgAiIgAgURkBCuzBeqi0CIiACIiACIiACIiACqQhIaKfCpEoiIAIiIAIiIAIiIAIiUBgBCe3CeKm2CIiACIiACIiACIjA/7X3JXA/Fd//pyJKWULWUtkqqW/Zd9mJbKkoSkmlUNkS9bdnaUOLvyJa7fuu7EuI7Ev2spOitKh8fvMenWvu3Hs/2/N4PA/nvF4fd+bMcue+P/fjec+ZM2cEgagQSBVVLal00SBw/PhxWrFipet58ubLSwXy53fpJCMI2AjMnDnLpcqUKROVLFnCpYslg/cQ76MpNWpUp8suu8xUSVoQEAQEAUFAEEixCAjRTrFfXXwD37p1Gz32eHNX45defIFefrmTSycZQcBGwH5vSpQoTlOnTLarRZ3v268fLV26zFX/4IF9dMUVV7h0khEEBAFBQBAQBFIqAimaaB86dIjKV6hIZ86EXPjDIjZn9ky6+eabXXrJpHwEpkyZSi+1a+95kOzZs9HiRQvFGupB5qyiarXqtHv3Hk9pr5496OGHH/LoRSEICAKCgCAgCAgCCUcgRRPtSZOn0C+/nPBFYfyEidS+3Uu+ZaJMuQiMGzeeTp486XkA6L75ZgWVKlXSU3apKzZs2Ejr1q33hWHM2LFCtH2ROafEhP7YsZ+0ImvWLJQtW7ZzhZISBAQBQUAQEATCIJCiN0NOmDAh8NEmTpwYWCYFKROBn3/5hebNnx84+HDvQ2CjS6BgfJjfybJlywlEUiQYgSdbtKRKlavoz9APPwquKCWCgCAgCAgCgoCFQIol2jt37qK1a9c5jwN3kTRp0jj57dt30Pr1G5y8JFI+AtOmTafTp087D3LVVVc5aSSmTJ1Gf//9t0t3qWfOnDlDkyZNcsFg4obyiZPi97N2dXwRZnbt2k2rVq26CJ9MHkkQEAQEAUEgKRBIsUTbtlgXLnwHlS1bxoWZWDhdcKT4jP19PvroI3Tttdc6z/Xzzz/T/AULnLwkSLvTHDhw0IECGw1btnzKySNh4+oqDJM5H9FBzkefYR4hYtHo0aMj1pEKgoAgIAgIAoJAEAIp1kcbPtimVKlcmbJkyUJffz3PUU9UlrzXXnuVLr88eD6BEGMrVqxw2mBj2PXXX6/zmzdvpm+/Xa0t57t276LcuXNTvnz56L5atSh//nxOm3AJ+McuXbaM1qxZo32LixYpQkWLFtWTglSpUqkNartpqrLEsuTKlYsaNmzAWd8rrPmrV6+mzVu20NatW/XzITxf/gL5qXy5cnTDDTf4totXiWeYr1w29h84QAf2H6DDRw5TxoyZ6MYbclOePHnogQceoBw5ssfbfVTtQBaXL//GVbdG9Wp0QI1p+vQZjn78uAlUrWpVJ++XwLuzf98+XZT6yivp2Wee1ul///2XvlHvwjq1UrJ23Tr6Sfnl5s17C+VT2D7YqJF65gx+3Wnd+X6PAm8cocAm0UWLFqEG9evRwIGDnJbw396xY6d6t/M6umgSadOeXVH4888/afGSJbRq5bf03dq1hI2peM8rVChPN910UzRd6TpXqu+Cf6vAc+XKlfr3d9nll+n+4H9fRPUbreC9Xbd+HX2/7Xva9v33dObfM5QzV066/fbbqdEDDem6664L2xUw+XKUm2jjdzdo0GBXu4oVK9KddxZ26SQjCAgCgoAgIAgAgRRJtEEMdu7c6foGq1atojcpvdKlq6M/ePAQLVu+nMqWcVu6nQoqsXjxYuo/4A1Hdc0119ATTzSnAUo34I03Hb2ZeFPp277Qll5Un3ChyEBm+rzel0Khc1FR5s0762OMP87Dh31Ic7/6mnr17uN0X7x4sUCiDbeIt956m95R/YIUmvKV6geSNm1a6tC+HT377DMEIp8Q+f9DP6QvvxxFmHCEk/79B1DTZk2pa5dX6Oqrrw5XNe6ySZMnq+gyZ5z2+J5KlCypiPZBF9GeNXs2nTp1itKlS+fUtROfffaZK6xcpXsr6snJUy2fprlzv3JVB4GEgFz1fb0P1a59n6ucM+fzPeJ7xHo9rd4XcxKH9lWrVKHbbrtNP++PP/7odAlC3rFjBycfTSJ9+mv1ZuTGjZvQajWRNGX06DEEF5UhH7xPNWvWMIsC01idwHf88sudacTIT1z1ZsyYqfMvtG1LnTt3ChtdBhuku3TtSmPHjnP1YWZ69uxFTZo0pp49urtczlDnjz/+oLffHkjvf/CBy1UJZfBpx8cUvGtCtE1EJC0ICAKCgCDACASberlGMrzaVrrMmTPT3XffrS3OhQoVco14wni35dtV6JOZOm0atW7TNpBko8lfyk8Y5PLjj0f49HBW1aFDR+rd53UXyTYrL1AuDnXur0cLFy401YHpI0eOUM1a99GbimjbJNtsBOtiz169qW69BvTPP/+YRTGnv/3224gkG50Cj48+GkadFEE6X2J/5xUrVqArU6ematWquiY7IEmzZs2OaRggdffXrech2WYnwL/FUy1p48ZNpjownVjvUeANoijAKgQ2kJoCvCA1a7jJr71CZLYJSmNCU7defQ/J5vr4Lpo/8SR98cWXrAp7Tav2WLRq9byHZJuN3hk4kNq0fcFUudJ4Z8uVrxCWZKMBfP1HjBhJ99WuQz/9dDaiCHeESRXuY+4H4DK5CgKCgCAgCAgCsSCQ4oi23+YtWLN5ybmmOlnOFBAeWPaiFRygAWtcNNJPkW34BduCJeuRn3xqqz35TZs2hSV3ZgOQZ3tzZ9asWalWrZrKYlhTu82Y9bGBK6EREnCQjekzm0Yt7RdQ7ik4qCS1Irm2ADe2PNplCcn7bWytXq2a7hKnE2IVwJRx48eb2YjpYcOGe7D1a4R375UuXfyKPLrEeI88ncaosCeZcCm69dZbdS81arp/J3BhWvPddzHdAW5aW5T7UjgBZt179NRW4nD1UAbXpAlRRAvCewZXLFuw4gMSfvjwYbsoMI/f1IsvtnOVmytQroKAjPkbCagiakFAEBAEBIFLFIEUR7ThCmKHI6tR/RxpAOk05cSJE/T1f24Vpj5SGv6bQ4a8T2tWr6IN69dS7949PeQSfdvLyOh38LvveroHKUZ/K1csp2lTp9BTT7Xw1AlSILrKmDFjXcWVK1eib5YvpREfD6eRI4brdKVK97rqwP0F7jPxClwMGjV6gB566EEaN3Y07d27m5YsXqRPA9y8aaPvM5g+8vHe125nb3zFpAqTKxb7O1+4cJHHSsl1w13vuutO/Zxbt2xSeC6jRx95xFMdsbptK7GnkqFIyHtkdBNzEtZmuNGYguPNWUqWKEGZMmbkrL7axNxVGJCBX3X37t30e71xwzp6440BhAmZKZiMRmvVRjvgvmD+18q3eiuN+vILyq32Ldjy7nvv2yoaqlyd4FdtCmJeDx06hFZ/u1K5iS3Uv2N7fMAJByGxPPdcK+Wn/53+bbGOr82bP67LUM4fOfCH0ZGrICAICAKCgI1AiiPaNhlASD+4EbAg+oj9hzlcHGFuZ15B5HC0dIP69bU7Cv5YP9WiBSHKhS27du1yqY4ePerxi0V/EyeO1/1hcxgssL179SRYjKORfv37u1xQQBTeevNNV8SN9OnT09tvveUiOSBb8B1OiLw7eBANHjSQypcv76waoL8MGdLTc61auSze0G9RmzMTWyZMnOTqslixoq6NbPYqBlxmTOLkahyQwSmiUyZP0s8JcnzLLTcrf/g36NaCBT0tdlvfuafCf4qEvEdBfUarh/sMXDdMweZRFvjvVzEmK9DDDz6cWxK3Na9du3bRm0nxXmMTcbOmj2qybdZB+uMRI2yVbx6TZuCODYvYfIrJ44QJ41zuQWiIlRPTco1VK7hVmYJnnDplEtWrW1f7pBcsUED/jj9QfuO2fDlqlKOCrzg292JztS1chnL+nK99Cfa9JS8ICAKCgCCQ8hBIUUQbf0ynTT8XoQNwlytX1rMBr7phuUOd2bPn0K+//opkVAJSmT9/Pk9d268VFfbu3euqh7i7NlnBRABRQWzBpstoNizCFcWUOwoX9o3ygT/8+RWZMGX7jh1mNlHTOXPm8DzXnj17EvUeiGJhT2bMFQzcDJFP2CWCbz5ufPBhRlzHvDZp/LDevGfqkLbfJej2WN85dH6SkPfIr79YdPbkMkOGDFRSbR41xX6f4Ye+ZMlSs0rYNDYCP6I2FNpSv0F9D0nF7wJuJJGkabNHPVVA4qv95yrEhegLfbLgvfvtt984q69VVfQZtLUF7la5cuZ0qbEKcuLESZdOMoKAICAICAKCQEIRSJXQDpKy/byvv/YcuV7D2tSF8dRSUQ6GDRvuDO2vv/7SFjC4QEQjFcqX862GsGW22P7f+/bvt6tQmdKlPTooYAG88cYbPUTSrAyrNAiQKYgW8dDDXoKDOgh3Z8r27dvNbFxpuEsg3N0PP/xAP/7wox7PnwpT4LrvvzB53HE0ZIrrRnO1VzDQJug7R6hDFmyKA07Rhjosr0LR+Ul2n+O2/z79t19Vjy4h75GnsxgUx48fpwULFrpaVK5UyeP6BGsxVoTwPbKAoCMsXzRy/fVZXasq3AabVP/3v7uII+FAj1WGQ4cOEyZn4SRf3ry+xcXVKsbMmWcjj3CF/cZvzZ6MoQ7a+AlWGoqqsv2TpzjFGB/IOtyHRAQBQUAQEAQEgcRCIEURbb/ICNhQCF9kU/yibaBttETbb8kY/SN0XiTh+MxmPRDqIMmaNUtYoo0//raAeNvk267D+cOH3SSd9dFcR6kYwu9/METH6o6mPurEupEsXL8g7XBnMAUh4+wIJCj/wQhVhzzGMUF9523btkE2omT1cRNAo7RXRf7OgzpPyHsU1Gc0erjN2L+Bk7+e9PxO0FfmzNfpEIncL2KSD+jfzxPyjsvNa/ZswbHT4W5ly/79+yIS7ezZ/fv068+c1O5SseVtCfe78ys7dPgQ3UVCtG0cJS8ICAKCgCAQPwIphmhjWRguILaEC7Fn1oWvMvynsSkxkiBcYLxy0sdFBTGfgySTOvglnBxTh6YkSBThjEeGD/+YXu78SmBTWEKvUiT0t99OeUhdYKMYC5YuXeryw0Vz+B0HxTe3u8fkKlqinZDv3L4v589Hn9x3uKvtNoK6sC6bFuag9nCxmjNnLtWpUzuoSlR6vB+2nDr1u62KOu/f3ymn/XGf6D/mUfNOxf8SfmWn/zptV5O8ICAICAKCgCCQIARSDNHG5i7EiI5X4DcN6yg2NUaSNGncURMi1TfLc/hY5H5SS/lB8tspt1+pXS9PnhttlQ6vZ/vXeir9p8jmM56guqzHKXpdur7KWef6gDpN7/HHHtMnUHLEikqVq6rY0ud8yBMz1Jm9CdIZSJQJuJLgsB1srIskiJ6R2JKQ9yjescDKu3Llqnib63Yg6tEQ7aPHjgXex2/FBacyRpJjqk8/dx+//kw/az8LNSbWQYL72IINsSKCgCAgCAgCgkBiIpBiiLaflS5WIODvGw3RjrVfs36u3N5QZActv2mzvhk5wdRzGj7ciDKCQ2FYYCFv1epZzib6Fcdf2xs6EcJs0MB3PPeyI1t4KsSpwGEh06ZNj7P1uWawakdDtM+1SNmpSSpCS0LddxAOExsDEVkmnIDIIna1X0z13bv3eJra0YA8FZQCJ336EW2//szfmt8Ed6/aUxAk2GtgCiaIiDQjIggIAoKAICAIJCYCKYJo4+Q2RAUwBcvyDRs0MFWe9IwZM8j048Qx0fB59otE4GkcpyJXTi/Rht9rp04dPT2CVPgRCLMiNm7dfMstLj/pVau+1XGiz5drwsYNG8wh6DQ2mNry+++/azxNfUJJHveFeNyIU24KQjeWKlnKVHnSw4YPd00SJiqijaPhE9PS7rlpMlL47WN4/PHH1CmawRZ7RHbBAUcsmNQhus8jTZqwyveKTZQ4sh5RPEzBITbYO2EKVkCiCYM3ZepUvWJjtoW/+cRJ7hCPKDeJe+nSpXQEH9M3ffKkyfTaq11dYSnRDpNbxOM3BRud7fFdcYU3KBPeeRFBQBAQBAQBQSBaBFIE0fbb3IWl7V69eoR9zmuvvcYTWxdEpN1LL4Ztl5DCW28tSNjQZR6qs3XbNvrk0890jGHuG4Sgz+uvR+XfXKf2fS6iffLkSerQsRMNUfGAg1wedqrNYYi8Ee0GUB4XrlenS2dmdXrjxk2eaB+vv97PRWo9jRKg8FvBaNO6NdWte3/YXtdvWE+IksKCiRYs9CVLlmDVRXvdpt4zm+DiJM/+/fqGfebFS5ZQw4aNXHWw+hOJaKNB37796O6773bCTSJKDt5NWyoYse7tMjOPDbh1atd2fV/duvXQ+yvMeoheki9fPkeFSSdCfc6fv8DR4aRJnKgKss0TLUwOOnZ82fPeNmzY0GnHiRw5vK4umLz36tnDQ965jVwFAUFAEBAEBAETgRRBtP1Ilx1L2XwoTldXh1/Yh1ggYsX5JNpYRn+qxZP6DzyPA9f27TvQXLXJ7O577qaTylK7aPESl2+zWddOY0Mf/JV37jx36h3cKipsqURN1QEhiPmNCB0HlYUc5GKRsv7DSolQZfEQ7Xz5vCHWhn88QrsIlCpVSpMeEKLZc+bYQ02UvN/GV+CKcHSRBO+FSbRRH9/5pUC0EWXFFvwGIglOiUScbXMFYemyZXqyGBQFhPvEJLJixXuVFboEZcyUkRYvWqzfQS7nKyZJ0Qg2Yz7Q6EEqUby4XnnCsfD25AH9tFKHJdkuK+3bvaRXvswQk++pEyTnzZtPxYoWIYSkxLuBMJWmIKKJ3+FRsHJjIgs3JhasQpUrX4EQLvHo0WN6bHi3+qtILSKCgCAgCAgCgoCNQLIn2oiFDFcJU9Ipi2vZsmVMlW8aRNO2Lm/fvoNwAAzcEM6XNGvWjN5+Z6DnAA0QU5OcIvLBGbVJ0/S/9hsT/ti/qY62rt+gocv/FsS7W7fufk0SpKt0byUCxrBOsmDzWO8+r3PWuWID2e7d5w4OcQoSkMCpf2ZsZ3RVWsUix6l8kQQHm3Tr7l7pmKzC3fXu3ctDzCL1ldLK/TaPmqdBBj0PCCuI44SJ54j62dCKU+iZp1sGNXP0OJLePu7dKVSJypUr0R13FDJVYdMgtrCy4+MnOLmzqc8prcWKFaPWrZ+ngQMHuZrBlQWfIPl/r71K2PdgC9y2qqvTNKdOneYqwv8h+LAUUSReRBAQBAQBQUAQ8EPA64Ro1OLlVkOV5MmJPpu7cNJikMuEOUCMv5p1zDTKx48fb1ZL9DQ2kY0dM0rFKA4OEwgL4rixo33dNPwGBB/U8ePHquVyr7XZr35CdFiW79z55YhdwHo8d84sX5ISsXGYCn4rGNWrVQ3T4lwR8MlrHXryswr9Nn/BgnOVLsLU6tWrPaeU4v0rUiQ6ElituhffSL+T4cM+ovvvrxMWzVKlStJ77w4OW4cLn3/+OXpVHekOghskeDfHjhnte4on2ryi3lu8u+H64L4R5xzPgGg6QdLllVf0ZuSgctELAoKAICAIXJoIBHFkWx/8Fy2Z4Oa3uSsatxEevt8R2thYZS4vc93EvILgzJwxTVvezYNukAb5mDxpAsECB3/raKVsmTK0YMF8TSRuu+22wENFELWhTZvWNHjQwGi79tRr+VQL+nj4MM8BI7B+4rjz7t270YgRwyl9+vTUoH49T/t4FbCcL1LuB7bUqBHZBYLbwAppi98Jk3adlJz3+51UVZPMaAgnnrtypcp6M6GJwbp165W7kvcgGNTBhKa22jvw0YdDNTk2Q+2hHOH2WigXqrFjxxAs0JEEx7m3ePJJbZH+4vPPqGCBAq6xw+JcTU22Zs+aGXY1Cv/BvfhCW5oxfSo90LCB5zeCckTyadz4YVqyeKF+hnBjQySSr76eS8WLF/OthkldKetoe9+KohQEBAFBQBC4JBG4TG3aC4F0YnMeQrrhipBdfL3nnnsuSWAS86GB5ebNWzS5L1TodseFAf6oefMVcN2qZs2aNFIR2GgE3xtcaxC5BG4osNDhEyksWzR9m3Xgl7pz107KrAhTvvz5VQSL1GaxpAUBjQDC/cFnG+5EZkSQeOGB6xI24eJ9LmAR72j7ROz9ffv2q7CB+9WkMIPqJ78nuki0fWFSvGvXbsIR95g8wLc7R47s0TaXeoKAICAICAIXEQJrVCQ7GB9TpUrlXGE0Qh5GLv4kex/ti+E7Aeh33lnY8yj2pixUgCUvWsGXmCdPHv2Jtk089bBcj4+IIBAOAZy6Gs3Jq+H6MMuwT6BEieKmKuY0VpBgfU8Mlyus3vzvf3fFPAZpIAgIAoKAIHBxImC7ifg9ZbJ3HfEbdHLXRXuIy9ix4zyPUrBg9ETb01gUgoAgIAgIAoKAICAICALJBgEh2ufhq0BIsVKly+roFwgnhqVm8yAXuJIM/fAj+miY20UE7h8lLoF4z+cBculSEBAEBAFBQBAQBASBZIdAoOtINObwZPc0yWhACL33/vsf6A+GBT+erFmzUNq0V2m/avjB24KDNRLDt9XuV/KCgCAgCAgCgoAgIAgIAkmPgC/RFpKd+F8EiDU2FQYJIqk88UTzoGLRCwKCgCAgCAgCgoAgIAgkMwQicebLI1VIZs+TIoZz00036egf0QwWmx9HjviYPvlkhHNMdDTtpI4gIAgIAoKAICAICAKCQPJDwOTWvhbt5DfklDUiHICBz9atW2nFipV05MgROq4OTfnl518oVepUlEfF8UWsa0QMKVasKCEcjIggIAgIAoKAICAICAKCwMWFgBDt8/h94mAXfEQEAUFAEBAEBAFBQBAQBC49BDxRR0xz96UHhzyxICAICAKCgCAgCAgCgoAgED0C4bizh2hH363UFAQEAUFAEBAEBAFBQBAQBASBIARcRDscIw/qQPSCgCAgCAgCgoAgIAgIAoLApYxAEId2Ee1LGSB5dkFAEBAEBAFBQBAQBAQBQSAxEGDiHZZoc6XEuKH0IQgIAoKAICAICAKCgCAgCFwMCETLkR2ibTew8xcDKPIMgoAgIAgIAoKAICAICAKCQGIgYHNlO497OEQ7MW4ofQgCgoAgIAgIAoKAICAICAKCwFkENNG2GbidF7AEAUFAEBAEBAFBQBAQBAQBQcCNgM2ZzTzSHou2WcHdleQEAUFAEBAEBAFBQBAQBAQBQcBEIBx39hDtaBua9SQtCAgCgoAgIAgIAoKAICAIXCoIhCPXJgaXmxXNtFlJ0oKAICAICAKCgCAgCAgCgoAg4I8AODTzaL6ipmPRNpUosPPQiQgCgoAgIAgIAoKAICAICAKCQHRcOZUfUMmRZB85coR+++0313DTpElDWbNmpSuvvNKll0zCEDhw4AD9+eefnk6A9bXXXqv1f//9N/3444+eOhkzZqTrrrvOo09KxfHjx2nXrl2UKVMmyps3b9S3/v333+mbb76hU6dOUdmyZXX7SI3jafPvv//S2rVr9RiLFy9OefLkiXQbV/mZM2doxYoVFAqF6I477qD06dO7yu0Mvkt8pxkyZKDMmTPbxYH53bt3U+rUqSl37tyBdfwKfvnlF9q8ebOerJcqVcpT5cSJE/TTTz959KzAO4Z3TUQQEAQEAUFAEEjuCARxZkevCGzo4MGDoX379oX27t0b2rlzZ2jbtm2hTZs2hb777jv1tzx5SKNGjUIKbN+PInehChUqhEaMGBH6448/kseAU/AoFPnzxXno0KHOU+H9CPo+FEkKKaIaeu6550KKjDttkirRqlUrPbacOXOG/vnnn4i3PX36dKhx48ahVKlSOc90+eWXh6pWrRo6efKkb/t42qCjN954I6SIpHMfYJgvX77Qxo0bfe/jp0QfjP3ChQv9qji6rVu3hm6//XZdH7hEI4oIh+rXr6/boG2sUrt2bd1W/Sfj2/TVV191xs/PYV6bNWvm206UgoAgIAgIAoJAckEAHBlcCJxZGfc0hwaXBqcGtz527FhIGZVC2qIN1s3Mm6/qD5/WqQdyyqC70FKgQAHKnz+/HgasqupBaMeOHaQIh/6MGTOGpkyZQldcccWFHmqKvf/IkSNp3rx51KtXL1IvDCniRM2bN6dKlSr5PtN9992n9XhXYDndvn07LVmyRH/QV/fu3alt27ZJ8p2oiRZ98cUXejwYy8yZM/X4fQeulLAuK5JN48ePp+zZs1PdunW1hRjv0Ny5c6lGjRo0e/Zsuuaaa5wu4mmDxu+88w61b9+errrqKlITR1IkVuO8ePFije2CBQvotttuc+7jl1DEmbp27epX5NFNmDCBHn/8cfr11189ZUEK9Z8GNWjQgL7//vugKmH1arJL06ZNC1sHv1nIDTfc4Lv6EauFP+zNpFAQEAQEAUFAEEhkBJgbm5wZtzD5tHNLsO5Dhw6F9u/fH/rhhx80Kwc7V0u/IbW8HVJkNllMHtii3bNnT894YMUePHhwSD2gtpQNGzbMU0cUsSNQunRpjefw4cM9jdmirSY0njIosDLy0EMPOZbLli1b+tZLbOWnn36q71mrVi19rVevXthbKEKt62FVBGNmUe4jobvuukuXwYJsSjxtMKtVbhi6P0Xqze5CLVq00HpYgsMJrPNYbVCkP1SxYkXdxs+ijXodO3bU5cqtJNS0aVOdjmTR/vLLL0Pp0qXTvyNeFYjFoo3VC+WeEipXrpy+4vfoJ/xbHjt2rF+x6AQBQUAQEAQEgWSNALgxODK4Mlu0waHBpcGpjx49qi3aypU15Io6wuzbZOiwECZ3SZs2LT3//PN0//3366HCfzWSwA83HlHffEwWQvMe8bbFWOGXG4/AXxb3TWq55ZZbaNSoUfqDe3/44Yfawm2PQ5FCgpVWuWLYRXHl1SRLt+vWrRvlypVLW1cPHz4c2Nfo0aN1mSKmhDGzXH311TRo0CCd/eSTT1itr/G0gXUZKzDVqlXTFmOzQzVJJNxv1qxZhL0IQdK/f39auXKlXh1Qbi5B1WjIkCGEurAMw1petGjRwLpcsGHDBmrSpIl+z7Ai8PTTT3NR1Fc1YSD4X7/22mvazz2oofoPSBdhBUFEEBAEBAFBQBBIaQiY3Fi5moYdvlPK5BpXboRruE1LYXu+AIW88Q3k0pYtW7YQyBQ2jymrnXYFwMY9ZRkkLNn7SaFChYjdIkCCqlevrpe6sfksS5YsevkfG8b8JCFt0R829IG4wFUGm8PwKVGiBE2cONHvdvTkk09qoqh8ivVE4MUXX9QbAbEhEOTuQomyapOyKmuyr6zaHtIPFwq4S1SuXDnBQ4QLEb5LEDiQS+VnTCDycF/xE5D7yZMn66IqVap4qmAjH1xG1q9fT8qHWpfH0wYNlfVWt/e7DyaKygqsxwrXJz8BEcbkAW5TXbp0IfNHbtcHScb3v2rVKrrzzjvpr7/+sqt48oULF6Z+/frRokWL6OGHH46qjdmJ8t/XLjaPPPKI/k0B9yBh1xEh2kEIiV4QEAQEAUEgOSMAbswuyuDN5scct+bUUCDBVzv9888/x/xHV3d2Af5Rjun6rkWKFPHcHb6qAwYM0BZDRHqoWbOmJivw7YbvMXyKbdmzZ4/2oX3vvfe0ny/IDvq++eab9QRk3LhxmtD5TUYS0hbE7p577iFYZ0FYQBhxXzwf/Gdfeukle6iklioIpB/3RR34A6slDE2+CxYs6KmflIrevXvr22Gyo5ZWXLdevny5ziPaR0It78rFRfcFsof3WLlM6DxbuV03Vhlghkg2sA4Db1sQcYOtwbC6Q+Jpg3bwW4dgsuQnHJ2D72PWwTuA9xdX+EDDx9svKgy3wfO89dZbTuSOcKSX2+DaoUMH53mjbYN2eOfge642nxKs8+HGhvps0c6WLRuyIoKAICAICAKCQIpBAMYrcGOIyZn5AWydY9G2G5gVsaksOQuIbufOnWn+/Pmk/GpJ+Zd6htu3b1+aM2cOwY0A9WbMmKFJN9xNQPCw3O0nIA2tW7fWJB3E9auvvtJh2UAQYW2G5RmWQD+Jpy3G8sQTT5CKAEPt2rXTBA0b9WBpXLZsmQ7R9vbbb/tODDAGbOwDaYV7A3BRfsf07rvv+g0vyXS33norIRQjxCaSsHhDcOV3Titi/IdJKJqBlEIwocK9sbEPLhS2sGUVYe94ZmrX4XB47H4STxv0ye2CQh/a9zHHgYnKmjVr9Pug/OZ1USxEOJ4JTLRt+H3Fhku4B2EFJdzYUB/vJSYxkyZN0i4uffr00S5G9rthYiBpQUAQEAQEAUEgOSAATsx8BZ4fSPPHb3zaRxsVzMqoaOrwh5GJgl8nSakbOHCgJk8gULDUwoUDMXfhD/zZZ59pQmJGiOCx3XvvvaTCtTngQA+CxVZPRFsIEriPYCkemLCULFlSu6IgDxIUJLG2hZV89erV2lUE0TpMAgjrKsYBYSuxfV/llK9J9oMPPqhdZOzyC5HHu8X+zzaZwveJ2SG+u4QIJk6IkALLP9yDWFSoOJ30s2qzZTVcHGq8IxAm2vG0wfNx5I+ge9n30TdV/2AVA981IpSojcCsjsv6b76/TkcREpHaYLUHE1dMDtUGVN1bOJIOH24Qcfir47vp1KmTdoXBBBEuRHAl8ovPHmGYUiwICAKCgCAgCJx3BMCFwYmZI5s3ZB2u5icVZ7gy55l48xWWUSxJw6/5Qgr+UOOQEAj+oLOvKizL8Le98cYbtb9rtGMEAYdgExoIgN8mM2wS8xOQfUiQnzbKYm07ffp0NNMWXviS2wJfXkjQxAAuCEx47LYXMo8JEQTfky2JceAQE2m2ZvM9MJFCODz4SGNzo0l0mfxiI2KQcBn7/SekDe7B/dn3Yz3fB+XwB3/sscf0ew4/c14VMNvi93qhBP8ngCjjN4dVFlv8xob/P2DJxuQUky/kMYnB5BJuMZhowtceqzJ+z2vfQ/KCgCAgCAgCgkBSIIC/z8yFwY3Nj/n3jnk0jykVEqzkKxojygWTbFhVkYePrTpcw/H95E6S8goXDzOOMNwz4Gbx+eefaxcOuFlgCRsWNltQDzGRcYWvMEBj4mTXNfOI9+snTI7CRcyItS1IBgTEo06dOp7b8nhVUHTtC4uocy+8AAAF20lEQVSNdKawr6+pSw5pnozg/UlsgSUbFm28v/CfB0kzBRtT4V+vwte5omkw+bdPHDXbMt5wiYDE0wZt+TeFe3Ef4e6DMqxoYNx439lX3GxzIdP4/wCTGkx0MckxJzCRxoVY5fjY0qZNG+3ug1MzsdKBzcsigoAgIAgIAoLAhUYAq9ngZzDGghMzXw66Yrwog2iirVPqH1aaDdEhDujgK/xdYTZH6DBsyrrQAqIJF5IePXroaBPqNELtywrXCXYhgRUVB67gIA0QBIwbBBguJ6Y1NWjJOyHHQcfaFpMACAgWR7qwMYZ/KwSTDJtonw8ia98/1jxWIODfDuFVgFj7CFcf1l72C8bhOkECQmiGrePNeFglCRIu4+8xnjb47YBcY9WE+7Pvx3q+DyKGwPcfew6C9g/YfSRlHkQYG4ifffZZ8oukEs9YMCHC7xeblnmTbDz9SBtBQBAQBAQBQSAxEIAxCbwMvJdJNgxnTLbZIM282bwn67TrCAgmK9CYrdlshUPn0OGKumD2sCKCFOTIkUP7E4P8oY8LKQ0bNtR/qGGpVkHEtXUMkwS4UiC2NjaSgbyo48GdYWLnKG9QCxo/cIhXYm0LIgdrNSz0mCzEKkHPEGs/iVkfkV14EpPYEVDQL7uNIHoMT67s8eOESJBXRHRByDsIk2aERIQftZ+rAse1Zit0PG34XuiL+9MDMP5hPd8HE0e8u3g/y5QpY9Q8m+QoJgiZiNCPxYoVI/hLJ5Uw+ccmU2w6NQXjhuD/DC575plnfFeZzHZI83eDvQYigoAgIAgIAoJAUiIAToE9RFjNBs8F3wW/BTdmcs1Xk2SbaYzX5GKXKWtvCH8Q0Tmu+CPJV1gJ+QM90hgArpxHXeTNPtCX+cFNOY+0iCAgCAgCgoAgIAgIAoKAIJCUCIAAMwnmNF+ZLOMKwzJfQayRB+HGlfNIcx51oTf74HQqJCAgyrgZ8iDFnEZDlHEd5FlQB4QbV9ThD5NqXCGc53bmleuYOkkLAoKAICAICAKCgCAgCAgC8SIAbuon0HMZp3EF/+UPuC4TZz8yzWXcHu3MNPIQ6Bwfba7AV1RigoybwGrNJJvrQIc06rIlnNswOWcizVfzof10Znk06cToI5r7SB1BQBAQBAQBQUAQEAQEgaRBAPwyoeLXB+v4apNkJtHQM8mGjvXQoYw/6Mf88JhRDnGijiADJYgrOsOVK7EOdczOkAahBsnmtkhD0Mb8aKXxD8pilXjaxHoPqS8ICAKCgCAgCAgCgoAgkPwQAO+MVfza2FwWefBYvjKpZoJtXlGPy1EfaW6HKz4sSOvNkFAwiYUSaSbZKEMnXI48BPVQh63aKAfp5nacR12zrZlGWTiJpW64fqRMEBAEBAFBQBAQBAQBQeDiQsAktZGezKzLaXBWM815XE3LNRNt6JlkI40PhPvgtJl3iDaUILbcCJWRhx463JDdQaBjSzankUd9vqI910cagnJ8giRcWVAb0QsCgoAgIAgIAoKAICAICALgpEGCMrsc/JZ1nMaVPyapNok398X1cIWwnvvE1fHRRiUmwijgPDfUPah/cCPeAIl6aANCzQSbr6jP/fkRaFNnpvk+chUEBAFBQBAQBAQBQUAQEARiRYCJLtqZae4HOv5wHfBe6HC10ybhRtquZ/Zh3gNpx0cbZBcdm1ZodAaBjtPI4wbQMak20+iHP6jLJJqv0EHs/Fmt/CsICAKCgCAgCAgCgoAgIAgkDgLgrKZw3rwizR8/oo0y6E2SzWmzHe6DvHnV4f1AlFmJjthiDR0TbCbGZjnSaMsD4DrcH/Ks0zdQ/5h5M83lchUEBAFBQBAQBAQBQUAQEAQSigCTXvRjpjnPOvBZU4c8PijHh0k16zhvtue66If7Q9qxaCMD4ssdcvQQzpvkGTrUZUKOG3I5rsijnIm0fcW9wgnXD1dHygQBQUAQEAQEAUFAEBAEBAHw0miE65lXTjM55iv0JqFGHmX4cBvck+vw/c0ypP8PUYbFAQsRorYAAAAASUVORK5CYII=;" vertex="1" parent="1">
          <mxGeometry x="56.5" y="57.09" width="370" height="362.91" as="geometry" />
        </mxCell>
      </root>
    </mxGraphModel>
  </diagram>
</mxfile>
